NotoSansSinhala-Bold.ufo
<glyph name="exclam.sinh" format="2">
  <advance width="341"/>
  <unicode hex="0021"/>
  <outline>
    <contour>
      <point x="251" y="250" type="line"/>
      <point x="276" y="714" type="line"/>
      <point x="65" y="714" type="line"/>
      <point x="90" y="250" type="line"/>
    </contour>
    <contour>
      <point x="67" y="81" type="curve" smooth="yes"/>
      <point x="67" y="15"/>
      <point x="114" y="-12"/>
      <point x="170" y="-12" type="curve" smooth="yes"/>
      <point x="225" y="-12"/>
      <point x="271" y="15"/>
      <point x="271" y="81" type="curve" smooth="yes"/>
      <point x="271" y="150"/>
      <point x="225" y="175"/>
      <point x="170" y="175" type="curve" smooth="yes"/>
      <point x="114" y="175"/>
      <point x="67" y="150"/>
    </contour>
  </outline>
</glyph>
<glyph name="quotedbl.sinh" format="2">
  <advance width="532"/>
  <unicode hex="0022"/>
  <outline>
    <contour>
      <point x="237" y="799" type="line"/>
      <point x="63" y="799" type="line"/>
      <point x="83" y="541" type="line"/>
      <point x="217" y="541" type="line"/>
    </contour>
    <contour>
      <point x="469" y="799" type="line"/>
      <point x="295" y="799" type="line"/>
      <point x="315" y="541" type="line"/>
      <point x="449" y="541" type="line"/>
    </contour>
  </outline>
</glyph>
<glyph name="numbersign.sinh" format="2">
  <advance width="671"/>
  <unicode hex="0023"/>
  <outline>
    <contour>
      <point x="516" y="399" type="line"/>
      <point x="651" y="399" type="line"/>
      <point x="651" y="522" type="line"/>
      <point x="538" y="522" type="line"/>
      <point x="575" y="714" type="line"/>
      <point x="444" y="714" type="line"/>
      <point x="409" y="522" type="line"/>
      <point x="322" y="522" type="line"/>
      <point x="359" y="714" type="line"/>
      <point x="228" y="714" type="line"/>
      <point x="193" y="522" type="line"/>
      <point x="53" y="522" type="line"/>
      <point x="53" y="399" type="line"/>
      <point x="170" y="399" type="line"/>
      <point x="154" y="313" type="line"/>
      <point x="20" y="313" type="line"/>
      <point x="20" y="193" type="line"/>
      <point x="131" y="193" type="line"/>
      <point x="95" y="0" type="line"/>
      <point x="225" y="0" type="line"/>
      <point x="260" y="193" type="line"/>
      <point x="348" y="193" type="line"/>
      <point x="311" y="0" type="line"/>
      <point x="442" y="0" type="line"/>
      <point x="478" y="193" type="line"/>
      <point x="620" y="193" type="line"/>
      <point x="620" y="313" type="line"/>
      <point x="500" y="313" type="line"/>
    </contour>
    <contour>
      <point x="284" y="313" type="line"/>
      <point x="299" y="399" type="line"/>
      <point x="386" y="399" type="line"/>
      <point x="370" y="313" type="line"/>
    </contour>
  </outline>
</glyph>
<glyph name="percent.sinh" format="2">
  <advance width="966"/>
  <unicode hex="0025"/>
  <outline>
    <contour>
      <point x="28" y="501" type="curve" smooth="yes"/>
      <point x="28" y="353"/>
      <point x="101" y="276"/>
      <point x="210" y="276" type="curve" smooth="yes"/>
      <point x="331" y="276"/>
      <point x="396" y="354"/>
      <point x="396" y="500" type="curve" smooth="yes"/>
      <point x="396" y="648"/>
      <point x="326" y="724"/>
      <point x="212" y="724" type="curve" smooth="yes"/>
      <point x="93" y="724"/>
      <point x="28" y="647"/>
    </contour>
    <contour>
      <point x="175" y="500" type="curve" smooth="yes"/>
      <point x="175" y="571"/>
      <point x="184" y="606"/>
      <point x="212" y="606" type="curve" smooth="yes"/>
      <point x="240" y="606"/>
      <point x="249" y="571"/>
      <point x="249" y="500" type="curve" smooth="yes"/>
      <point x="249" y="429"/>
      <point x="240" y="394"/>
      <point x="212" y="394" type="curve" smooth="yes"/>
      <point x="184" y="394"/>
      <point x="175" y="432"/>
    </contour>
    <contour>
      <point x="753" y="714" type="line"/>
      <point x="608" y="714" type="line"/>
      <point x="212" y="0" type="line"/>
      <point x="357" y="0" type="line"/>
    </contour>
    <contour>
      <point x="570" y="215" type="curve" smooth="yes"/>
      <point x="570" y="67"/>
      <point x="643" y="-10"/>
      <point x="752" y="-10" type="curve" smooth="yes"/>
      <point x="873" y="-10"/>
      <point x="938" y="68"/>
      <point x="938" y="214" type="curve" smooth="yes"/>
      <point x="938" y="362"/>
      <point x="868" y="438"/>
      <point x="754" y="438" type="curve" smooth="yes"/>
      <point x="635" y="438"/>
      <point x="570" y="361"/>
    </contour>
    <contour>
      <point x="717" y="214" type="curve" smooth="yes"/>
      <point x="717" y="285"/>
      <point x="726" y="320"/>
      <point x="754" y="320" type="curve" smooth="yes"/>
      <point x="782" y="320"/>
      <point x="791" y="285"/>
      <point x="791" y="214" type="curve" smooth="yes"/>
      <point x="791" y="143"/>
      <point x="782" y="108"/>
      <point x="754" y="108" type="curve" smooth="yes"/>
      <point x="726" y="108"/>
      <point x="717" y="146"/>
    </contour>
  </outline>
</glyph>
<glyph name="quotesingle.sinh" format="2">
  <advance width="300"/>
  <unicode hex="0027"/>
  <outline>
    <contour>
      <point x="237" y="799" type="line"/>
      <point x="63" y="799" type="line"/>
      <point x="83" y="541" type="line"/>
      <point x="217" y="541" type="line"/>
    </contour>
  </outline>
</glyph>
<glyph name="parenleft.sinh" format="2">
  <advance width="382"/>
  <unicode hex="0028"/>
  <outline>
    <contour>
      <point x="50" y="292" type="curve" smooth="yes"/>
      <point x="50" y="101"/>
      <point x="100" y="-73"/>
      <point x="197" y="-216" type="curve"/>
      <point x="356" y="-216" type="line"/>
      <point x="266" y="-57"/>
      <point x="218" y="105"/>
      <point x="218" y="292" type="curve" smooth="yes"/>
      <point x="218" y="478"/>
      <point x="266" y="640"/>
      <point x="356" y="799" type="curve"/>
      <point x="197" y="799" type="line"/>
      <point x="100" y="656"/>
      <point x="50" y="482"/>
    </contour>
  </outline>
</glyph>
<glyph name="asterisk.sinh" format="2">
  <advance width="566"/>
  <unicode hex="002A"/>
  <outline>
    <contour>
      <point x="357" y="799" type="line"/>
      <point x="209" y="799" type="line"/>
      <point x="228" y="627" type="line"/>
      <point x="58" y="676" type="line"/>
      <point x="36" y="534" type="line"/>
      <point x="189" y="522" type="line"/>
      <point x="88" y="386" type="line"/>
      <point x="221" y="320" type="line"/>
      <point x="281" y="457" type="line"/>
      <point x="351" y="319" type="line"/>
      <point x="478" y="386" type="line"/>
      <point x="377" y="522" type="line"/>
      <point x="530" y="532" type="line"/>
      <point x="512" y="676" type="line"/>
      <point x="338" y="627" type="line"/>
    </contour>
  </outline>
</glyph>
<glyph name="plus.sinh" format="2">
  <advance width="572"/>
  <unicode hex="002B"/>
  <outline>
    <contour>
      <point x="220" y="287" type="line"/>
      <point x="220" y="108" type="line"/>
      <point x="351" y="108" type="line"/>
      <point x="351" y="287" type="line"/>
      <point x="533" y="287" type="line"/>
      <point x="533" y="418" type="line"/>
      <point x="351" y="418" type="line"/>
      <point x="351" y="597" type="line"/>
      <point x="220" y="597" type="line"/>
      <point x="220" y="418" type="line"/>
      <point x="38" y="418" type="line"/>
      <point x="38" y="287" type="line"/>
    </contour>
  </outline>
</glyph>
<glyph name="comma.sinh" format="2">
  <advance width="310"/>
  <unicode hex="002C"/>
  <outline>
    <contour>
      <point x="255" y="146" type="line"/>
      <point x="88" y="146" type="line"/>
      <point x="79" y="66"/>
      <point x="59" y="-48"/>
      <point x="40" y="-139" type="curve"/>
      <point x="176" y="-139" type="line"/>
      <point x="209" y="-65"/>
      <point x="244" y="63"/>
      <point x="262" y="135" type="curve"/>
    </contour>
  </outline>
</glyph>
<glyph name="hyphen.sinh" format="2">
  <advance width="354"/>
  <unicode hex="002D"/>
  <outline>
    <contour>
      <point x="39" y="242" type="line"/>
      <point x="315" y="242" type="line"/>
      <point x="315" y="391" type="line"/>
      <point x="39" y="391" type="line"/>
    </contour>
  </outline>
</glyph>
<glyph name="zero.sinh" format="2">
  <advance width="572"/>
  <unicode hex="0030"/>
  <outline>
    <contour>
      <point x="537" y="359" type="curve" smooth="yes"/>
      <point x="537" y="590"/>
      <point x="465" y="724"/>
      <point x="287" y="724" type="curve" smooth="yes"/>
      <point x="108" y="724"/>
      <point x="35" y="584"/>
      <point x="35" y="355" type="curve" smooth="yes"/>
      <point x="35" y="124"/>
      <point x="107" y="-10"/>
      <point x="285" y="-10" type="curve" smooth="yes"/>
      <point x="464" y="-10"/>
      <point x="537" y="130"/>
    </contour>
    <contour>
      <point x="217" y="356" type="curve" smooth="yes"/>
      <point x="217" y="502"/>
      <point x="232" y="578"/>
      <point x="286" y="578" type="curve" smooth="yes"/>
      <point x="340" y="578"/>
      <point x="355" y="503"/>
      <point x="355" y="358" type="curve" smooth="yes"/>
      <point x="355" y="212"/>
      <point x="340" y="136"/>
      <point x="286" y="136" type="curve" smooth="yes"/>
      <point x="232" y="136"/>
      <point x="217" y="211"/>
    </contour>
  </outline>
</glyph>
<glyph name="one.sinh" format="2">
  <advance width="572"/>
  <unicode hex="0031"/>
  <outline>
    <contour>
      <point x="451" y="0" type="line"/>
      <point x="451" y="714" type="line"/>
      <point x="281" y="714" type="line"/>
      <point x="40" y="517" type="line"/>
      <point x="138" y="394" type="line"/>
      <point x="210" y="455" type="line" smooth="yes"/>
      <point x="233" y="475"/>
      <point x="250" y="492"/>
      <point x="269" y="514" type="curve"/>
      <point x="266" y="467"/>
      <point x="266" y="409"/>
      <point x="266" y="357" type="curve" smooth="yes"/>
      <point x="266" y="0" type="line"/>
    </contour>
  </outline>
</glyph>
<glyph name="two.sinh" format="2">
  <advance width="572"/>
  <unicode hex="0032"/>
  <outline>
    <contour>
      <point x="533" y="0" type="line"/>
      <point x="533" y="153" type="line"/>
      <point x="271" y="153" type="line"/>
      <point x="271" y="158" type="line"/>
      <point x="331" y="216" type="line" smooth="yes"/>
      <point x="458" y="339"/>
      <point x="521" y="405"/>
      <point x="521" y="529" type="curve" smooth="yes"/>
      <point x="521" y="636"/>
      <point x="437" y="724"/>
      <point x="290" y="724" type="curve" smooth="yes"/>
      <point x="166" y="724"/>
      <point x="91" y="675"/>
      <point x="19" y="613" type="curve"/>
      <point x="120" y="494" type="line"/>
      <point x="169" y="539"/>
      <point x="216" y="569"/>
      <point x="266" y="569" type="curve" smooth="yes"/>
      <point x="307" y="569"/>
      <point x="337" y="547"/>
      <point x="337" y="504" type="curve" smooth="yes"/>
      <point x="337" y="449"/>
      <point x="305" y="412"/>
      <point x="218" y="322" type="curve" smooth="yes"/>
      <point x="28" y="127" type="line"/>
      <point x="28" y="0" type="line"/>
    </contour>
  </outline>
</glyph>
<glyph name="three.sinh" format="2">
  <advance width="572"/>
  <unicode hex="0033"/>
  <outline>
    <contour>
      <point x="512" y="543" type="curve" smooth="yes"/>
      <point x="512" y="656"/>
      <point x="421" y="724"/>
      <point x="273" y="724" type="curve" smooth="yes"/>
      <point x="171" y="724"/>
      <point x="98" y="694"/>
      <point x="30" y="652" type="curve"/>
      <point x="105" y="532" type="line"/>
      <point x="147" y="558"/>
      <point x="195" y="578"/>
      <point x="248" y="578" type="curve" smooth="yes"/>
      <point x="299" y="578"/>
      <point x="333" y="557"/>
      <point x="333" y="515" type="curve" smooth="yes"/>
      <point x="333" y="467"/>
      <point x="296" y="434"/>
      <point x="190" y="434" type="curve" smooth="yes"/>
      <point x="145" y="434" type="line"/>
      <point x="145" y="297" type="line"/>
      <point x="194" y="297" type="line" smooth="yes"/>
      <point x="309" y="297"/>
      <point x="341" y="266"/>
      <point x="341" y="215" type="curve" smooth="yes"/>
      <point x="341" y="164"/>
      <point x="304" y="135"/>
      <point x="219" y="135" type="curve" smooth="yes"/>
      <point x="155" y="135"/>
      <point x="90" y="149"/>
      <point x="34" y="178" type="curve"/>
      <point x="34" y="26" type="line"/>
      <point x="93" y="3"/>
      <point x="154" y="-11"/>
      <point x="239" y="-11" type="curve" smooth="yes"/>
      <point x="439" y="-11"/>
      <point x="527" y="87"/>
      <point x="527" y="206" type="curve" smooth="yes"/>
      <point x="527" y="305"/>
      <point x="466" y="356"/>
      <point x="366" y="373" type="curve"/>
      <point x="366" y="376" type="line"/>
      <point x="447" y="399"/>
      <point x="512" y="451"/>
    </contour>
  </outline>
</glyph>
<glyph name="four.sinh" format="2">
  <advance width="572"/>
  <unicode hex="0034"/>
  <outline>
    <contour>
      <point x="557" y="141" type="line"/>
      <point x="557" y="278" type="line"/>
      <point x="476" y="278" type="line"/>
      <point x="476" y="714" type="line"/>
      <point x="305" y="714" type="line"/>
      <point x="17" y="276" type="line"/>
      <point x="17" y="141" type="line"/>
      <point x="297" y="141" type="line"/>
      <point x="297" y="0" type="line"/>
      <point x="476" y="0" type="line"/>
      <point x="476" y="141" type="line"/>
    </contour>
    <contour>
      <point x="297" y="278" type="line"/>
      <point x="182" y="278" type="line"/>
      <point x="249" y="384" type="line" smooth="yes"/>
      <point x="273" y="422"/>
      <point x="286" y="445"/>
      <point x="297" y="470" type="curve"/>
      <point x="301" y="470" type="line"/>
      <point x="298" y="431"/>
      <point x="297" y="402"/>
      <point x="297" y="356" type="curve" smooth="yes"/>
    </contour>
  </outline>
</glyph>
<glyph name="five.sinh" format="2">
  <advance width="572"/>
  <unicode hex="0035"/>
  <outline>
    <contour>
      <point x="321" y="464" type="curve" smooth="yes"/>
      <point x="282" y="464"/>
      <point x="262" y="461"/>
      <point x="235" y="455" type="curve"/>
      <point x="247" y="561" type="line"/>
      <point x="487" y="561" type="line"/>
      <point x="487" y="714" type="line"/>
      <point x="91" y="714" type="line"/>
      <point x="60" y="341" type="line"/>
      <point x="129" y="307" type="line"/>
      <point x="161" y="318"/>
      <point x="191" y="325"/>
      <point x="230" y="325" type="curve" smooth="yes"/>
      <point x="303" y="325"/>
      <point x="345" y="293"/>
      <point x="345" y="230" type="curve" smooth="yes"/>
      <point x="345" y="166"/>
      <point x="306" y="136"/>
      <point x="227" y="136" type="curve" smooth="yes"/>
      <point x="163" y="136"/>
      <point x="101" y="153"/>
      <point x="47" y="179" type="curve"/>
      <point x="47" y="26" type="line"/>
      <point x="101" y="2"/>
      <point x="163" y="-10"/>
      <point x="246" y="-10" type="curve" smooth="yes"/>
      <point x="431" y="-10"/>
      <point x="529" y="79"/>
      <point x="529" y="237" type="curve" smooth="yes"/>
      <point x="529" y="390"/>
      <point x="431" y="464"/>
    </contour>
  </outline>
</glyph>
<glyph name="six.sinh" format="2">
  <advance width="572"/>
  <unicode hex="0036"/>
  <outline>
    <contour>
      <point x="31" y="311" type="curve" smooth="yes"/>
      <point x="31" y="88"/>
      <point x="143" y="-10"/>
      <point x="292" y="-10" type="curve" smooth="yes"/>
      <point x="447" y="-10"/>
      <point x="543" y="84"/>
      <point x="543" y="244" type="curve" smooth="yes"/>
      <point x="543" y="392"/>
      <point x="469" y="476"/>
      <point x="347" y="476" type="curve" smooth="yes"/>
      <point x="275" y="476"/>
      <point x="232" y="440"/>
      <point x="207" y="393" type="curve"/>
      <point x="201" y="393" type="line"/>
      <point x="204" y="507"/>
      <point x="256" y="578"/>
      <point x="395" y="578" type="curve" smooth="yes"/>
      <point x="432" y="578"/>
      <point x="465" y="575"/>
      <point x="498" y="569" type="curve"/>
      <point x="498" y="716" type="line"/>
      <point x="463" y="722"/>
      <point x="432" y="724"/>
      <point x="395" y="724" type="curve" smooth="yes"/>
      <point x="87" y="724"/>
      <point x="31" y="507"/>
    </contour>
    <contour>
      <point x="291" y="136" type="curve" smooth="yes"/>
      <point x="242" y="136"/>
      <point x="215" y="187"/>
      <point x="215" y="251" type="curve" smooth="yes"/>
      <point x="215" y="298"/>
      <point x="244" y="334"/>
      <point x="293" y="334" type="curve" smooth="yes"/>
      <point x="343" y="334"/>
      <point x="364" y="301"/>
      <point x="364" y="238" type="curve" smooth="yes"/>
      <point x="364" y="168"/>
      <point x="335" y="136"/>
    </contour>
  </outline>
</glyph>
<glyph name="seven.sinh" format="2">
  <advance width="572"/>
  <unicode hex="0037"/>
  <outline>
    <contour>
      <point x="93" y="0" type="line"/>
      <point x="289" y="0" type="line"/>
      <point x="539" y="602" type="line"/>
      <point x="539" y="714" type="line"/>
      <point x="28" y="714" type="line"/>
      <point x="28" y="561" type="line"/>
      <point x="341" y="561" type="line"/>
    </contour>
  </outline>
</glyph>
<glyph name="eight.sinh" format="2">
  <advance width="572"/>
  <unicode hex="0038"/>
  <outline>
    <contour>
      <point x="289" y="724" type="curve" smooth="yes"/>
      <point x="147" y="724"/>
      <point x="50" y="663"/>
      <point x="50" y="550" type="curve" smooth="yes"/>
      <point x="50" y="466"/>
      <point x="100" y="414"/>
      <point x="160" y="373" type="curve"/>
      <point x="77" y="331"/>
      <point x="29" y="281"/>
      <point x="29" y="187" type="curve" smooth="yes"/>
      <point x="29" y="71"/>
      <point x="104" y="-10"/>
      <point x="287" y="-10" type="curve" smooth="yes"/>
      <point x="465" y="-10"/>
      <point x="543" y="74"/>
      <point x="543" y="191" type="curve" smooth="yes"/>
      <point x="543" y="284"/>
      <point x="471" y="334"/>
      <point x="399" y="376" type="curve"/>
      <point x="466" y="412"/>
      <point x="522" y="460"/>
      <point x="522" y="550" type="curve" smooth="yes"/>
      <point x="522" y="662"/>
      <point x="426" y="724"/>
    </contour>
    <contour>
      <point x="208" y="196" type="curve" smooth="yes"/>
      <point x="208" y="237"/>
      <point x="237" y="267"/>
      <point x="283" y="295" type="curve"/>
      <point x="300" y="284" type="line" smooth="yes"/>
      <point x="342" y="255"/>
      <point x="364" y="229"/>
      <point x="364" y="191" type="curve" smooth="yes"/>
      <point x="364" y="158"/>
      <point x="339" y="127"/>
      <point x="284" y="127" type="curve" smooth="yes"/>
      <point x="234" y="127"/>
      <point x="208" y="156"/>
    </contour>
    <contour>
      <point x="286" y="587" type="curve" smooth="yes"/>
      <point x="319" y="587"/>
      <point x="344" y="566"/>
      <point x="344" y="533" type="curve" smooth="yes"/>
      <point x="344" y="496"/>
      <point x="317" y="473"/>
      <point x="288" y="453" type="curve"/>
      <point x="251" y="476"/>
      <point x="229" y="498"/>
      <point x="229" y="532" type="curve" smooth="yes"/>
      <point x="229" y="565"/>
      <point x="250" y="587"/>
    </contour>
  </outline>
</glyph>
<glyph name="nine.sinh" format="2">
  <advance width="572"/>
  <unicode hex="0039"/>
  <outline>
    <contour>
      <point x="541" y="388" type="curve" smooth="yes"/>
      <point x="541" y="626"/>
      <point x="429" y="724"/>
      <point x="275" y="724" type="curve" smooth="yes"/>
      <point x="125" y="724"/>
      <point x="29" y="630"/>
      <point x="29" y="470" type="curve" smooth="yes"/>
      <point x="29" y="322"/>
      <point x="103" y="238"/>
      <point x="224" y="238" type="curve" smooth="yes"/>
      <point x="302" y="238"/>
      <point x="346" y="269"/>
      <point x="369" y="321" type="curve"/>
      <point x="375" y="321" type="line"/>
      <point x="366" y="208"/>
      <point x="318" y="136"/>
      <point x="177" y="136" type="curve" smooth="yes"/>
      <point x="140" y="136"/>
      <point x="107" y="139"/>
      <point x="74" y="145" type="curve"/>
      <point x="74" y="-2" type="line"/>
      <point x="109" y="-8"/>
      <point x="140" y="-10"/>
      <point x="177" y="-10" type="curve" smooth="yes"/>
      <point x="485" y="-10"/>
      <point x="541" y="207"/>
    </contour>
    <contour>
      <point x="281" y="578" type="curve" smooth="yes"/>
      <point x="334" y="578"/>
      <point x="359" y="523"/>
      <point x="359" y="465" type="curve" smooth="yes"/>
      <point x="359" y="420"/>
      <point x="331" y="380"/>
      <point x="282" y="380" type="curve" smooth="yes"/>
      <point x="229" y="380"/>
      <point x="208" y="419"/>
      <point x="208" y="481" type="curve" smooth="yes"/>
      <point x="208" y="546"/>
      <point x="236" y="578"/>
    </contour>
  </outline>
</glyph>
<glyph name="colon.sinh" format="2">
  <advance width="332"/>
  <unicode hex="003A"/>
  <outline>
    <contour>
      <point x="64" y="81" type="curve" smooth="yes"/>
      <point x="64" y="15"/>
      <point x="111" y="-12"/>
      <point x="168" y="-12" type="curve" smooth="yes"/>
      <point x="222" y="-12"/>
      <point x="268" y="15"/>
      <point x="268" y="81" type="curve" smooth="yes"/>
      <point x="268" y="150"/>
      <point x="222" y="175"/>
      <point x="168" y="175" type="curve" smooth="yes"/>
      <point x="111" y="175"/>
      <point x="64" y="150"/>
    </contour>
    <contour>
      <point x="64" y="441" type="curve" smooth="yes"/>
      <point x="64" y="374"/>
      <point x="111" y="347"/>
      <point x="168" y="347" type="curve" smooth="yes"/>
      <point x="222" y="347"/>
      <point x="268" y="374"/>
      <point x="268" y="441" type="curve" smooth="yes"/>
      <point x="268" y="509"/>
      <point x="222" y="534"/>
      <point x="168" y="534" type="curve" smooth="yes"/>
      <point x="111" y="534"/>
      <point x="64" y="509"/>
    </contour>
  </outline>
</glyph>
<glyph name="semicolon.sinh" format="2">
  <advance width="332"/>
  <unicode hex="003B"/>
  <outline>
    <contour>
      <point x="253" y="146" type="line"/>
      <point x="86" y="146" type="line"/>
      <point x="77" y="66"/>
      <point x="57" y="-48"/>
      <point x="38" y="-139" type="curve"/>
      <point x="174" y="-139" type="line"/>
      <point x="207" y="-65"/>
      <point x="242" y="63"/>
      <point x="260" y="135" type="curve"/>
    </contour>
    <contour>
      <point x="64" y="441" type="curve" smooth="yes"/>
      <point x="64" y="374"/>
      <point x="111" y="347"/>
      <point x="168" y="347" type="curve" smooth="yes"/>
      <point x="222" y="347"/>
      <point x="268" y="374"/>
      <point x="268" y="441" type="curve" smooth="yes"/>
      <point x="268" y="509"/>
      <point x="222" y="534"/>
      <point x="168" y="534" type="curve" smooth="yes"/>
      <point x="111" y="534"/>
      <point x="64" y="509"/>
    </contour>
  </outline>
</glyph>
<glyph name="equal.sinh" format="2">
  <advance width="572"/>
  <unicode hex="003D"/>
  <outline>
    <contour>
      <point x="38" y="398" type="line"/>
      <point x="533" y="398" type="line"/>
      <point x="533" y="529" type="line"/>
      <point x="38" y="529" type="line"/>
    </contour>
    <contour>
      <point x="38" y="176" type="line"/>
      <point x="533" y="176" type="line"/>
      <point x="533" y="307" type="line"/>
      <point x="38" y="307" type="line"/>
    </contour>
  </outline>
</glyph>
<glyph name="greater.sinh" format="2">
  <advance width="572"/>
  <unicode hex="003E"/>
  <outline>
    <contour>
      <point x="40" y="231" type="line"/>
      <point x="40" y="87" type="line"/>
      <point x="534" y="306" type="line"/>
      <point x="534" y="390" type="line"/>
      <point x="40" y="637" type="line"/>
      <point x="40" y="492" type="line"/>
      <point x="343" y="354" type="line"/>
    </contour>
  </outline>
</glyph>
<glyph name="question.sinh" format="2">
  <advance width="528"/>
  <unicode hex="003F"/>
  <outline>
    <contour>
      <point x="160" y="250" type="line"/>
      <point x="310" y="250" type="line"/>
      <point x="310" y="272" type="line" smooth="yes"/>
      <point x="310" y="303"/>
      <point x="322" y="324"/>
      <point x="378" y="359" type="curve" smooth="yes"/>
      <point x="460" y="409"/>
      <point x="500" y="461"/>
      <point x="500" y="543" type="curve" smooth="yes"/>
      <point x="500" y="648"/>
      <point x="422" y="724"/>
      <point x="267" y="724" type="curve" smooth="yes"/>
      <point x="171" y="724"/>
      <point x="91" y="698"/>
      <point x="18" y="656" type="curve"/>
      <point x="84" y="526" type="line"/>
      <point x="143" y="556"/>
      <point x="193" y="578"/>
      <point x="252" y="578" type="curve" smooth="yes"/>
      <point x="301" y="578"/>
      <point x="323" y="559"/>
      <point x="323" y="527" type="curve" smooth="yes"/>
      <point x="323" y="497"/>
      <point x="303" y="475"/>
      <point x="242" y="435" type="curve" smooth="yes"/>
      <point x="174" y="391"/>
      <point x="160" y="353"/>
      <point x="160" y="287" type="curve" smooth="yes"/>
    </contour>
    <contour>
      <point x="139" y="81" type="curve" smooth="yes"/>
      <point x="139" y="15"/>
      <point x="185" y="-12"/>
      <point x="242" y="-12" type="curve" smooth="yes"/>
      <point x="297" y="-12"/>
      <point x="343" y="15"/>
      <point x="343" y="81" type="curve" smooth="yes"/>
      <point x="343" y="150"/>
      <point x="297" y="175"/>
      <point x="242" y="175" type="curve" smooth="yes"/>
      <point x="185" y="175"/>
      <point x="139" y="150"/>
    </contour>
  </outline>
</glyph>
<glyph name="bracketleft.sinh" format="2">
  <advance width="375"/>
  <unicode hex="005B"/>
  <outline>
    <contour>
      <point x="333" y="-216" type="line"/>
      <point x="333" y="-92" type="line"/>
      <point x="227" y="-92" type="line"/>
      <point x="227" y="675" type="line"/>
      <point x="333" y="675" type="line"/>
      <point x="333" y="799" type="line"/>
      <point x="72" y="799" type="line"/>
      <point x="72" y="-216" type="line"/>
    </contour>
  </outline>
</glyph>
<glyph name="backslash.sinh" format="2">
  <advance width="494"/>
  <unicode hex="005C"/>
  <outline>
    <contour>
      <point x="189" y="800" type="line"/>
      <point x="29" y="800" type="line"/>
      <point x="305" y="-216" type="line"/>
      <point x="465" y="-216" type="line"/>
    </contour>
  </outline>
</glyph>
<glyph name="bracketright.sinh" format="2">
  <advance width="375"/>
  <unicode hex="005D"/>
  <outline>
    <contour>
      <point x="42" y="-92" type="line"/>
      <point x="42" y="-216" type="line"/>
      <point x="303" y="-216" type="line"/>
      <point x="303" y="799" type="line"/>
      <point x="42" y="799" type="line"/>
      <point x="42" y="675" type="line"/>
      <point x="148" y="675" type="line"/>
      <point x="148" y="-92" type="line"/>
    </contour>
  </outline>
</glyph>
<glyph name="asciicircum.sinh" format="2">
  <advance width="572"/>
  <unicode hex="005E"/>
  <outline>
    <contour>
      <point x="13" y="242" type="line"/>
      <point x="153" y="242" type="line"/>
      <point x="274" y="524" type="line"/>
      <point x="415" y="242" type="line"/>
      <point x="559" y="242" type="line"/>
      <point x="311" y="714" type="line"/>
      <point x="228" y="714" type="line"/>
    </contour>
  </outline>
</glyph>
<glyph name="braceleft.sinh" format="2">
  <advance width="435"/>
  <unicode hex="007B"/>
  <outline>
    <contour>
      <point x="395" y="-216" type="curve"/>
      <point x="395" y="-80" type="line"/>
      <point x="324" y="-80"/>
      <point x="302" y="-66"/>
      <point x="302" y="-20" type="curve" smooth="yes"/>
      <point x="302" y="151" type="line" smooth="yes"/>
      <point x="302" y="227"/>
      <point x="261" y="263"/>
      <point x="185" y="275" type="curve"/>
      <point x="185" y="281" type="line"/>
      <point x="261" y="293"/>
      <point x="302" y="329"/>
      <point x="302" y="405" type="curve" smooth="yes"/>
      <point x="302" y="603" type="line" smooth="yes"/>
      <point x="302" y="649"/>
      <point x="324" y="663"/>
      <point x="395" y="663" type="curve"/>
      <point x="395" y="799" type="line"/>
      <point x="190" y="799"/>
      <point x="144" y="748"/>
      <point x="144" y="631" type="curve" smooth="yes"/>
      <point x="144" y="435" type="line" smooth="yes"/>
      <point x="144" y="375"/>
      <point x="112" y="356"/>
      <point x="24" y="352" type="curve"/>
      <point x="24" y="204" type="line"/>
      <point x="112" y="200"/>
      <point x="144" y="181"/>
      <point x="144" y="121" type="curve" smooth="yes"/>
      <point x="144" y="-48" type="line" smooth="yes"/>
      <point x="144" y="-165"/>
      <point x="190" y="-216"/>
    </contour>
  </outline>
</glyph>
<glyph name="bar.sinh" format="2">
  <advance width="551"/>
  <unicode hex="007C"/>
  <outline>
    <contour>
      <point x="210" y="799" type="line"/>
      <point x="210" y="-216" type="line"/>
      <point x="341" y="-216" type="line"/>
      <point x="341" y="799" type="line"/>
    </contour>
  </outline>
</glyph>
<glyph name="braceright.sinh" format="2">
  <advance width="435"/>
  <unicode hex="007D"/>
  <outline>
    <contour>
      <point x="40" y="799" type="curve"/>
      <point x="40" y="663" type="line"/>
      <point x="111" y="663"/>
      <point x="133" y="649"/>
      <point x="133" y="603" type="curve" smooth="yes"/>
      <point x="133" y="432" type="line" smooth="yes"/>
      <point x="133" y="356"/>
      <point x="174" y="320"/>
      <point x="250" y="308" type="curve"/>
      <point x="250" y="302" type="line"/>
      <point x="174" y="290"/>
      <point x="133" y="254"/>
      <point x="133" y="178" type="curve" smooth="yes"/>
      <point x="133" y="-20" type="line" smooth="yes"/>
      <point x="133" y="-66"/>
      <point x="111" y="-80"/>
      <point x="40" y="-80" type="curve"/>
      <point x="40" y="-216" type="line"/>
      <point x="245" y="-216"/>
      <point x="291" y="-165"/>
      <point x="291" y="-48" type="curve" smooth="yes"/>
      <point x="291" y="148" type="line" smooth="yes"/>
      <point x="291" y="208"/>
      <point x="323" y="227"/>
      <point x="411" y="231" type="curve"/>
      <point x="411" y="379" type="line"/>
      <point x="323" y="383"/>
      <point x="291" y="402"/>
      <point x="291" y="462" type="curve" smooth="yes"/>
      <point x="291" y="631" type="line" smooth="yes"/>
      <point x="291" y="748"/>
      <point x="245" y="799"/>
    </contour>
  </outline>
</glyph>
<glyph name="asciitilde.sinh" format="2">
  <advance width="572"/>
  <unicode hex="007E"/>
  <outline>
    <contour>
      <point x="267" y="289" type="curve" smooth="yes"/>
      <point x="332" y="263"/>
      <point x="365" y="258"/>
      <point x="404" y="258" type="curve" smooth="yes"/>
      <point x="457" y="258"/>
      <point x="499" y="276"/>
      <point x="533" y="311" type="curve"/>
      <point x="533" y="448" type="line"/>
      <point x="499" y="415"/>
      <point x="457" y="389"/>
      <point x="420" y="389" type="curve" smooth="yes"/>
      <point x="390" y="389"/>
      <point x="354" y="396"/>
      <point x="304" y="416" type="curve" smooth="yes"/>
      <point x="239" y="442"/>
      <point x="206" y="447"/>
      <point x="167" y="447" type="curve" smooth="yes"/>
      <point x="113" y="447"/>
      <point x="72" y="429"/>
      <point x="38" y="394" type="curve"/>
      <point x="38" y="257" type="line"/>
      <point x="72" y="290"/>
      <point x="113" y="316"/>
      <point x="152" y="316" type="curve" smooth="yes"/>
      <point x="183" y="316"/>
      <point x="218" y="310"/>
    </contour>
  </outline>
</glyph>
<glyph name="divide.sinh" format="2">
  <advance width="572"/>
  <unicode hex="00F7"/>
  <outline>
    <contour>
      <point x="38" y="287" type="line"/>
      <point x="533" y="287" type="line"/>
      <point x="533" y="418" type="line"/>
      <point x="38" y="418" type="line"/>
    </contour>
    <contour>
      <point x="209" y="162" type="curve" smooth="yes"/>
      <point x="209" y="104"/>
      <point x="244" y="79"/>
      <point x="285" y="79" type="curve" smooth="yes"/>
      <point x="325" y="79"/>
      <point x="362" y="104"/>
      <point x="362" y="162" type="curve" smooth="yes"/>
      <point x="362" y="224"/>
      <point x="325" y="245"/>
      <point x="285" y="245" type="curve" smooth="yes"/>
      <point x="244" y="245"/>
      <point x="209" y="224"/>
    </contour>
    <contour>
      <point x="209" y="543" type="curve" smooth="yes"/>
      <point x="209" y="485"/>
      <point x="244" y="460"/>
      <point x="285" y="460" type="curve" smooth="yes"/>
      <point x="325" y="460"/>
      <point x="362" y="485"/>
      <point x="362" y="543" type="curve" smooth="yes"/>
      <point x="362" y="605"/>
      <point x="325" y="626"/>
      <point x="285" y="626" type="curve" smooth="yes"/>
      <point x="244" y="626"/>
      <point x="209" y="605"/>
    </contour>
  </outline>
</glyph>
<glyph name="anusvarasinh" format="2">
  <advance width="534"/>
  <unicode hex="0D82"/>
  <outline>
    <contour>
      <point x="26" y="271" type="curve" smooth="yes"/>
      <point x="26" y="115"/>
      <point x="120" y="37"/>
      <point x="266" y="37" type="curve" smooth="yes"/>
      <point x="420" y="37"/>
      <point x="508" y="119"/>
      <point x="508" y="270" type="curve" smooth="yes"/>
      <point x="508" y="399"/>
      <point x="416" y="493"/>
      <point x="268" y="493" type="curve" smooth="yes"/>
      <point x="119" y="493"/>
      <point x="26" y="399"/>
    </contour>
    <contour>
      <point x="166" y="278" type="curve" smooth="yes"/>
      <point x="166" y="331"/>
      <point x="196" y="367"/>
      <point x="268" y="367" type="curve" smooth="yes"/>
      <point x="338" y="367"/>
      <point x="368" y="331"/>
      <point x="368" y="278" type="curve" smooth="yes"/>
      <point x="368" y="214"/>
      <point x="323" y="191"/>
      <point x="266" y="191" type="curve" smooth="yes"/>
      <point x="207" y="191"/>
      <point x="166" y="217"/>
    </contour>
  </outline>
</glyph>
<glyph name="visargasinh" format="2">
  <advance width="331"/>
  <unicode hex="0D83"/>
  <outline>
    <contour>
      <point x="307" y="423" type="curve" smooth="yes"/>
      <point x="307" y="503"/>
      <point x="251" y="556"/>
      <point x="167" y="556" type="curve" smooth="yes"/>
      <point x="78" y="556"/>
      <point x="24" y="497"/>
      <point x="24" y="420" type="curve" smooth="yes"/>
      <point x="24" y="346"/>
      <point x="72" y="288"/>
      <point x="167" y="288" type="curve" smooth="yes"/>
      <point x="251" y="288"/>
      <point x="307" y="342"/>
    </contour>
    <contour>
      <point x="207" y="422" type="curve" smooth="yes"/>
      <point x="207" y="396"/>
      <point x="188" y="383"/>
      <point x="165" y="383" type="curve" smooth="yes"/>
      <point x="136" y="383"/>
      <point x="124" y="401"/>
      <point x="124" y="421" type="curve" smooth="yes"/>
      <point x="124" y="446"/>
      <point x="139" y="461"/>
      <point x="165" y="461" type="curve" smooth="yes"/>
      <point x="192" y="461"/>
      <point x="207" y="442"/>
    </contour>
    <contour>
      <point x="307" y="135" type="curve" smooth="yes"/>
      <point x="307" y="216"/>
      <point x="251" y="268"/>
      <point x="167" y="268" type="curve" smooth="yes"/>
      <point x="78" y="268"/>
      <point x="24" y="211"/>
      <point x="24" y="132" type="curve" smooth="yes"/>
      <point x="24" y="58"/>
      <point x="72" y="0"/>
      <point x="167" y="0" type="curve" smooth="yes"/>
      <point x="251" y="0"/>
      <point x="307" y="53"/>
    </contour>
    <contour>
      <point x="207" y="133" type="curve" smooth="yes"/>
      <point x="207" y="109"/>
      <point x="188" y="95"/>
      <point x="165" y="95" type="curve" smooth="yes"/>
      <point x="136" y="95"/>
      <point x="124" y="113"/>
      <point x="124" y="131" type="curve" smooth="yes"/>
      <point x="124" y="159"/>
      <point x="139" y="173"/>
      <point x="165" y="173" type="curve" smooth="yes"/>
      <point x="192" y="173"/>
      <point x="207" y="153"/>
    </contour>
  </outline>
</glyph>
<glyph name="asinh" format="2">
  <advance width="769"/>
  <unicode hex="0D85"/>
  <outline>
    <contour>
      <point x="379" y="-11" type="curve" smooth="yes"/>
      <point x="535" y="-11"/>
      <point x="618" y="3"/>
      <point x="703" y="40" type="curve"/>
      <point x="663" y="170" type="line"/>
      <point x="637" y="159"/>
      <point x="607" y="149"/>
      <point x="561" y="140" type="curve"/>
      <point x="521" y="136" type="line"/>
      <point x="480" y="130"/>
      <point x="430" y="129"/>
      <point x="393" y="129" type="curve" smooth="yes"/>
      <point x="263" y="129"/>
      <point x="203" y="154"/>
      <point x="203" y="229" type="curve" smooth="yes"/>
      <point x="203" y="268"/>
      <point x="220" y="291"/>
      <point x="246" y="305" type="curve" smooth="yes"/>
      <point x="284" y="326"/>
      <point x="339" y="330"/>
      <point x="450" y="330" type="curve" smooth="yes"/>
      <point x="570" y="330" type="line"/>
      <point x="570" y="441" type="line" smooth="yes"/>
      <point x="570" y="513"/>
      <point x="518" y="622"/>
      <point x="390" y="622" type="curve" smooth="yes"/>
      <point x="285" y="622"/>
      <point x="218" y="582"/>
      <point x="218" y="491" type="curve" smooth="yes"/>
      <point x="218" y="483"/>
      <point x="218" y="469"/>
      <point x="220" y="457" type="curve"/>
      <point x="364" y="468" type="line"/>
      <point x="364" y="469"/>
      <point x="364" y="470"/>
      <point x="364" y="471" type="curve" smooth="yes"/>
      <point x="364" y="489"/>
      <point x="376" y="501"/>
      <point x="404" y="501" type="curve" smooth="yes"/>
      <point x="438" y="501"/>
      <point x="447" y="478"/>
      <point x="450" y="455" type="curve"/>
      <point x="435" y="455" type="line" smooth="yes"/>
      <point x="305" y="455"/>
      <point x="219" y="444"/>
      <point x="152" y="415" type="curve" smooth="yes"/>
      <point x="72" y="380"/>
      <point x="25" y="321"/>
      <point x="25" y="224" type="curve" smooth="yes"/>
      <point x="25" y="72"/>
      <point x="136" y="-11"/>
    </contour>
    <contour>
      <point x="448" y="-202" type="line"/>
      <point x="585" y="-202" type="line"/>
      <point x="585" y="394" type="line" smooth="yes"/>
      <point x="585" y="432"/>
      <point x="595" y="452"/>
      <point x="609" y="472" type="curve" smooth="yes"/>
      <point x="623" y="492"/>
      <point x="639" y="512"/>
      <point x="682" y="551" type="curve"/>
      <point x="574" y="622" type="line"/>
      <point x="500" y="552"/>
      <point x="456" y="465"/>
      <point x="448" y="385" type="curve"/>
    </contour>
    <contour>
      <point x="614" y="224" type="curve" smooth="yes"/>
      <point x="708" y="224"/>
      <point x="755" y="266"/>
      <point x="755" y="347" type="curve" smooth="yes"/>
      <point x="755" y="394"/>
      <point x="744" y="426"/>
      <point x="702" y="481" type="curve" smooth="yes"/>
      <point x="684" y="505"/>
      <point x="679" y="518"/>
      <point x="679" y="535" type="curve" smooth="yes"/>
      <point x="679" y="539"/>
      <point x="680" y="546"/>
      <point x="682" y="551" type="curve"/>
      <point x="579" y="515" type="line"/>
      <point x="579" y="477"/>
      <point x="585" y="444"/>
      <point x="609" y="415" type="curve" smooth="yes"/>
      <point x="623" y="398"/>
      <point x="627" y="385"/>
      <point x="627" y="371" type="curve" smooth="yes"/>
      <point x="627" y="353"/>
      <point x="615" y="345"/>
      <point x="597" y="345" type="curve" smooth="yes"/>
      <point x="576" y="345"/>
      <point x="548" y="357"/>
      <point x="518" y="375" type="curve"/>
      <point x="487" y="257" type="line"/>
      <point x="531" y="234"/>
      <point x="566" y="224"/>
    </contour>
  </outline>
</glyph>
<glyph name="isinh" format="2">
  <advance width="835"/>
  <unicode hex="0D89"/>
  <outline>
    <contour>
      <point x="314" y="54" type="curve" smooth="yes"/>
      <point x="486" y="54"/>
      <point x="575" y="135"/>
      <point x="575" y="271" type="curve" smooth="yes"/>
      <point x="575" y="385"/>
      <point x="502" y="453"/>
      <point x="398" y="453" type="curve" smooth="yes"/>
      <point x="281" y="453"/>
      <point x="234" y="388"/>
      <point x="234" y="321" type="curve" smooth="yes"/>
      <point x="234" y="247"/>
      <point x="290" y="202"/>
      <point x="384" y="202" type="curve" smooth="yes"/>
      <point x="437" y="202"/>
      <point x="478" y="233"/>
      <point x="504" y="258" type="curve"/>
      <point x="469" y="324" type="line"/>
      <point x="440" y="301"/>
      <point x="420" y="297"/>
      <point x="398" y="297" type="curve" smooth="yes"/>
      <point x="379" y="297"/>
      <point x="365" y="305"/>
      <point x="365" y="324" type="curve" smooth="yes"/>
      <point x="365" y="341"/>
      <point x="377" y="350"/>
      <point x="395" y="350" type="curve" smooth="yes"/>
      <point x="428" y="350"/>
      <point x="443" y="315"/>
      <point x="443" y="267" type="curve"/>
      <point x="446" y="252" type="line"/>
      <point x="439" y="193"/>
      <point x="375" y="180"/>
      <point x="314" y="180" type="curve" smooth="yes"/>
      <point x="228" y="180"/>
      <point x="166" y="225"/>
      <point x="166" y="319" type="curve" smooth="yes"/>
      <point x="166" y="419"/>
      <point x="242" y="490"/>
      <point x="412" y="490" type="curve" smooth="yes"/>
      <point x="594" y="490"/>
      <point x="662" y="399"/>
      <point x="662" y="297" type="curve" smooth="yes"/>
      <point x="662" y="175"/>
      <point x="582" y="138"/>
      <point x="454" y="122" type="curve"/>
      <point x="459" y="-9" type="line"/>
      <point x="676" y="-3"/>
      <point x="807" y="87"/>
      <point x="807" y="299" type="curve" smooth="yes"/>
      <point x="807" y="492"/>
      <point x="675" y="622"/>
      <point x="412" y="622" type="curve" smooth="yes"/>
      <point x="198" y="622"/>
      <point x="26" y="525"/>
      <point x="26" y="320" type="curve" smooth="yes"/>
      <point x="26" y="152"/>
      <point x="125" y="54"/>
    </contour>
    <contour>
      <point x="410" y="-235" type="curve" smooth="yes"/>
      <point x="591" y="-235"/>
      <point x="654" y="-159"/>
      <point x="654" y="-48" type="curve" smooth="yes"/>
      <point x="654" y="2"/>
      <point x="642" y="35"/>
      <point x="626" y="65" type="curve"/>
      <point x="500" y="62" type="line"/>
      <point x="479" y="45" type="line"/>
      <point x="496" y="25"/>
      <point x="509" y="2"/>
      <point x="509" y="-29" type="curve" smooth="yes"/>
      <point x="509" y="-67"/>
      <point x="489" y="-102"/>
      <point x="410" y="-102" type="curve" smooth="yes"/>
      <point x="327" y="-102"/>
      <point x="318" y="-61"/>
      <point x="318" y="-29" type="curve" smooth="yes"/>
      <point x="318" y="-19"/>
      <point x="318" y="-14"/>
      <point x="319" y="-6" type="curve"/>
      <point x="180" y="0" type="line"/>
      <point x="178" y="-13"/>
      <point x="176" y="-28"/>
      <point x="176" y="-44" type="curve" smooth="yes"/>
      <point x="176" y="-138"/>
      <point x="231" y="-235"/>
    </contour>
  </outline>
</glyph>
<glyph name="iisinh" format="2">
  <advance width="746"/>
  <unicode hex="0D8A"/>
  <outline>
    <contour>
      <point x="366" y="-11" type="curve" smooth="yes"/>
      <point x="597" y="-11"/>
      <point x="718" y="101"/>
      <point x="718" y="300" type="curve" smooth="yes"/>
      <point x="718" y="471"/>
      <point x="590" y="567"/>
      <point x="423" y="567" type="curve" smooth="yes"/>
      <point x="392" y="567"/>
      <point x="338" y="564"/>
      <point x="316" y="555" type="curve"/>
      <point x="202" y="427" type="line"/>
      <point x="256" y="448"/>
      <point x="287" y="455"/>
      <point x="366" y="455" type="curve" smooth="yes"/>
      <point x="496" y="455"/>
      <point x="576" y="410"/>
      <point x="576" y="318" type="curve" smooth="yes"/>
      <point x="576" y="223"/>
      <point x="506" y="172"/>
      <point x="364" y="172" type="curve" smooth="yes"/>
      <point x="232" y="172"/>
      <point x="170" y="222"/>
      <point x="170" y="306" type="curve" smooth="yes"/>
      <point x="170" y="402"/>
      <point x="237" y="446"/>
      <point x="357" y="496" type="curve"/>
      <point x="415" y="554" type="line"/>
      <point x="485" y="578"/>
      <point x="552" y="659"/>
      <point x="608" y="741" type="curve"/>
      <point x="482" y="811" type="line"/>
      <point x="422" y="719"/>
      <point x="354" y="635"/>
      <point x="293" y="594" type="curve"/>
      <point x="97" y="519"/>
      <point x="28" y="415"/>
      <point x="28" y="279" type="curve" smooth="yes"/>
      <point x="28" y="92"/>
      <point x="164" y="-11"/>
    </contour>
    <contour>
      <point x="358" y="708" type="curve" smooth="yes"/>
      <point x="358" y="771"/>
      <point x="314" y="812"/>
      <point x="244" y="812" type="curve" smooth="yes"/>
      <point x="176" y="812"/>
      <point x="134" y="766"/>
      <point x="134" y="706" type="curve" smooth="yes"/>
      <point x="134" y="647"/>
      <point x="171" y="599"/>
      <point x="247" y="599" type="curve" smooth="yes"/>
      <point x="314" y="599"/>
      <point x="358" y="641"/>
    </contour>
    <contour>
      <point x="276" y="706" type="curve" smooth="yes"/>
      <point x="276" y="685"/>
      <point x="263" y="677"/>
      <point x="245" y="677" type="curve" smooth="yes"/>
      <point x="225" y="677"/>
      <point x="216" y="690"/>
      <point x="216" y="705" type="curve" smooth="yes"/>
      <point x="216" y="724"/>
      <point x="228" y="734"/>
      <point x="246" y="734" type="curve" smooth="yes"/>
      <point x="266" y="734"/>
      <point x="276" y="722"/>
    </contour>
    <contour>
      <point x="772" y="619" type="curve" smooth="yes"/>
      <point x="772" y="682"/>
      <point x="728" y="723"/>
      <point x="658" y="723" type="curve" smooth="yes"/>
      <point x="590" y="723"/>
      <point x="548" y="677"/>
      <point x="548" y="617" type="curve" smooth="yes"/>
      <point x="548" y="558"/>
      <point x="585" y="510"/>
      <point x="661" y="510" type="curve" smooth="yes"/>
      <point x="728" y="510"/>
      <point x="772" y="552"/>
    </contour>
    <contour>
      <point x="690" y="617" type="curve" smooth="yes"/>
      <point x="690" y="596"/>
      <point x="677" y="588"/>
      <point x="659" y="588" type="curve" smooth="yes"/>
      <point x="639" y="588"/>
      <point x="630" y="601"/>
      <point x="630" y="616" type="curve" smooth="yes"/>
      <point x="630" y="635"/>
      <point x="642" y="645"/>
      <point x="660" y="645" type="curve" smooth="yes"/>
      <point x="680" y="645"/>
      <point x="690" y="633"/>
    </contour>
  </outline>
</glyph>
<glyph name="usinh" format="2">
  <advance width="781"/>
  <unicode hex="0D8B"/>
  <outline>
    <contour>
      <point x="406" y="-248" type="curve" smooth="yes"/>
      <point x="630" y="-248"/>
      <point x="781" y="-149"/>
      <point x="781" y="41" type="curve" smooth="yes"/>
      <point x="781" y="53"/>
      <point x="780" y="67"/>
      <point x="777" y="83" type="curve"/>
      <point x="637" y="77" type="line"/>
      <point x="638" y="68"/>
      <point x="638" y="61"/>
      <point x="638" y="55" type="curve" smooth="yes"/>
      <point x="638" y="-50"/>
      <point x="548" y="-99"/>
      <point x="424" y="-99" type="curve" smooth="yes"/>
      <point x="283" y="-99"/>
      <point x="202" y="-28"/>
      <point x="202" y="98" type="curve" smooth="yes"/>
      <point x="202" y="174"/>
      <point x="228" y="228"/>
      <point x="274" y="263" type="curve" smooth="yes"/>
      <point x="332" y="308"/>
      <point x="420" y="327"/>
      <point x="588" y="327" type="curve" smooth="yes"/>
      <point x="732" y="327" type="line"/>
      <point x="732" y="371" type="line" smooth="yes"/>
      <point x="732" y="514"/>
      <point x="679" y="622"/>
      <point x="516" y="622" type="curve" smooth="yes"/>
      <point x="403" y="622"/>
      <point x="336" y="582"/>
      <point x="336" y="491" type="curve" smooth="yes"/>
      <point x="336" y="482"/>
      <point x="336" y="469"/>
      <point x="338" y="457" type="curve"/>
      <point x="482" y="468" type="line"/>
      <point x="482" y="469"/>
      <point x="482" y="470"/>
      <point x="482" y="471" type="curve" smooth="yes"/>
      <point x="482" y="489"/>
      <point x="495" y="501"/>
      <point x="530" y="501" type="curve" smooth="yes"/>
      <point x="573" y="501"/>
      <point x="582" y="478"/>
      <point x="586" y="455" type="curve"/>
      <point x="555" y="455" type="line" smooth="yes"/>
      <point x="358" y="455"/>
      <point x="248" y="434"/>
      <point x="154" y="369" type="curve" smooth="yes"/>
      <point x="73" y="313"/>
      <point x="21" y="228"/>
      <point x="21" y="92" type="curve" smooth="yes"/>
      <point x="21" y="-91"/>
      <point x="134" y="-248"/>
    </contour>
  </outline>
</glyph>
<glyph name="lvocalicsinh" format="2">
  <advance width="1232"/>
  <unicode hex="0D8F"/>
  <outline>
    <contour>
      <point x="616" y="-11" type="curve" smooth="yes"/>
      <point x="904" y="-11"/>
      <point x="1015" y="88"/>
      <point x="1015" y="244" type="curve" smooth="yes"/>
      <point x="1015" y="383"/>
      <point x="927" y="455"/>
      <point x="755" y="455" type="curve" smooth="yes"/>
      <point x="748" y="455" type="line"/>
      <point x="775" y="452" type="line"/>
      <point x="778" y="478"/>
      <point x="787" y="501"/>
      <point x="816" y="501" type="curve" smooth="yes"/>
      <point x="839" y="501"/>
      <point x="848" y="483"/>
      <point x="848" y="466" type="curve" smooth="yes"/>
      <point x="848" y="462"/>
      <point x="848" y="459"/>
      <point x="848" y="458" type="curve"/>
      <point x="984" y="445" type="line"/>
      <point x="987" y="460"/>
      <point x="988" y="478"/>
      <point x="988" y="490" type="curve" smooth="yes"/>
      <point x="988" y="582"/>
      <point x="929" y="622"/>
      <point x="832" y="622" type="curve" smooth="yes"/>
      <point x="683" y="622"/>
      <point x="630" y="518"/>
      <point x="630" y="377" type="curve" smooth="yes"/>
      <point x="630" y="330" type="line"/>
      <point x="692" y="330" type="line" smooth="yes"/>
      <point x="777" y="330"/>
      <point x="823" y="329"/>
      <point x="848" y="313" type="curve"/>
      <point x="866" y="303"/>
      <point x="875" y="285"/>
      <point x="875" y="265" type="curve" smooth="yes"/>
      <point x="875" y="204"/>
      <point x="808" y="172"/>
      <point x="615" y="172" type="curve" smooth="yes"/>
      <point x="425" y="172"/>
      <point x="357" y="204"/>
      <point x="357" y="265" type="curve" smooth="yes"/>
      <point x="357" y="285"/>
      <point x="366" y="303"/>
      <point x="384" y="313" type="curve"/>
      <point x="409" y="329"/>
      <point x="455" y="330"/>
      <point x="540" y="330" type="curve" smooth="yes"/>
      <point x="602" y="330" type="line"/>
      <point x="602" y="377" type="line" smooth="yes"/>
      <point x="602" y="514"/>
      <point x="549" y="622"/>
      <point x="401" y="622" type="curve" smooth="yes"/>
      <point x="303" y="622"/>
      <point x="244" y="582"/>
      <point x="244" y="492" type="curve" smooth="yes"/>
      <point x="244" y="480"/>
      <point x="245" y="460"/>
      <point x="248" y="443" type="curve"/>
      <point x="384" y="458" type="line"/>
      <point x="384" y="459"/>
      <point x="384" y="462"/>
      <point x="384" y="466" type="curve" smooth="yes"/>
      <point x="384" y="483"/>
      <point x="393" y="501"/>
      <point x="416" y="501" type="curve" smooth="yes"/>
      <point x="445" y="501"/>
      <point x="454" y="478"/>
      <point x="457" y="452" type="curve"/>
      <point x="484" y="455" type="line"/>
      <point x="477" y="455" type="line" smooth="yes"/>
      <point x="305" y="455"/>
      <point x="217" y="383"/>
      <point x="217" y="244" type="curve" smooth="yes"/>
      <point x="217" y="92"/>
      <point x="327" y="-11"/>
    </contour>
    <contour>
      <point x="28" y="324" type="curve" smooth="yes"/>
      <point x="28" y="231"/>
      <point x="56" y="149"/>
      <point x="91" y="83" type="curve"/>
      <point x="211" y="137" type="line"/>
      <point x="186" y="185"/>
      <point x="168" y="237"/>
      <point x="168" y="304" type="curve" smooth="yes"/>
      <point x="168" y="394"/>
      <point x="207" y="462"/>
      <point x="282" y="493" type="curve"/>
      <point x="314" y="505"/>
      <point x="369" y="512"/>
      <point x="396" y="512" type="curve" smooth="yes"/>
      <point x="412" y="512"/>
      <point x="444" y="508"/>
      <point x="463" y="502" type="curve"/>
      <point x="498" y="577" type="line"/>
      <point x="460" y="601"/>
      <point x="425" y="622"/>
      <point x="342" y="622" type="curve" smooth="yes"/>
      <point x="163" y="622"/>
      <point x="28" y="521"/>
    </contour>
    <contour>
      <point x="1204" y="324" type="curve" smooth="yes"/>
      <point x="1204" y="521"/>
      <point x="1069" y="622"/>
      <point x="890" y="622" type="curve" smooth="yes"/>
      <point x="807" y="622"/>
      <point x="772" y="601"/>
      <point x="734" y="577" type="curve"/>
      <point x="769" y="502" type="line"/>
      <point x="788" y="508"/>
      <point x="820" y="513"/>
      <point x="836" y="513" type="curve" smooth="yes"/>
      <point x="863" y="513"/>
      <point x="918" y="505"/>
      <point x="950" y="493" type="curve"/>
      <point x="1025" y="462"/>
      <point x="1064" y="394"/>
      <point x="1064" y="304" type="curve" smooth="yes"/>
      <point x="1064" y="237"/>
      <point x="1046" y="185"/>
      <point x="1021" y="137" type="curve"/>
      <point x="1141" y="83" type="line"/>
      <point x="1176" y="149"/>
      <point x="1204" y="231"/>
    </contour>
  </outline>
</glyph>
<glyph name="esinh" format="2">
  <advance width="902"/>
  <unicode hex="0D91"/>
  <outline>
    <contour>
      <point x="414" y="-11" type="curve" smooth="yes"/>
      <point x="759" y="-11"/>
      <point x="874" y="197"/>
      <point x="874" y="422" type="curve" smooth="yes"/>
      <point x="874" y="685"/>
      <point x="693" y="806"/>
      <point x="498" y="867" type="curve"/>
      <point x="425" y="739" type="line"/>
      <point x="448" y="737"/>
      <point x="473" y="735"/>
      <point x="494" y="727" type="curve" smooth="yes"/>
      <point x="629" y="675"/>
      <point x="727" y="589"/>
      <point x="727" y="424" type="curve" smooth="yes"/>
      <point x="727" y="262"/>
      <point x="600" y="172"/>
      <point x="403" y="172" type="curve" smooth="yes"/>
      <point x="260" y="172"/>
      <point x="206" y="202"/>
      <point x="206" y="261" type="curve" smooth="yes"/>
      <point x="206" y="281"/>
      <point x="213" y="297"/>
      <point x="229" y="309" type="curve" smooth="yes"/>
      <point x="253" y="327"/>
      <point x="294" y="330"/>
      <point x="352" y="330" type="curve" smooth="yes"/>
      <point x="498" y="330" type="line"/>
      <point x="498" y="377" type="line" smooth="yes"/>
      <point x="498" y="514"/>
      <point x="445" y="622"/>
      <point x="297" y="622" type="curve" smooth="yes"/>
      <point x="199" y="622"/>
      <point x="134" y="582"/>
      <point x="134" y="490" type="curve" smooth="yes"/>
      <point x="134" y="485"/>
      <point x="134" y="476"/>
      <point x="135" y="469" type="curve"/>
      <point x="281" y="473" type="line"/>
      <point x="281" y="474"/>
      <point x="281" y="474"/>
      <point x="281" y="475" type="curve" smooth="yes"/>
      <point x="281" y="486"/>
      <point x="289" y="501"/>
      <point x="312" y="501" type="curve" smooth="yes"/>
      <point x="341" y="501"/>
      <point x="350" y="478"/>
      <point x="353" y="455" type="curve"/>
      <point x="24" y="455" type="line"/>
      <point x="24" y="330" type="line"/>
      <point x="50" y="330" type="line" smooth="yes"/>
      <point x="95" y="330"/>
      <point x="127" y="332"/>
      <point x="182" y="343" type="curve"/>
      <point x="166" y="385" type="line"/>
      <point x="101" y="341"/>
      <point x="66" y="298"/>
      <point x="66" y="224" type="curve" smooth="yes"/>
      <point x="66" y="80"/>
      <point x="180" y="-11"/>
    </contour>
    <contour>
      <point x="594" y="493" type="curve" smooth="yes"/>
      <point x="677" y="493"/>
      <point x="721" y="532"/>
      <point x="768" y="600" type="curve"/>
      <point x="668" y="667" type="line"/>
      <point x="648" y="635"/>
      <point x="635" y="613"/>
      <point x="607" y="613" type="curve" smooth="yes"/>
      <point x="584" y="613"/>
      <point x="572" y="624"/>
      <point x="571" y="656" type="curve" smooth="yes"/>
      <point x="570" y="696"/>
      <point x="555" y="731"/>
      <point x="529" y="745" type="curve"/>
      <point x="425" y="739" type="line"/>
      <point x="442" y="733"/>
      <point x="445" y="719"/>
      <point x="445" y="669" type="curve" smooth="yes"/>
      <point x="445" y="552"/>
      <point x="485" y="493"/>
    </contour>
  </outline>
</glyph>
<glyph name="eesinh" format="2">
  <advance width="902"/>
  <unicode hex="0D92"/>
  <outline>
    <contour>
      <point x="751" y="687" type="line"/>
      <point x="751" y="837" type="line"/>
      <point x="713" y="887" type="line"/>
      <point x="709" y="938"/>
      <point x="680" y="969"/>
      <point x="624" y="979" type="curve"/>
      <point x="577" y="878" type="line"/>
      <point x="596" y="871"/>
      <point x="611" y="863"/>
      <point x="620" y="851" type="curve" smooth="yes"/>
      <point x="628" y="840"/>
      <point x="632" y="826"/>
      <point x="632" y="794" type="curve" smooth="yes"/>
      <point x="632" y="768" type="line" smooth="yes"/>
      <point x="632" y="746"/>
      <point x="633" y="719"/>
      <point x="636" y="700" type="curve"/>
    </contour>
    <contour>
      <point x="775" y="753" type="curve" smooth="yes"/>
      <point x="851" y="753"/>
      <point x="902" y="782"/>
      <point x="902" y="868" type="curve" smooth="yes"/>
      <point x="902" y="932"/>
      <point x="866" y="979"/>
      <point x="800" y="979" type="curve" smooth="yes"/>
      <point x="735" y="979"/>
      <point x="699" y="941"/>
      <point x="685" y="875" type="curve"/>
      <point x="751" y="821" type="line"/>
      <point x="751" y="852" type="line" smooth="yes"/>
      <point x="751" y="874"/>
      <point x="762" y="887"/>
      <point x="782" y="887" type="curve" smooth="yes"/>
      <point x="798" y="887"/>
      <point x="806" y="880"/>
      <point x="806" y="867" type="curve" smooth="yes"/>
      <point x="806" y="852"/>
      <point x="794" y="845"/>
      <point x="773" y="845" type="curve" smooth="yes"/>
      <point x="746" y="845"/>
      <point x="724" y="852"/>
      <point x="694" y="866" type="curve"/>
      <point x="671" y="779" type="line"/>
      <point x="715" y="759"/>
      <point x="749" y="753"/>
    </contour>
    <component base="esinh"/>
  </outline>
</glyph>
<glyph name="osinh" format="2">
  <advance width="936"/>
  <unicode hex="0D94"/>
  <outline>
    <contour>
      <point x="633" y="-11" type="curve" smooth="yes"/>
      <point x="792" y="-11"/>
      <point x="903" y="95"/>
      <point x="903" y="358" type="curve" smooth="yes"/>
      <point x="903" y="678"/>
      <point x="720" y="836"/>
      <point x="442" y="836" type="curve" smooth="yes"/>
      <point x="267" y="836"/>
      <point x="156" y="799"/>
      <point x="52" y="752" type="curve"/>
      <point x="111" y="628" type="line"/>
      <point x="197" y="672"/>
      <point x="300" y="701"/>
      <point x="432" y="701" type="curve" smooth="yes"/>
      <point x="654" y="701"/>
      <point x="756" y="562"/>
      <point x="756" y="363" type="curve" smooth="yes"/>
      <point x="756" y="240"/>
      <point x="713" y="165"/>
      <point x="623" y="165" type="curve" smooth="yes"/>
      <point x="572" y="165"/>
      <point x="534" y="184"/>
      <point x="519" y="230" type="curve"/>
      <point x="386" y="230" type="line"/>
      <point x="363" y="181"/>
      <point x="330" y="165"/>
      <point x="284" y="165" type="curve" smooth="yes"/>
      <point x="216" y="165"/>
      <point x="169" y="196"/>
      <point x="169" y="310" type="curve" smooth="yes"/>
      <point x="169" y="389"/>
      <point x="201" y="459"/>
      <point x="231" y="459" type="curve" smooth="yes"/>
      <point x="241" y="459"/>
      <point x="246" y="454"/>
      <point x="246" y="438" type="curve" smooth="yes"/>
      <point x="246" y="415"/>
      <point x="237" y="398"/>
      <point x="237" y="362" type="curve" smooth="yes"/>
      <point x="237" y="279"/>
      <point x="294" y="195"/>
      <point x="462" y="195" type="curve" smooth="yes"/>
      <point x="588" y="195"/>
      <point x="690" y="261"/>
      <point x="690" y="399" type="curve" smooth="yes"/>
      <point x="690" y="514"/>
      <point x="619" y="584"/>
      <point x="523" y="584" type="curve" smooth="yes"/>
      <point x="428" y="584"/>
      <point x="370" y="533"/>
      <point x="370" y="452" type="curve" smooth="yes"/>
      <point x="370" y="370"/>
      <point x="416" y="329"/>
      <point x="503" y="329" type="curve" smooth="yes"/>
      <point x="540" y="329"/>
      <point x="581" y="343"/>
      <point x="611" y="374" type="curve"/>
      <point x="572" y="439" type="line"/>
      <point x="551" y="428"/>
      <point x="537" y="424"/>
      <point x="515" y="424" type="curve" smooth="yes"/>
      <point x="498" y="424"/>
      <point x="484" y="432"/>
      <point x="484" y="451" type="curve" smooth="yes"/>
      <point x="484" y="468"/>
      <point x="496" y="477"/>
      <point x="514" y="477" type="curve" smooth="yes"/>
      <point x="547" y="477"/>
      <point x="562" y="442"/>
      <point x="562" y="394" type="curve" smooth="yes"/>
      <point x="562" y="332"/>
      <point x="537" y="302"/>
      <point x="462" y="302" type="curve" smooth="yes"/>
      <point x="408" y="302"/>
      <point x="370" y="323"/>
      <point x="370" y="380" type="curve" smooth="yes"/>
      <point x="370" y="392"/>
      <point x="378" y="434"/>
      <point x="378" y="473" type="curve" smooth="yes"/>
      <point x="378" y="518"/>
      <point x="355" y="584"/>
      <point x="250" y="584" type="curve" smooth="yes"/>
      <point x="110" y="584"/>
      <point x="32" y="457"/>
      <point x="32" y="284" type="curve" smooth="yes"/>
      <point x="32" y="97"/>
      <point x="105" y="-11"/>
      <point x="263" y="-11" type="curve" smooth="yes"/>
      <point x="355" y="-11"/>
      <point x="406" y="17"/>
      <point x="452" y="73" type="curve"/>
      <point x="491" y="21"/>
      <point x="545" y="-11"/>
    </contour>
  </outline>
</glyph>
<glyph name="oosinh" format="2">
  <advance width="936"/>
  <unicode hex="0D95"/>
  <outline>
    <contour>
      <point x="633" y="-11" type="curve" smooth="yes"/>
      <point x="792" y="-11"/>
      <point x="903" y="87"/>
      <point x="903" y="331" type="curve" smooth="yes"/>
      <point x="903" y="640"/>
      <point x="723" y="774"/>
      <point x="421" y="774" type="curve" smooth="yes"/>
      <point x="257" y="774"/>
      <point x="156" y="754"/>
      <point x="52" y="725" type="curve"/>
      <point x="87" y="597" type="line"/>
      <point x="174" y="624"/>
      <point x="273" y="639"/>
      <point x="416" y="639" type="curve" smooth="yes"/>
      <point x="654" y="639"/>
      <point x="756" y="529"/>
      <point x="756" y="340" type="curve" smooth="yes"/>
      <point x="756" y="231"/>
      <point x="713" y="165"/>
      <point x="623" y="165" type="curve" smooth="yes"/>
      <point x="572" y="165"/>
      <point x="534" y="184"/>
      <point x="519" y="230" type="curve"/>
      <point x="386" y="230" type="line"/>
      <point x="363" y="181"/>
      <point x="330" y="165"/>
      <point x="284" y="165" type="curve" smooth="yes"/>
      <point x="216" y="165"/>
      <point x="169" y="196"/>
      <point x="169" y="310" type="curve" smooth="yes"/>
      <point x="169" y="389"/>
      <point x="201" y="459"/>
      <point x="231" y="459" type="curve" smooth="yes"/>
      <point x="241" y="459"/>
      <point x="246" y="454"/>
      <point x="246" y="438" type="curve" smooth="yes"/>
      <point x="246" y="415"/>
      <point x="237" y="398"/>
      <point x="237" y="362" type="curve" smooth="yes"/>
      <point x="237" y="279"/>
      <point x="294" y="195"/>
      <point x="462" y="195" type="curve" smooth="yes"/>
      <point x="588" y="195"/>
      <point x="690" y="261"/>
      <point x="690" y="399" type="curve" smooth="yes"/>
      <point x="690" y="514"/>
      <point x="619" y="584"/>
      <point x="523" y="584" type="curve" smooth="yes"/>
      <point x="428" y="584"/>
      <point x="370" y="533"/>
      <point x="370" y="452" type="curve" smooth="yes"/>
      <point x="370" y="370"/>
      <point x="416" y="329"/>
      <point x="503" y="329" type="curve" smooth="yes"/>
      <point x="540" y="329"/>
      <point x="581" y="343"/>
      <point x="611" y="374" type="curve"/>
      <point x="572" y="439" type="line"/>
      <point x="551" y="428"/>
      <point x="537" y="424"/>
      <point x="515" y="424" type="curve" smooth="yes"/>
      <point x="498" y="424"/>
      <point x="484" y="432"/>
      <point x="484" y="451" type="curve" smooth="yes"/>
      <point x="484" y="468"/>
      <point x="496" y="477"/>
      <point x="514" y="477" type="curve" smooth="yes"/>
      <point x="547" y="477"/>
      <point x="562" y="442"/>
      <point x="562" y="394" type="curve" smooth="yes"/>
      <point x="562" y="332"/>
      <point x="537" y="302"/>
      <point x="462" y="302" type="curve" smooth="yes"/>
      <point x="408" y="302"/>
      <point x="370" y="323"/>
      <point x="370" y="380" type="curve" smooth="yes"/>
      <point x="370" y="392"/>
      <point x="378" y="434"/>
      <point x="378" y="473" type="curve" smooth="yes"/>
      <point x="378" y="518"/>
      <point x="355" y="584"/>
      <point x="250" y="584" type="curve" smooth="yes"/>
      <point x="110" y="584"/>
      <point x="32" y="457"/>
      <point x="32" y="284" type="curve" smooth="yes"/>
      <point x="32" y="97"/>
      <point x="105" y="-11"/>
      <point x="263" y="-11" type="curve" smooth="yes"/>
      <point x="355" y="-11"/>
      <point x="406" y="17"/>
      <point x="452" y="73" type="curve"/>
      <point x="491" y="21"/>
      <point x="545" y="-11"/>
    </contour>
    <contour>
      <point x="457" y="979" type="curve" smooth="yes"/>
      <point x="178" y="979"/>
      <point x="112" y="874"/>
      <point x="112" y="781" type="curve" smooth="yes"/>
      <point x="112" y="757"/>
      <point x="117" y="728"/>
      <point x="123" y="707" type="curve"/>
      <point x="258" y="726" type="line"/>
      <point x="255" y="734"/>
      <point x="252" y="745"/>
      <point x="252" y="763" type="curve" smooth="yes"/>
      <point x="252" y="811"/>
      <point x="290" y="833"/>
      <point x="448" y="833" type="curve" smooth="yes"/>
      <point x="651" y="833"/>
      <point x="690" y="792"/>
      <point x="690" y="746" type="curve" smooth="yes"/>
      <point x="690" y="739"/>
      <point x="690" y="733"/>
      <point x="689" y="731" type="curve"/>
      <point x="822" y="706" type="line"/>
      <point x="826" y="723"/>
      <point x="830" y="758"/>
      <point x="830" y="777" type="curve" smooth="yes"/>
      <point x="830" y="869"/>
      <point x="773" y="979"/>
    </contour>
  </outline>
</glyph>
<glyph name="kasinh" format="2">
  <advance width="1093"/>
  <unicode hex="0D9A"/>
  <outline>
    <contour>
      <point x="625" y="-11" type="curve" smooth="yes"/>
      <point x="760" y="-11"/>
      <point x="806" y="87"/>
      <point x="806" y="214" type="curve" smooth="yes"/>
      <point x="806" y="354"/>
      <point x="719" y="446"/>
      <point x="521" y="446" type="curve" smooth="yes"/>
      <point x="430" y="446"/>
      <point x="346" y="406"/>
      <point x="294" y="372" type="curve"/>
      <point x="210" y="291" type="line"/>
      <point x="289" y="313"/>
      <point x="367" y="329"/>
      <point x="482" y="329" type="curve" smooth="yes"/>
      <point x="619" y="329"/>
      <point x="666" y="284"/>
      <point x="666" y="226" type="curve" smooth="yes"/>
      <point x="666" y="175"/>
      <point x="640" y="163"/>
      <point x="605" y="163" type="curve" smooth="yes"/>
      <point x="559" y="163"/>
      <point x="536" y="195"/>
      <point x="536" y="255" type="curve" smooth="yes"/>
      <point x="536" y="263" type="line"/>
      <point x="411" y="263" type="line"/>
      <point x="411" y="250" type="line" smooth="yes"/>
      <point x="411" y="182"/>
      <point x="382" y="163"/>
      <point x="348" y="163" type="curve" smooth="yes"/>
      <point x="316" y="163"/>
      <point x="287" y="170"/>
      <point x="287" y="237" type="curve" smooth="yes"/>
      <point x="287" y="249"/>
      <point x="287" y="257"/>
      <point x="288" y="263" type="curve"/>
      <point x="183" y="263" type="line"/>
      <point x="172" y="234"/>
      <point x="165" y="188"/>
      <point x="165" y="152" type="curve" smooth="yes"/>
      <point x="165" y="106"/>
      <point x="188" y="-11"/>
      <point x="324" y="-11" type="curve" smooth="yes"/>
      <point x="399" y="-11"/>
      <point x="434" y="14"/>
      <point x="473" y="63" type="curve"/>
      <point x="512" y="11"/>
      <point x="559" y="-11"/>
    </contour>
    <contour>
      <point x="820" y="-2" type="curve" smooth="yes"/>
      <point x="959" y="-2"/>
      <point x="1065" y="90"/>
      <point x="1065" y="286" type="curve" smooth="yes"/>
      <point x="1065" y="481"/>
      <point x="939" y="622"/>
      <point x="677" y="622" type="curve" smooth="yes"/>
      <point x="532" y="622"/>
      <point x="414" y="585"/>
      <point x="300" y="491" type="curve"/>
      <point x="270" y="463" type="line"/>
      <point x="198" y="398"/>
      <point x="100" y="288"/>
      <point x="14" y="185" type="curve"/>
      <point x="140" y="107" type="line"/>
      <point x="172" y="156" type="line"/>
      <point x="187" y="180" type="line"/>
      <point x="234" y="244"/>
      <point x="307" y="318"/>
      <point x="360" y="372" type="curve"/>
      <point x="394" y="413" type="line"/>
      <point x="456" y="452"/>
      <point x="508" y="478"/>
      <point x="657" y="478" type="curve" smooth="yes"/>
      <point x="858" y="478"/>
      <point x="920" y="383"/>
      <point x="920" y="274" type="curve" smooth="yes"/>
      <point x="920" y="183"/>
      <point x="887" y="133"/>
      <point x="811" y="133" type="curve" smooth="yes"/>
      <point x="806" y="133"/>
      <point x="800" y="133"/>
      <point x="795" y="134" type="curve"/>
      <point x="790" y="0" type="line"/>
      <point x="797" y="-1"/>
      <point x="809" y="-2"/>
    </contour>
    <contour>
      <point x="192" y="599" type="curve" smooth="yes"/>
      <point x="77" y="599"/>
      <point x="17" y="541"/>
      <point x="17" y="452" type="curve" smooth="yes"/>
      <point x="17" y="434"/>
      <point x="20" y="398"/>
      <point x="28" y="371" type="curve"/>
      <point x="173" y="399" type="line"/>
      <point x="170" y="412"/>
      <point x="167" y="430"/>
      <point x="167" y="443" type="curve" smooth="yes"/>
      <point x="167" y="459"/>
      <point x="172" y="478"/>
      <point x="196" y="478" type="curve" smooth="yes"/>
      <point x="214" y="478"/>
      <point x="227" y="463"/>
      <point x="238" y="421" type="curve"/>
      <point x="379" y="445" type="line"/>
      <point x="348" y="549"/>
      <point x="291" y="599"/>
    </contour>
  </outline>
</glyph>
<glyph name="khasinh" format="2">
  <advance width="952"/>
  <unicode hex="0D9B"/>
  <outline>
    <contour>
      <point x="269" y="-11" type="curve" smooth="yes"/>
      <point x="387" y="-11"/>
      <point x="444" y="45"/>
      <point x="444" y="139" type="curve" smooth="yes"/>
      <point x="444" y="216"/>
      <point x="403" y="281"/>
      <point x="296" y="281" type="curve" smooth="yes"/>
      <point x="230" y="281"/>
      <point x="172" y="255"/>
      <point x="130" y="213" type="curve"/>
      <point x="175" y="120" type="line"/>
      <point x="201" y="142"/>
      <point x="230" y="164"/>
      <point x="271" y="164" type="curve" smooth="yes"/>
      <point x="295" y="164"/>
      <point x="306" y="152"/>
      <point x="306" y="135" type="curve" smooth="yes"/>
      <point x="306" y="115"/>
      <point x="293" y="108"/>
      <point x="270" y="108" type="curve" smooth="yes"/>
      <point x="228" y="108"/>
      <point x="197" y="122"/>
      <point x="179" y="174" type="curve"/>
      <point x="174" y="183"/>
      <point x="166" y="214"/>
      <point x="166" y="233" type="curve" smooth="yes"/>
      <point x="166" y="323"/>
      <point x="217" y="421"/>
      <point x="348" y="421" type="curve" smooth="yes"/>
      <point x="459" y="421"/>
      <point x="499" y="348"/>
      <point x="499" y="264" type="curve" smooth="yes"/>
      <point x="499" y="194"/>
      <point x="475" y="132"/>
      <point x="432" y="68" type="curve"/>
      <point x="552" y="-11" type="line"/>
      <point x="612" y="69"/>
      <point x="656" y="178"/>
      <point x="656" y="312" type="curve" smooth="yes"/>
      <point x="656" y="482"/>
      <point x="548" y="586"/>
      <point x="367" y="586" type="curve" smooth="yes"/>
      <point x="141" y="586"/>
      <point x="28" y="430"/>
      <point x="28" y="257" type="curve" smooth="yes"/>
      <point x="28" y="86"/>
      <point x="124" y="-11"/>
    </contour>
    <contour>
      <point x="706" y="-11" type="curve" smooth="yes"/>
      <point x="829" y="-11"/>
      <point x="918" y="98"/>
      <point x="918" y="356" type="curve" smooth="yes"/>
      <point x="918" y="684"/>
      <point x="740" y="836"/>
      <point x="435" y="836" type="curve" smooth="yes"/>
      <point x="267" y="836"/>
      <point x="156" y="799"/>
      <point x="52" y="752" type="curve"/>
      <point x="111" y="628" type="line"/>
      <point x="194" y="668"/>
      <point x="296" y="701"/>
      <point x="431" y="701" type="curve" smooth="yes"/>
      <point x="653" y="701"/>
      <point x="771" y="591"/>
      <point x="771" y="347" type="curve" smooth="yes"/>
      <point x="771" y="232"/>
      <point x="757" y="165"/>
      <point x="717" y="165" type="curve" smooth="yes"/>
      <point x="698" y="165"/>
      <point x="692" y="182"/>
      <point x="692" y="221" type="curve"/>
      <point x="566" y="218" type="line"/>
      <point x="561" y="168" type="line"/>
      <point x="570" y="54"/>
      <point x="602" y="-11"/>
    </contour>
  </outline>
</glyph>
<glyph name="gasinh" format="2">
  <advance width="954"/>
  <unicode hex="0D9C"/>
  <outline>
    <contour>
      <point x="345" y="-11" type="curve" smooth="yes"/>
      <point x="530" y="-11"/>
      <point x="624" y="99"/>
      <point x="624" y="230" type="curve" smooth="yes"/>
      <point x="624" y="341"/>
      <point x="561" y="386"/>
      <point x="486" y="386" type="curve" smooth="yes"/>
      <point x="472" y="386"/>
      <point x="457" y="383"/>
      <point x="444" y="380" type="curve"/>
      <point x="490" y="370" type="line"/>
      <point x="515" y="406"/>
      <point x="556" y="453"/>
      <point x="638" y="453" type="curve" smooth="yes"/>
      <point x="730" y="453"/>
      <point x="784" y="387"/>
      <point x="784" y="285" type="curve" smooth="yes"/>
      <point x="784" y="187"/>
      <point x="737" y="133"/>
      <point x="630" y="133" type="curve" smooth="yes"/>
      <point x="621" y="133"/>
      <point x="615" y="133"/>
      <point x="608" y="134" type="curve"/>
      <point x="601" y="-1" type="line"/>
      <point x="613" y="-2"/>
      <point x="627" y="-2"/>
      <point x="639" y="-2" type="curve" smooth="yes"/>
      <point x="815" y="-2"/>
      <point x="926" y="101"/>
      <point x="926" y="309" type="curve" smooth="yes"/>
      <point x="926" y="477"/>
      <point x="842" y="622"/>
      <point x="645" y="622" type="curve" smooth="yes"/>
      <point x="530" y="622"/>
      <point x="387" y="563"/>
      <point x="331" y="291" type="curve"/>
      <point x="441" y="254" type="line"/>
      <point x="443" y="260"/>
      <point x="454" y="267"/>
      <point x="461" y="267" type="curve" smooth="yes"/>
      <point x="478" y="267"/>
      <point x="484" y="257"/>
      <point x="484" y="244" type="curve" smooth="yes"/>
      <point x="484" y="207"/>
      <point x="444" y="172"/>
      <point x="350" y="172" type="curve" smooth="yes"/>
      <point x="240" y="172"/>
      <point x="170" y="220"/>
      <point x="170" y="325" type="curve" smooth="yes"/>
      <point x="170" y="425"/>
      <point x="233" y="487"/>
      <point x="354" y="487" type="curve" smooth="yes"/>
      <point x="374" y="487"/>
      <point x="387" y="486"/>
      <point x="398" y="485" type="curve"/>
      <point x="405" y="619" type="line"/>
      <point x="389" y="621"/>
      <point x="373" y="622"/>
      <point x="356" y="622" type="curve" smooth="yes"/>
      <point x="151" y="622"/>
      <point x="28" y="507"/>
      <point x="28" y="302" type="curve" smooth="yes"/>
      <point x="28" y="115"/>
      <point x="135" y="-11"/>
    </contour>
  </outline>
</glyph>
<glyph name="ghasinh" format="2">
  <advance width="920"/>
  <unicode hex="0D9D"/>
  <outline>
    <contour>
      <point x="300" y="-11" type="curve" smooth="yes"/>
      <point x="352" y="-11"/>
      <point x="393" y="-6"/>
      <point x="430" y="2" type="curve"/>
      <point x="337" y="161" type="line"/>
      <point x="320" y="158"/>
      <point x="312" y="158"/>
      <point x="295" y="158" type="curve" smooth="yes"/>
      <point x="222" y="158"/>
      <point x="189" y="188"/>
      <point x="189" y="241" type="curve" smooth="yes"/>
      <point x="189" y="277"/>
      <point x="205" y="297"/>
      <point x="230" y="310" type="curve" smooth="yes"/>
      <point x="256" y="324"/>
      <point x="299" y="330"/>
      <point x="383" y="330" type="curve" smooth="yes"/>
      <point x="458" y="330" type="line"/>
      <point x="458" y="377" type="line" smooth="yes"/>
      <point x="458" y="518"/>
      <point x="405" y="622"/>
      <point x="257" y="622" type="curve" smooth="yes"/>
      <point x="159" y="622"/>
      <point x="94" y="582"/>
      <point x="94" y="490" type="curve" smooth="yes"/>
      <point x="94" y="485"/>
      <point x="94" y="476"/>
      <point x="95" y="469" type="curve"/>
      <point x="241" y="473" type="line"/>
      <point x="241" y="474"/>
      <point x="241" y="474"/>
      <point x="241" y="475" type="curve" smooth="yes"/>
      <point x="241" y="486"/>
      <point x="249" y="501"/>
      <point x="272" y="501" type="curve" smooth="yes"/>
      <point x="301" y="501"/>
      <point x="310" y="477"/>
      <point x="313" y="455" type="curve"/>
      <point x="24" y="455" type="line"/>
      <point x="24" y="330" type="line"/>
      <point x="52" y="330" type="line" smooth="yes"/>
      <point x="105" y="330"/>
      <point x="164" y="339"/>
      <point x="186" y="342" type="curve"/>
      <point x="135" y="358" type="line"/>
      <point x="87" y="326"/>
      <point x="49" y="276"/>
      <point x="49" y="196" type="curve" smooth="yes"/>
      <point x="49" y="71"/>
      <point x="135" y="-11"/>
    </contour>
    <contour>
      <point x="646" y="-11" type="curve" smooth="yes"/>
      <point x="781" y="-11"/>
      <point x="892" y="61"/>
      <point x="892" y="226" type="curve" smooth="yes"/>
      <point x="892" y="413"/>
      <point x="742" y="455"/>
      <point x="621" y="455" type="curve" smooth="yes"/>
      <point x="605" y="455" type="line"/>
      <point x="631" y="452" type="line"/>
      <point x="634" y="478"/>
      <point x="643" y="501"/>
      <point x="672" y="501" type="curve" smooth="yes"/>
      <point x="695" y="501"/>
      <point x="704" y="483"/>
      <point x="704" y="466" type="curve" smooth="yes"/>
      <point x="704" y="462"/>
      <point x="704" y="459"/>
      <point x="704" y="458" type="curve"/>
      <point x="846" y="445" type="line"/>
      <point x="849" y="460"/>
      <point x="850" y="478"/>
      <point x="850" y="490" type="curve" smooth="yes"/>
      <point x="850" y="584"/>
      <point x="785" y="622"/>
      <point x="688" y="622" type="curve" smooth="yes"/>
      <point x="539" y="622"/>
      <point x="486" y="518"/>
      <point x="486" y="378" type="curve" smooth="yes"/>
      <point x="486" y="330" type="line"/>
      <point x="554" y="330" type="line" smooth="yes"/>
      <point x="639" y="330"/>
      <point x="674" y="325"/>
      <point x="706" y="311" type="curve" smooth="yes"/>
      <point x="736" y="298"/>
      <point x="752" y="273"/>
      <point x="752" y="241" type="curve" smooth="yes"/>
      <point x="752" y="187"/>
      <point x="715" y="158"/>
      <point x="649" y="158" type="curve" smooth="yes"/>
      <point x="632" y="158"/>
      <point x="615" y="159"/>
      <point x="595" y="162" type="curve"/>
      <point x="509" y="2" type="line"/>
      <point x="548" y="-6"/>
      <point x="587" y="-11"/>
    </contour>
    <contour>
      <point x="469" y="175" type="curve" smooth="yes"/>
      <point x="499" y="175"/>
      <point x="521" y="171"/>
      <point x="521" y="154" type="curve" smooth="yes"/>
      <point x="521" y="143"/>
      <point x="515" y="136"/>
      <point x="496" y="134" type="curve"/>
      <point x="509" y="2" type="line"/>
      <point x="581" y="109" type="line"/>
      <point x="627" y="125"/>
      <point x="652" y="161"/>
      <point x="652" y="198" type="curve" smooth="yes"/>
      <point x="652" y="268"/>
      <point x="589" y="306"/>
      <point x="477" y="306" type="curve" smooth="yes"/>
      <point x="463" y="306" type="line" smooth="yes"/>
      <point x="346" y="306"/>
      <point x="285" y="268"/>
      <point x="285" y="197" type="curve" smooth="yes"/>
      <point x="285" y="161"/>
      <point x="310" y="125"/>
      <point x="355" y="109" type="curve"/>
      <point x="430" y="2" type="line"/>
      <point x="443" y="134" type="line"/>
      <point x="428" y="135"/>
      <point x="418" y="142"/>
      <point x="418" y="154" type="curve" smooth="yes"/>
      <point x="418" y="171"/>
      <point x="434" y="175"/>
    </contour>
  </outline>
</glyph>
<glyph name="ngasinh" format="2">
  <advance width="965"/>
  <unicode hex="0D9E"/>
  <outline>
    <contour>
      <point x="668" y="-11" type="curve" smooth="yes"/>
      <point x="819" y="-11"/>
      <point x="932" y="86"/>
      <point x="932" y="352" type="curve" smooth="yes"/>
      <point x="932" y="678"/>
      <point x="749" y="836"/>
      <point x="467" y="836" type="curve" smooth="yes"/>
      <point x="300" y="836"/>
      <point x="181" y="799"/>
      <point x="77" y="752" type="curve"/>
      <point x="136" y="628" type="line"/>
      <point x="222" y="672"/>
      <point x="325" y="701"/>
      <point x="457" y="701" type="curve" smooth="yes"/>
      <point x="683" y="701"/>
      <point x="785" y="562"/>
      <point x="785" y="363" type="curve" smooth="yes"/>
      <point x="785" y="233"/>
      <point x="748" y="165"/>
      <point x="667" y="165" type="curve" smooth="yes"/>
      <point x="608" y="165"/>
      <point x="559" y="187"/>
      <point x="559" y="259" type="curve" smooth="yes"/>
      <point x="559" y="263" type="line"/>
      <point x="425" y="263" type="line"/>
      <point x="425" y="257" type="line" smooth="yes"/>
      <point x="425" y="191"/>
      <point x="383" y="165"/>
      <point x="306" y="165" type="curve" smooth="yes"/>
      <point x="247" y="165"/>
      <point x="227" y="184"/>
      <point x="227" y="212" type="curve" smooth="yes"/>
      <point x="227" y="241"/>
      <point x="248" y="260"/>
      <point x="313" y="277" type="curve" smooth="yes"/>
      <point x="356" y="288" type="line" smooth="yes"/>
      <point x="458" y="314"/>
      <point x="546" y="344"/>
      <point x="546" y="455" type="curve" smooth="yes"/>
      <point x="546" y="575"/>
      <point x="457" y="622"/>
      <point x="287" y="622" type="curve" smooth="yes"/>
      <point x="92" y="622"/>
      <point x="15" y="556"/>
      <point x="15" y="471" type="curve" smooth="yes"/>
      <point x="15" y="379"/>
      <point x="87" y="341"/>
      <point x="163" y="341" type="curve" smooth="yes"/>
      <point x="218" y="341"/>
      <point x="321" y="362"/>
      <point x="321" y="461" type="curve" smooth="yes"/>
      <point x="321" y="483"/>
      <point x="314" y="519"/>
      <point x="264" y="558" type="curve"/>
      <point x="190" y="515" type="line"/>
      <point x="199" y="499"/>
      <point x="203" y="493"/>
      <point x="203" y="475" type="curve" smooth="yes"/>
      <point x="203" y="453"/>
      <point x="191" y="446"/>
      <point x="170" y="446" type="curve" smooth="yes"/>
      <point x="148" y="446"/>
      <point x="139" y="458"/>
      <point x="139" y="472" type="curve" smooth="yes"/>
      <point x="139" y="499"/>
      <point x="163" y="506"/>
      <point x="221" y="507" type="curve"/>
      <point x="242" y="508"/>
      <point x="265" y="508"/>
      <point x="288" y="508" type="curve" smooth="yes"/>
      <point x="373" y="508"/>
      <point x="406" y="495"/>
      <point x="406" y="466" type="curve" smooth="yes"/>
      <point x="406" y="440"/>
      <point x="388" y="431"/>
      <point x="343" y="420" type="curve" smooth="yes"/>
      <point x="306" y="411" type="line" smooth="yes"/>
      <point x="252" y="398"/>
      <point x="165" y="352"/>
      <point x="134" y="316" type="curve" smooth="yes"/>
      <point x="104" y="284"/>
      <point x="87" y="246"/>
      <point x="87" y="194" type="curve" smooth="yes"/>
      <point x="87" y="58"/>
      <point x="178" y="-11"/>
      <point x="307" y="-11" type="curve" smooth="yes"/>
      <point x="401" y="-11"/>
      <point x="449" y="22"/>
      <point x="494" y="72" type="curve"/>
      <point x="535" y="24"/>
      <point x="582" y="-11"/>
    </contour>
  </outline>
</glyph>
<glyph name="nngasinh" format="2">
  <advance width="1162"/>
  <unicode hex="0D9F"/>
  <outline>
    <contour>
      <point x="847" y="-2" type="curve" smooth="yes"/>
      <point x="1023" y="-2"/>
      <point x="1134" y="101"/>
      <point x="1134" y="309" type="curve" smooth="yes"/>
      <point x="1134" y="477"/>
      <point x="1050" y="622"/>
      <point x="853" y="622" type="curve" smooth="yes"/>
      <point x="738" y="622"/>
      <point x="595" y="563"/>
      <point x="539" y="291" type="curve"/>
      <point x="649" y="254" type="line"/>
      <point x="651" y="260"/>
      <point x="662" y="267"/>
      <point x="669" y="267" type="curve" smooth="yes"/>
      <point x="686" y="267"/>
      <point x="692" y="257"/>
      <point x="692" y="244" type="curve" smooth="yes"/>
      <point x="692" y="207"/>
      <point x="652" y="172"/>
      <point x="556" y="172" type="curve" smooth="yes"/>
      <point x="423" y="172"/>
      <point x="377" y="232"/>
      <point x="377" y="303" type="curve" smooth="yes"/>
      <point x="377" y="395"/>
      <point x="448" y="434"/>
      <point x="549" y="440" type="curve"/>
      <point x="604" y="579" type="line"/>
      <point x="417" y="527" type="line"/>
      <point x="296" y="486"/>
      <point x="237" y="399"/>
      <point x="237" y="276" type="curve" smooth="yes"/>
      <point x="237" y="112"/>
      <point x="326" y="-11"/>
      <point x="552" y="-11" type="curve" smooth="yes"/>
      <point x="738" y="-11"/>
      <point x="832" y="99"/>
      <point x="832" y="230" type="curve" smooth="yes"/>
      <point x="832" y="341"/>
      <point x="769" y="386"/>
      <point x="694" y="386" type="curve" smooth="yes"/>
      <point x="680" y="386"/>
      <point x="665" y="383"/>
      <point x="652" y="380" type="curve"/>
      <point x="698" y="370" type="line"/>
      <point x="723" y="406"/>
      <point x="764" y="453"/>
      <point x="846" y="453" type="curve" smooth="yes"/>
      <point x="938" y="453"/>
      <point x="992" y="387"/>
      <point x="992" y="285" type="curve" smooth="yes"/>
      <point x="992" y="186"/>
      <point x="945" y="133"/>
      <point x="838" y="133" type="curve" smooth="yes"/>
      <point x="829" y="133"/>
      <point x="823" y="133"/>
      <point x="816" y="134" type="curve"/>
      <point x="809" y="-1" type="line"/>
      <point x="821" y="-2"/>
      <point x="835" y="-2"/>
    </contour>
    <contour>
      <point x="28" y="323" type="curve" smooth="yes"/>
      <point x="28" y="230"/>
      <point x="56" y="150"/>
      <point x="89" y="83" type="curve"/>
      <point x="209" y="137" type="line"/>
      <point x="184" y="190"/>
      <point x="168" y="238"/>
      <point x="168" y="310" type="curve" smooth="yes"/>
      <point x="168" y="413"/>
      <point x="231" y="503"/>
      <point x="391" y="503" type="curve" smooth="yes"/>
      <point x="446" y="503"/>
      <point x="497" y="484"/>
      <point x="536" y="466" type="curve"/>
      <point x="604" y="579" type="line"/>
      <point x="535" y="605"/>
      <point x="461" y="622"/>
      <point x="371" y="622" type="curve" smooth="yes"/>
      <point x="169" y="622"/>
      <point x="28" y="526"/>
    </contour>
  </outline>
</glyph>
<glyph name="casinh" format="2">
  <advance width="903"/>
  <unicode hex="0DA0"/>
  <outline>
    <contour>
      <point x="414" y="-11" type="curve" smooth="yes"/>
      <point x="755" y="-11"/>
      <point x="875" y="194"/>
      <point x="875" y="413" type="curve" smooth="yes"/>
      <point x="875" y="709"/>
      <point x="678" y="836"/>
      <point x="430" y="836" type="curve" smooth="yes"/>
      <point x="283" y="836"/>
      <point x="177" y="801"/>
      <point x="68" y="752" type="curve"/>
      <point x="126" y="625" type="line"/>
      <point x="208" y="671"/>
      <point x="309" y="701"/>
      <point x="422" y="701" type="curve" smooth="yes"/>
      <point x="598" y="701"/>
      <point x="728" y="623"/>
      <point x="728" y="432" type="curve" smooth="yes"/>
      <point x="728" y="260"/>
      <point x="600" y="172"/>
      <point x="403" y="172" type="curve" smooth="yes"/>
      <point x="260" y="172"/>
      <point x="206" y="202"/>
      <point x="206" y="261" type="curve" smooth="yes"/>
      <point x="206" y="281"/>
      <point x="213" y="297"/>
      <point x="229" y="309" type="curve" smooth="yes"/>
      <point x="253" y="327"/>
      <point x="294" y="330"/>
      <point x="352" y="330" type="curve" smooth="yes"/>
      <point x="498" y="330" type="line"/>
      <point x="498" y="377" type="line" smooth="yes"/>
      <point x="498" y="514"/>
      <point x="445" y="622"/>
      <point x="297" y="622" type="curve" smooth="yes"/>
      <point x="199" y="622"/>
      <point x="134" y="582"/>
      <point x="134" y="490" type="curve" smooth="yes"/>
      <point x="134" y="485"/>
      <point x="134" y="476"/>
      <point x="135" y="469" type="curve"/>
      <point x="281" y="473" type="line"/>
      <point x="281" y="474"/>
      <point x="281" y="474"/>
      <point x="281" y="475" type="curve" smooth="yes"/>
      <point x="281" y="486"/>
      <point x="289" y="501"/>
      <point x="312" y="501" type="curve" smooth="yes"/>
      <point x="341" y="501"/>
      <point x="350" y="478"/>
      <point x="353" y="455" type="curve"/>
      <point x="24" y="455" type="line"/>
      <point x="24" y="330" type="line"/>
      <point x="50" y="330" type="line" smooth="yes"/>
      <point x="95" y="330"/>
      <point x="127" y="332"/>
      <point x="182" y="343" type="curve"/>
      <point x="166" y="385" type="line"/>
      <point x="101" y="341"/>
      <point x="66" y="298"/>
      <point x="66" y="224" type="curve" smooth="yes"/>
      <point x="66" y="80"/>
      <point x="180" y="-11"/>
    </contour>
  </outline>
</glyph>
<glyph name="chasinh" format="2">
  <advance width="862"/>
  <unicode hex="0DA1"/>
  <outline>
    <contour>
      <point x="427" y="-11" type="curve" smooth="yes"/>
      <point x="730" y="-11"/>
      <point x="834" y="87"/>
      <point x="834" y="240" type="curve" smooth="yes"/>
      <point x="834" y="388"/>
      <point x="736" y="455"/>
      <point x="557" y="455" type="curve" smooth="yes"/>
      <point x="541" y="455" type="line"/>
      <point x="567" y="445" type="line"/>
      <point x="571" y="478"/>
      <point x="588" y="501"/>
      <point x="619" y="501" type="curve" smooth="yes"/>
      <point x="656" y="501"/>
      <point x="674" y="475"/>
      <point x="674" y="424" type="curve" smooth="yes"/>
      <point x="674" y="316"/>
      <point x="650" y="305"/>
      <point x="611" y="305" type="curve" smooth="yes"/>
      <point x="567" y="305"/>
      <point x="552" y="329"/>
      <point x="552" y="385" type="curve"/>
      <point x="530" y="440" type="line"/>
      <point x="628" y="587" type="line"/>
      <point x="677" y="635"/>
      <point x="758" y="668"/>
      <point x="843" y="689" type="curve"/>
      <point x="793" y="812" type="line"/>
      <point x="619" y="758"/>
      <point x="439" y="629"/>
      <point x="439" y="396" type="curve" smooth="yes"/>
      <point x="439" y="275"/>
      <point x="488" y="204"/>
      <point x="597" y="204" type="curve" smooth="yes"/>
      <point x="648" y="204"/>
      <point x="686" y="215"/>
      <point x="725" y="276" type="curve"/>
      <point x="754" y="292" type="line"/>
      <point x="773" y="324"/>
      <point x="803" y="358"/>
      <point x="803" y="441" type="curve" smooth="yes"/>
      <point x="803" y="573"/>
      <point x="745" y="620"/>
      <point x="651" y="620" type="curve" smooth="yes"/>
      <point x="503" y="620"/>
      <point x="476" y="457"/>
      <point x="476" y="359" type="curve" smooth="yes"/>
      <point x="476" y="341" type="line"/>
      <point x="540" y="341" type="line" smooth="yes"/>
      <point x="602" y="341"/>
      <point x="632" y="337"/>
      <point x="662" y="327" type="curve"/>
      <point x="685" y="308" type="line"/>
      <point x="695" y="295"/>
      <point x="700" y="280"/>
      <point x="700" y="261" type="curve" smooth="yes"/>
      <point x="700" y="213"/>
      <point x="658" y="172"/>
      <point x="426" y="172" type="curve" smooth="yes"/>
      <point x="236" y="172"/>
      <point x="168" y="204"/>
      <point x="168" y="265" type="curve" smooth="yes"/>
      <point x="168" y="285"/>
      <point x="177" y="303"/>
      <point x="195" y="313" type="curve"/>
      <point x="220" y="329"/>
      <point x="266" y="330"/>
      <point x="351" y="330" type="curve" smooth="yes"/>
      <point x="413" y="330" type="line"/>
      <point x="413" y="377" type="line" smooth="yes"/>
      <point x="413" y="514"/>
      <point x="360" y="622"/>
      <point x="212" y="622" type="curve" smooth="yes"/>
      <point x="114" y="622"/>
      <point x="49" y="582"/>
      <point x="49" y="490" type="curve" smooth="yes"/>
      <point x="49" y="480"/>
      <point x="50" y="460"/>
      <point x="53" y="443" type="curve"/>
      <point x="195" y="458" type="line"/>
      <point x="195" y="462"/>
      <point x="195" y="462"/>
      <point x="195" y="466" type="curve" smooth="yes"/>
      <point x="195" y="483"/>
      <point x="204" y="501"/>
      <point x="227" y="501" type="curve" smooth="yes"/>
      <point x="256" y="501"/>
      <point x="265" y="478"/>
      <point x="268" y="452" type="curve"/>
      <point x="295" y="455" type="line"/>
      <point x="288" y="455" type="line" smooth="yes"/>
      <point x="116" y="455"/>
      <point x="28" y="383"/>
      <point x="28" y="244" type="curve" smooth="yes"/>
      <point x="28" y="92"/>
      <point x="138" y="-11"/>
    </contour>
  </outline>
</glyph>
<glyph name="jhasinh" format="2">
  <advance width="1526"/>
  <unicode hex="0DA3"/>
  <outline>
    <contour>
      <point x="625" y="-11" type="curve" smooth="yes"/>
      <point x="744" y="-11"/>
      <point x="780" y="88"/>
      <point x="780" y="214" type="curve" smooth="yes"/>
      <point x="780" y="352"/>
      <point x="705" y="446"/>
      <point x="521" y="446" type="curve" smooth="yes"/>
      <point x="434" y="446"/>
      <point x="346" y="406"/>
      <point x="294" y="372" type="curve"/>
      <point x="210" y="291" type="line"/>
      <point x="289" y="313"/>
      <point x="367" y="329"/>
      <point x="482" y="329" type="curve" smooth="yes"/>
      <point x="619" y="329"/>
      <point x="666" y="284"/>
      <point x="666" y="226" type="curve" smooth="yes"/>
      <point x="666" y="176"/>
      <point x="640" y="163"/>
      <point x="605" y="163" type="curve" smooth="yes"/>
      <point x="559" y="163"/>
      <point x="536" y="195"/>
      <point x="536" y="255" type="curve" smooth="yes"/>
      <point x="536" y="263" type="line"/>
      <point x="411" y="263" type="line"/>
      <point x="411" y="250" type="line" smooth="yes"/>
      <point x="411" y="182"/>
      <point x="382" y="163"/>
      <point x="348" y="163" type="curve" smooth="yes"/>
      <point x="316" y="163"/>
      <point x="287" y="170"/>
      <point x="287" y="237" type="curve" smooth="yes"/>
      <point x="287" y="249"/>
      <point x="287" y="257"/>
      <point x="288" y="263" type="curve"/>
      <point x="183" y="263" type="line"/>
      <point x="172" y="234"/>
      <point x="165" y="188"/>
      <point x="165" y="152" type="curve" smooth="yes"/>
      <point x="165" y="106"/>
      <point x="188" y="-11"/>
      <point x="324" y="-11" type="curve" smooth="yes"/>
      <point x="399" y="-11"/>
      <point x="434" y="14"/>
      <point x="473" y="63" type="curve"/>
      <point x="512" y="11"/>
      <point x="559" y="-11"/>
    </contour>
    <contour>
      <point x="655" y="489" type="curve" smooth="yes"/>
      <point x="756" y="489"/>
      <point x="839" y="447"/>
      <point x="900" y="397" type="curve"/>
      <point x="1015" y="490" type="line"/>
      <point x="921" y="570"/>
      <point x="807" y="622"/>
      <point x="668" y="622" type="curve" smooth="yes"/>
      <point x="523" y="622"/>
      <point x="414" y="585"/>
      <point x="300" y="491" type="curve"/>
      <point x="270" y="463" type="line"/>
      <point x="198" y="398"/>
      <point x="100" y="288"/>
      <point x="14" y="185" type="curve"/>
      <point x="140" y="107" type="line"/>
      <point x="172" y="156" type="line"/>
      <point x="187" y="180" type="line"/>
      <point x="234" y="244"/>
      <point x="307" y="318"/>
      <point x="360" y="372" type="curve"/>
      <point x="394" y="413" type="line"/>
      <point x="456" y="452"/>
      <point x="532" y="489"/>
    </contour>
    <contour>
      <point x="192" y="599" type="curve" smooth="yes"/>
      <point x="77" y="599"/>
      <point x="17" y="541"/>
      <point x="17" y="452" type="curve" smooth="yes"/>
      <point x="17" y="434"/>
      <point x="20" y="398"/>
      <point x="28" y="371" type="curve"/>
      <point x="173" y="399" type="line"/>
      <point x="170" y="412"/>
      <point x="167" y="430"/>
      <point x="167" y="443" type="curve" smooth="yes"/>
      <point x="167" y="459"/>
      <point x="172" y="478"/>
      <point x="196" y="478" type="curve" smooth="yes"/>
      <point x="214" y="478"/>
      <point x="227" y="463"/>
      <point x="238" y="421" type="curve"/>
      <point x="379" y="445" type="line"/>
      <point x="348" y="549"/>
      <point x="291" y="599"/>
    </contour>
    <contour>
      <point x="1237" y="-11" type="curve" smooth="yes"/>
      <point x="1383" y="-11"/>
      <point x="1493" y="86"/>
      <point x="1493" y="352" type="curve" smooth="yes"/>
      <point x="1493" y="678"/>
      <point x="1310" y="836"/>
      <point x="1038" y="836" type="curve" smooth="yes"/>
      <point x="896" y="836"/>
      <point x="785" y="799"/>
      <point x="681" y="752" type="curve"/>
      <point x="740" y="628" type="line"/>
      <point x="826" y="672"/>
      <point x="929" y="701"/>
      <point x="1035" y="701" type="curve" smooth="yes"/>
      <point x="1244" y="701"/>
      <point x="1346" y="562"/>
      <point x="1346" y="363" type="curve" smooth="yes"/>
      <point x="1346" y="233"/>
      <point x="1313" y="165"/>
      <point x="1233" y="165" type="curve" smooth="yes"/>
      <point x="1179" y="165"/>
      <point x="1133" y="187"/>
      <point x="1133" y="259" type="curve" smooth="yes"/>
      <point x="1133" y="263" type="line"/>
      <point x="999" y="263" type="line"/>
      <point x="999" y="257" type="line" smooth="yes"/>
      <point x="999" y="194"/>
      <point x="960" y="165"/>
      <point x="900" y="165" type="curve" smooth="yes"/>
      <point x="837" y="165"/>
      <point x="805" y="192"/>
      <point x="805" y="247" type="curve" smooth="yes"/>
      <point x="805" y="317"/>
      <point x="861" y="352"/>
      <point x="977" y="356" type="curve"/>
      <point x="1015" y="490" type="line"/>
      <point x="888" y="479" type="line"/>
      <point x="722" y="443"/>
      <point x="686" y="352"/>
      <point x="686" y="234" type="curve" smooth="yes"/>
      <point x="686" y="79"/>
      <point x="784" y="-11"/>
      <point x="887" y="-11" type="curve" smooth="yes"/>
      <point x="978" y="-11"/>
      <point x="1024" y="22"/>
      <point x="1068" y="72" type="curve"/>
      <point x="1108" y="24"/>
      <point x="1153" y="-11"/>
    </contour>
  </outline>
</glyph>
<glyph name="ttasinh" format="2">
  <advance width="856"/>
  <unicode hex="0DA7"/>
  <outline>
    <contour>
      <point x="368" y="-11" type="curve" smooth="yes"/>
      <point x="713" y="-11"/>
      <point x="828" y="197"/>
      <point x="828" y="416" type="curve" smooth="yes"/>
      <point x="828" y="709"/>
      <point x="631" y="836"/>
      <point x="394" y="836" type="curve" smooth="yes"/>
      <point x="262" y="836"/>
      <point x="146" y="805"/>
      <point x="43" y="757" type="curve"/>
      <point x="100" y="630" type="line"/>
      <point x="177" y="672"/>
      <point x="285" y="701"/>
      <point x="388" y="701" type="curve" smooth="yes"/>
      <point x="551" y="701"/>
      <point x="681" y="623"/>
      <point x="681" y="431" type="curve" smooth="yes"/>
      <point x="681" y="262"/>
      <point x="553" y="172"/>
      <point x="361" y="172" type="curve" smooth="yes"/>
      <point x="211" y="172"/>
      <point x="170" y="211"/>
      <point x="170" y="269" type="curve" smooth="yes"/>
      <point x="170" y="334"/>
      <point x="229" y="356"/>
      <point x="338" y="356" type="curve" smooth="yes"/>
      <point x="381" y="356"/>
      <point x="415" y="354"/>
      <point x="446" y="351" type="curve"/>
      <point x="454" y="485" type="line"/>
      <point x="426" y="488"/>
      <point x="385" y="491"/>
      <point x="335" y="491" type="curve" smooth="yes"/>
      <point x="130" y="491"/>
      <point x="28" y="407"/>
      <point x="28" y="249" type="curve" smooth="yes"/>
      <point x="28" y="94"/>
      <point x="137" y="-11"/>
    </contour>
  </outline>
</glyph>
<glyph name="tthasinh" format="2">
  <advance width="917"/>
  <unicode hex="0DA8"/>
  <outline>
    <contour>
      <point x="620" y="-11" type="curve" smooth="yes"/>
      <point x="771" y="-11"/>
      <point x="884" y="86"/>
      <point x="884" y="333" type="curve" smooth="yes"/>
      <point x="884" y="681"/>
      <point x="632" y="812"/>
      <point x="452" y="867" type="curve"/>
      <point x="379" y="739" type="line"/>
      <point x="402" y="738"/>
      <point x="421" y="734"/>
      <point x="445" y="725" type="curve"/>
      <point x="582" y="672"/>
      <point x="737" y="578"/>
      <point x="737" y="334" type="curve" smooth="yes"/>
      <point x="737" y="234"/>
      <point x="700" y="165"/>
      <point x="619" y="165" type="curve" smooth="yes"/>
      <point x="560" y="165"/>
      <point x="511" y="187"/>
      <point x="511" y="259" type="curve" smooth="yes"/>
      <point x="511" y="263" type="line"/>
      <point x="377" y="263" type="line"/>
      <point x="377" y="257" type="line" smooth="yes"/>
      <point x="377" y="191"/>
      <point x="335" y="165"/>
      <point x="268" y="165" type="curve" smooth="yes"/>
      <point x="203" y="165"/>
      <point x="170" y="192"/>
      <point x="170" y="249" type="curve" smooth="yes"/>
      <point x="170" y="321"/>
      <point x="225" y="356"/>
      <point x="348" y="356" type="curve" smooth="yes"/>
      <point x="373" y="356"/>
      <point x="428" y="353"/>
      <point x="448" y="351" type="curve"/>
      <point x="457" y="485" type="line"/>
      <point x="427" y="488"/>
      <point x="394" y="491"/>
      <point x="338" y="491" type="curve" smooth="yes"/>
      <point x="117" y="491"/>
      <point x="28" y="377"/>
      <point x="28" y="234" type="curve" smooth="yes"/>
      <point x="28" y="69"/>
      <point x="127" y="-11"/>
      <point x="259" y="-11" type="curve" smooth="yes"/>
      <point x="353" y="-11"/>
      <point x="401" y="22"/>
      <point x="446" y="72" type="curve"/>
      <point x="487" y="24"/>
      <point x="534" y="-11"/>
    </contour>
    <contour>
      <point x="548" y="493" type="curve" smooth="yes"/>
      <point x="631" y="493"/>
      <point x="675" y="532"/>
      <point x="722" y="600" type="curve"/>
      <point x="622" y="667" type="line"/>
      <point x="602" y="635"/>
      <point x="589" y="613"/>
      <point x="561" y="613" type="curve" smooth="yes"/>
      <point x="538" y="613"/>
      <point x="526" y="624"/>
      <point x="525" y="656" type="curve" smooth="yes"/>
      <point x="524" y="696"/>
      <point x="509" y="731"/>
      <point x="483" y="745" type="curve"/>
      <point x="379" y="739" type="line"/>
      <point x="396" y="733"/>
      <point x="399" y="715"/>
      <point x="399" y="669" type="curve" smooth="yes"/>
      <point x="399" y="552"/>
      <point x="439" y="493"/>
    </contour>
  </outline>
</glyph>
<glyph name="ddasinh" format="2">
  <advance width="946"/>
  <unicode hex="0DA9"/>
  <outline>
    <contour>
      <point x="649" y="-11" type="curve" smooth="yes"/>
      <point x="800" y="-11"/>
      <point x="913" y="86"/>
      <point x="913" y="350" type="curve" smooth="yes"/>
      <point x="913" y="678"/>
      <point x="730" y="836"/>
      <point x="448" y="836" type="curve" smooth="yes"/>
      <point x="279" y="836"/>
      <point x="162" y="799"/>
      <point x="58" y="752" type="curve"/>
      <point x="117" y="628" type="line"/>
      <point x="203" y="672"/>
      <point x="306" y="701"/>
      <point x="438" y="701" type="curve" smooth="yes"/>
      <point x="664" y="701"/>
      <point x="766" y="562"/>
      <point x="766" y="363" type="curve" smooth="yes"/>
      <point x="766" y="233"/>
      <point x="729" y="165"/>
      <point x="648" y="165" type="curve" smooth="yes"/>
      <point x="589" y="165"/>
      <point x="540" y="187"/>
      <point x="540" y="259" type="curve" smooth="yes"/>
      <point x="540" y="263" type="line"/>
      <point x="406" y="263" type="line"/>
      <point x="406" y="260" type="line" smooth="yes"/>
      <point x="406" y="191"/>
      <point x="361" y="165"/>
      <point x="293" y="165" type="curve" smooth="yes"/>
      <point x="227" y="165"/>
      <point x="189" y="189"/>
      <point x="189" y="241" type="curve" smooth="yes"/>
      <point x="189" y="276"/>
      <point x="205" y="297"/>
      <point x="230" y="310" type="curve" smooth="yes"/>
      <point x="256" y="324"/>
      <point x="299" y="330"/>
      <point x="383" y="330" type="curve" smooth="yes"/>
      <point x="471" y="330" type="line"/>
      <point x="471" y="377" type="line" smooth="yes"/>
      <point x="471" y="518"/>
      <point x="418" y="622"/>
      <point x="269" y="622" type="curve" smooth="yes"/>
      <point x="172" y="622"/>
      <point x="107" y="582"/>
      <point x="107" y="490" type="curve" smooth="yes"/>
      <point x="107" y="485"/>
      <point x="107" y="476"/>
      <point x="108" y="469" type="curve"/>
      <point x="254" y="473" type="line"/>
      <point x="254" y="474"/>
      <point x="254" y="474"/>
      <point x="254" y="475" type="curve" smooth="yes"/>
      <point x="254" y="486"/>
      <point x="262" y="501"/>
      <point x="285" y="501" type="curve" smooth="yes"/>
      <point x="314" y="501"/>
      <point x="323" y="477"/>
      <point x="326" y="455" type="curve"/>
      <point x="24" y="455" type="line"/>
      <point x="24" y="330" type="line"/>
      <point x="52" y="330" type="line" smooth="yes"/>
      <point x="105" y="330"/>
      <point x="163" y="339"/>
      <point x="186" y="342" type="curve"/>
      <point x="135" y="358" type="line"/>
      <point x="87" y="326"/>
      <point x="49" y="276"/>
      <point x="49" y="192" type="curve" smooth="yes"/>
      <point x="49" y="69"/>
      <point x="134" y="-11"/>
      <point x="286" y="-11" type="curve" smooth="yes"/>
      <point x="383" y="-11"/>
      <point x="429" y="22"/>
      <point x="475" y="72" type="curve"/>
      <point x="517" y="24"/>
      <point x="563" y="-11"/>
    </contour>
  </outline>
</glyph>
<glyph name="ddhasinh" format="2">
  <advance width="946"/>
  <unicode hex="0DAA"/>
  <outline>
    <contour>
      <point x="649" y="-11" type="curve" smooth="yes"/>
      <point x="800" y="-11"/>
      <point x="913" y="86"/>
      <point x="913" y="333" type="curve" smooth="yes"/>
      <point x="913" y="681"/>
      <point x="661" y="812"/>
      <point x="481" y="867" type="curve"/>
      <point x="408" y="739" type="line"/>
      <point x="431" y="738"/>
      <point x="450" y="734"/>
      <point x="474" y="725" type="curve" smooth="yes"/>
      <point x="611" y="672"/>
      <point x="766" y="578"/>
      <point x="766" y="334" type="curve" smooth="yes"/>
      <point x="766" y="234"/>
      <point x="729" y="165"/>
      <point x="648" y="165" type="curve" smooth="yes"/>
      <point x="589" y="165"/>
      <point x="540" y="187"/>
      <point x="540" y="259" type="curve" smooth="yes"/>
      <point x="540" y="263" type="line"/>
      <point x="406" y="263" type="line"/>
      <point x="406" y="260" type="line" smooth="yes"/>
      <point x="406" y="191"/>
      <point x="361" y="165"/>
      <point x="293" y="165" type="curve" smooth="yes"/>
      <point x="227" y="165"/>
      <point x="189" y="189"/>
      <point x="189" y="241" type="curve" smooth="yes"/>
      <point x="189" y="276"/>
      <point x="205" y="297"/>
      <point x="230" y="310" type="curve" smooth="yes"/>
      <point x="256" y="324"/>
      <point x="299" y="330"/>
      <point x="383" y="330" type="curve" smooth="yes"/>
      <point x="471" y="330" type="line"/>
      <point x="471" y="377" type="line" smooth="yes"/>
      <point x="471" y="518"/>
      <point x="418" y="622"/>
      <point x="269" y="622" type="curve" smooth="yes"/>
      <point x="172" y="622"/>
      <point x="107" y="582"/>
      <point x="107" y="490" type="curve" smooth="yes"/>
      <point x="107" y="485"/>
      <point x="107" y="476"/>
      <point x="108" y="469" type="curve"/>
      <point x="254" y="473" type="line"/>
      <point x="254" y="474"/>
      <point x="254" y="474"/>
      <point x="254" y="475" type="curve" smooth="yes"/>
      <point x="254" y="486"/>
      <point x="262" y="501"/>
      <point x="285" y="501" type="curve" smooth="yes"/>
      <point x="314" y="501"/>
      <point x="323" y="477"/>
      <point x="326" y="455" type="curve"/>
      <point x="24" y="455" type="line"/>
      <point x="24" y="330" type="line"/>
      <point x="52" y="330" type="line" smooth="yes"/>
      <point x="105" y="330"/>
      <point x="163" y="339"/>
      <point x="186" y="342" type="curve"/>
      <point x="135" y="358" type="line"/>
      <point x="87" y="326"/>
      <point x="49" y="276"/>
      <point x="49" y="192" type="curve" smooth="yes"/>
      <point x="49" y="69"/>
      <point x="134" y="-11"/>
      <point x="286" y="-11" type="curve" smooth="yes"/>
      <point x="383" y="-11"/>
      <point x="429" y="22"/>
      <point x="475" y="72" type="curve"/>
      <point x="516" y="24"/>
      <point x="563" y="-11"/>
    </contour>
    <contour>
      <point x="577" y="493" type="curve" smooth="yes"/>
      <point x="660" y="493"/>
      <point x="704" y="532"/>
      <point x="751" y="600" type="curve"/>
      <point x="651" y="667" type="line"/>
      <point x="631" y="635"/>
      <point x="618" y="613"/>
      <point x="590" y="613" type="curve" smooth="yes"/>
      <point x="567" y="613"/>
      <point x="555" y="624"/>
      <point x="554" y="656" type="curve" smooth="yes"/>
      <point x="553" y="696"/>
      <point x="538" y="731"/>
      <point x="512" y="745" type="curve"/>
      <point x="408" y="739" type="line"/>
      <point x="425" y="733"/>
      <point x="428" y="715"/>
      <point x="428" y="669" type="curve" smooth="yes"/>
      <point x="428" y="552"/>
      <point x="468" y="493"/>
    </contour>
  </outline>
</glyph>
<glyph name="nnasinh" format="2">
  <advance width="1299"/>
  <unicode hex="0DAB"/>
  <outline>
    <contour>
      <point x="823" y="745" type="curve"/>
      <point x="726" y="852" type="line"/>
      <point x="596" y="732"/>
      <point x="503" y="641"/>
      <point x="410" y="549" type="curve"/>
      <point x="365" y="504" type="line"/>
      <point x="235" y="388"/>
      <point x="111" y="259"/>
      <point x="-7" y="143" type="curve"/>
      <point x="102" y="54" type="line"/>
      <point x="146" y="107"/>
      <point x="199" y="167"/>
      <point x="265" y="232" type="curve"/>
      <point x="273" y="257" type="line"/>
      <point x="401" y="380"/>
      <point x="699" y="642"/>
    </contour>
    <contour>
      <point x="438" y="-11" type="curve" smooth="yes"/>
      <point x="669" y="-11"/>
      <point x="824" y="74"/>
      <point x="824" y="319" type="curve" smooth="yes"/>
      <point x="824" y="442"/>
      <point x="758" y="561"/>
      <point x="573" y="603" type="curve"/>
      <point x="534" y="612" type="line"/>
      <point x="495" y="618"/>
      <point x="451" y="622"/>
      <point x="389" y="622" type="curve" smooth="yes"/>
      <point x="154" y="622"/>
      <point x="63" y="530"/>
      <point x="63" y="425" type="curve" smooth="yes"/>
      <point x="63" y="294"/>
      <point x="198" y="198"/>
      <point x="411" y="198" type="curve" smooth="yes"/>
      <point x="572" y="198"/>
      <point x="623" y="262"/>
      <point x="623" y="342" type="curve" smooth="yes"/>
      <point x="623" y="416"/>
      <point x="568" y="461"/>
      <point x="478" y="461" type="curve" smooth="yes"/>
      <point x="409" y="461"/>
      <point x="356" y="430"/>
      <point x="356" y="365" type="curve" smooth="yes"/>
      <point x="356" y="343"/>
      <point x="363" y="309"/>
      <point x="380" y="292" type="curve"/>
      <point x="474" y="292" type="line"/>
      <point x="455" y="302"/>
      <point x="441" y="316"/>
      <point x="441" y="340" type="curve" smooth="yes"/>
      <point x="441" y="354"/>
      <point x="452" y="366"/>
      <point x="473" y="366" type="curve" smooth="yes"/>
      <point x="493" y="366"/>
      <point x="502" y="356"/>
      <point x="502" y="340" type="curve" smooth="yes"/>
      <point x="502" y="316"/>
      <point x="476" y="311"/>
      <point x="442" y="311" type="curve" smooth="yes"/>
      <point x="427" y="311"/>
      <point x="417" y="311"/>
      <point x="405" y="310" type="curve"/>
      <point x="384" y="304" type="line"/>
      <point x="323" y="304"/>
      <point x="297" y="318"/>
      <point x="267" y="328" type="curve"/>
      <point x="252" y="337" type="line"/>
      <point x="220" y="356"/>
      <point x="200" y="371"/>
      <point x="200" y="411" type="curve" smooth="yes"/>
      <point x="200" y="473"/>
      <point x="253" y="501"/>
      <point x="426" y="501" type="curve" smooth="yes"/>
      <point x="640" y="501"/>
      <point x="684" y="413"/>
      <point x="684" y="329" type="curve" smooth="yes"/>
      <point x="684" y="218"/>
      <point x="609" y="149"/>
      <point x="426" y="149" type="curve" smooth="yes"/>
      <point x="320" y="149"/>
      <point x="224" y="172"/>
      <point x="125" y="250" type="curve"/>
      <point x="45" y="150" type="line"/>
      <point x="172" y="44"/>
      <point x="290" y="-11"/>
    </contour>
    <contour>
      <point x="1048" y="-11" type="curve" smooth="yes"/>
      <point x="1179" y="-11"/>
      <point x="1267" y="65"/>
      <point x="1267" y="296" type="curve" smooth="yes"/>
      <point x="1267" y="521"/>
      <point x="1157" y="566"/>
      <point x="1083" y="566" type="curve" smooth="yes"/>
      <point x="1015" y="566"/>
      <point x="968" y="543"/>
      <point x="936" y="497" type="curve"/>
      <point x="908" y="527"/>
      <point x="871" y="539"/>
      <point x="838" y="539" type="curve" smooth="yes"/>
      <point x="760" y="539"/>
      <point x="719" y="491"/>
      <point x="692" y="432" type="curve"/>
      <point x="806" y="362" type="line"/>
      <point x="809" y="394"/>
      <point x="823" y="418"/>
      <point x="844" y="418" type="curve" smooth="yes"/>
      <point x="869" y="418"/>
      <point x="878" y="398"/>
      <point x="878" y="360" type="curve" smooth="yes"/>
      <point x="878" y="322" type="line"/>
      <point x="1021" y="322" type="line"/>
      <point x="1021" y="374" type="line" smooth="yes"/>
      <point x="1021" y="417"/>
      <point x="1030" y="435"/>
      <point x="1055" y="435" type="curve" smooth="yes"/>
      <point x="1083" y="435"/>
      <point x="1097" y="404"/>
      <point x="1097" y="280" type="curve" smooth="yes"/>
      <point x="1097" y="162"/>
      <point x="1079" y="120"/>
      <point x="1029" y="120" type="curve" smooth="yes"/>
      <point x="1002" y="120"/>
      <point x="986" y="134"/>
      <point x="972" y="175" type="curve"/>
      <point x="832" y="125" type="line"/>
      <point x="876" y="29"/>
      <point x="931" y="-11"/>
    </contour>
  </outline>
</glyph>
<glyph name="nnddasinh" format="2">
  <advance width="1129"/>
  <unicode hex="0DAC"/>
  <outline>
    <contour>
      <point x="832" y="-11" type="curve" smooth="yes"/>
      <point x="983" y="-11"/>
      <point x="1096" y="86"/>
      <point x="1096" y="350" type="curve" smooth="yes"/>
      <point x="1096" y="678"/>
      <point x="913" y="836"/>
      <point x="631" y="836" type="curve" smooth="yes"/>
      <point x="467" y="836"/>
      <point x="345" y="799"/>
      <point x="241" y="752" type="curve"/>
      <point x="300" y="628" type="line"/>
      <point x="386" y="672"/>
      <point x="489" y="701"/>
      <point x="621" y="701" type="curve" smooth="yes"/>
      <point x="847" y="701"/>
      <point x="949" y="562"/>
      <point x="949" y="363" type="curve" smooth="yes"/>
      <point x="949" y="233"/>
      <point x="912" y="165"/>
      <point x="831" y="165" type="curve" smooth="yes"/>
      <point x="772" y="165"/>
      <point x="723" y="187"/>
      <point x="723" y="259" type="curve" smooth="yes"/>
      <point x="723" y="263" type="line"/>
      <point x="589" y="263" type="line"/>
      <point x="589" y="260" type="line" smooth="yes"/>
      <point x="589" y="191"/>
      <point x="544" y="165"/>
      <point x="476" y="165" type="curve" smooth="yes"/>
      <point x="410" y="165"/>
      <point x="372" y="189"/>
      <point x="372" y="241" type="curve" smooth="yes"/>
      <point x="372" y="276"/>
      <point x="388" y="297"/>
      <point x="413" y="310" type="curve" smooth="yes"/>
      <point x="439" y="324"/>
      <point x="482" y="330"/>
      <point x="566" y="330" type="curve" smooth="yes"/>
      <point x="665" y="330" type="line"/>
      <point x="665" y="377" type="line" smooth="yes"/>
      <point x="665" y="518"/>
      <point x="612" y="622"/>
      <point x="463" y="622" type="curve" smooth="yes"/>
      <point x="366" y="622"/>
      <point x="301" y="582"/>
      <point x="301" y="490" type="curve" smooth="yes"/>
      <point x="301" y="485"/>
      <point x="301" y="476"/>
      <point x="302" y="469" type="curve"/>
      <point x="448" y="473" type="line"/>
      <point x="448" y="474"/>
      <point x="448" y="474"/>
      <point x="448" y="475" type="curve" smooth="yes"/>
      <point x="448" y="486"/>
      <point x="456" y="501"/>
      <point x="479" y="501" type="curve" smooth="yes"/>
      <point x="508" y="501"/>
      <point x="517" y="477"/>
      <point x="520" y="455" type="curve"/>
      <point x="216" y="455" type="line"/>
      <point x="216" y="330" type="line"/>
      <point x="235" y="330" type="line" smooth="yes"/>
      <point x="288" y="330"/>
      <point x="346" y="339"/>
      <point x="369" y="342" type="curve"/>
      <point x="318" y="358" type="line"/>
      <point x="270" y="326"/>
      <point x="232" y="276"/>
      <point x="232" y="192" type="curve" smooth="yes"/>
      <point x="232" y="69"/>
      <point x="317" y="-11"/>
      <point x="469" y="-11" type="curve" smooth="yes"/>
      <point x="566" y="-11"/>
      <point x="612" y="22"/>
      <point x="658" y="72" type="curve"/>
      <point x="700" y="24"/>
      <point x="746" y="-11"/>
    </contour>
    <contour>
      <point x="28" y="323" type="curve" smooth="yes"/>
      <point x="28" y="230"/>
      <point x="56" y="150"/>
      <point x="89" y="83" type="curve"/>
      <point x="209" y="137" type="line"/>
      <point x="184" y="190"/>
      <point x="168" y="238"/>
      <point x="168" y="310" type="curve" smooth="yes"/>
      <point x="168" y="444"/>
      <point x="244" y="505"/>
      <point x="369" y="505" type="curve" smooth="yes"/>
      <point x="391" y="505"/>
      <point x="420" y="503"/>
      <point x="432" y="502" type="curve"/>
      <point x="523" y="600" type="line"/>
      <point x="481" y="613"/>
      <point x="432" y="622"/>
      <point x="389" y="622" type="curve" smooth="yes"/>
      <point x="168" y="622"/>
      <point x="28" y="526"/>
    </contour>
  </outline>
</glyph>
<glyph name="tasinh" format="2">
  <advance width="1029"/>
  <unicode hex="0DAD"/>
  <outline>
    <contour>
      <point x="427" y="-11" type="curve" smooth="yes"/>
      <point x="666" y="-11"/>
      <point x="705" y="121"/>
      <point x="705" y="228" type="curve" smooth="yes"/>
      <point x="705" y="339"/>
      <point x="648" y="446"/>
      <point x="464" y="446" type="curve" smooth="yes"/>
      <point x="423" y="446"/>
      <point x="351" y="433"/>
      <point x="340" y="427" type="curve"/>
      <point x="253" y="309" type="line"/>
      <point x="302" y="323"/>
      <point x="366" y="329"/>
      <point x="420" y="329" type="curve" smooth="yes"/>
      <point x="545" y="329"/>
      <point x="565" y="280"/>
      <point x="565" y="245" type="curve" smooth="yes"/>
      <point x="565" y="185"/>
      <point x="516" y="167"/>
      <point x="428" y="167" type="curve" smooth="yes"/>
      <point x="306" y="167"/>
      <point x="290" y="204"/>
      <point x="290" y="240" type="curve" smooth="yes"/>
      <point x="290" y="250"/>
      <point x="290" y="255"/>
      <point x="291" y="266" type="curve"/>
      <point x="173" y="274" type="line"/>
      <point x="167" y="248"/>
      <point x="164" y="228"/>
      <point x="164" y="199" type="curve" smooth="yes"/>
      <point x="164" y="83"/>
      <point x="231" y="-11"/>
    </contour>
    <contour>
      <point x="722" y="-2" type="curve" smooth="yes"/>
      <point x="893" y="-2"/>
      <point x="1001" y="95"/>
      <point x="1001" y="282" type="curve" smooth="yes"/>
      <point x="1001" y="480"/>
      <point x="884" y="622"/>
      <point x="650" y="622" type="curve" smooth="yes"/>
      <point x="503" y="622"/>
      <point x="404" y="581"/>
      <point x="293" y="494" type="curve"/>
      <point x="261" y="463" type="line"/>
      <point x="197" y="404"/>
      <point x="109" y="310"/>
      <point x="14" y="185" type="curve"/>
      <point x="140" y="107" type="line"/>
      <point x="179" y="175" type="line"/>
      <point x="201" y="198" type="line"/>
      <point x="248" y="262"/>
      <point x="313" y="334"/>
      <point x="358" y="375" type="curve"/>
      <point x="398" y="432" type="line"/>
      <point x="466" y="459"/>
      <point x="521" y="478"/>
      <point x="635" y="478" type="curve" smooth="yes"/>
      <point x="799" y="478"/>
      <point x="856" y="384"/>
      <point x="856" y="281" type="curve" smooth="yes"/>
      <point x="856" y="196"/>
      <point x="815" y="133"/>
      <point x="709" y="133" type="curve" smooth="yes"/>
      <point x="700" y="133"/>
      <point x="698" y="133"/>
      <point x="693" y="134" type="curve"/>
      <point x="688" y="0" type="line"/>
      <point x="696" y="-1"/>
      <point x="707" y="-2"/>
    </contour>
    <contour>
      <point x="192" y="599" type="curve" smooth="yes"/>
      <point x="77" y="599"/>
      <point x="17" y="541"/>
      <point x="17" y="452" type="curve" smooth="yes"/>
      <point x="17" y="434"/>
      <point x="20" y="398"/>
      <point x="28" y="371" type="curve"/>
      <point x="173" y="399" type="line"/>
      <point x="170" y="412"/>
      <point x="167" y="430"/>
      <point x="167" y="443" type="curve" smooth="yes"/>
      <point x="167" y="459"/>
      <point x="172" y="478"/>
      <point x="196" y="478" type="curve" smooth="yes"/>
      <point x="214" y="478"/>
      <point x="227" y="463"/>
      <point x="238" y="421" type="curve"/>
      <point x="379" y="445" type="line"/>
      <point x="348" y="549"/>
      <point x="291" y="599"/>
    </contour>
  </outline>
</glyph>
<glyph name="thasinh" format="2">
  <advance width="856"/>
  <unicode hex="0DAE"/>
  <outline>
    <contour>
      <point x="368" y="-11" type="curve" smooth="yes"/>
      <point x="713" y="-11"/>
      <point x="828" y="197"/>
      <point x="828" y="422" type="curve" smooth="yes"/>
      <point x="828" y="685"/>
      <point x="647" y="806"/>
      <point x="452" y="867" type="curve"/>
      <point x="379" y="739" type="line"/>
      <point x="402" y="737"/>
      <point x="427" y="735"/>
      <point x="448" y="727" type="curve" smooth="yes"/>
      <point x="583" y="675"/>
      <point x="681" y="589"/>
      <point x="681" y="424" type="curve" smooth="yes"/>
      <point x="681" y="262"/>
      <point x="548" y="172"/>
      <point x="361" y="172" type="curve" smooth="yes"/>
      <point x="213" y="172"/>
      <point x="170" y="211"/>
      <point x="170" y="269" type="curve" smooth="yes"/>
      <point x="170" y="334"/>
      <point x="229" y="356"/>
      <point x="338" y="356" type="curve" smooth="yes"/>
      <point x="381" y="356"/>
      <point x="415" y="354"/>
      <point x="446" y="351" type="curve"/>
      <point x="454" y="485" type="line"/>
      <point x="426" y="488"/>
      <point x="385" y="491"/>
      <point x="335" y="491" type="curve" smooth="yes"/>
      <point x="130" y="491"/>
      <point x="28" y="407"/>
      <point x="28" y="249" type="curve" smooth="yes"/>
      <point x="28" y="94"/>
      <point x="137" y="-11"/>
    </contour>
    <contour>
      <point x="548" y="493" type="curve" smooth="yes"/>
      <point x="631" y="493"/>
      <point x="675" y="532"/>
      <point x="722" y="600" type="curve"/>
      <point x="622" y="667" type="line"/>
      <point x="602" y="635"/>
      <point x="589" y="613"/>
      <point x="561" y="613" type="curve" smooth="yes"/>
      <point x="538" y="613"/>
      <point x="526" y="624"/>
      <point x="525" y="656" type="curve" smooth="yes"/>
      <point x="524" y="696"/>
      <point x="509" y="731"/>
      <point x="483" y="745" type="curve"/>
      <point x="379" y="739" type="line"/>
      <point x="396" y="733"/>
      <point x="399" y="719"/>
      <point x="399" y="669" type="curve" smooth="yes"/>
      <point x="399" y="552"/>
      <point x="439" y="493"/>
    </contour>
  </outline>
</glyph>
<glyph name="dasinh" format="2">
  <advance width="640"/>
  <unicode hex="0DAF"/>
  <outline>
    <contour>
      <point x="363" y="-11" type="curve" smooth="yes"/>
      <point x="487" y="-11"/>
      <point x="559" y="2"/>
      <point x="634" y="31" type="curve"/>
      <point x="602" y="162" type="line"/>
      <point x="532" y="140"/>
      <point x="476" y="129"/>
      <point x="398" y="129" type="curve" smooth="yes"/>
      <point x="263" y="129"/>
      <point x="203" y="154"/>
      <point x="203" y="229" type="curve" smooth="yes"/>
      <point x="203" y="268"/>
      <point x="220" y="291"/>
      <point x="246" y="305" type="curve" smooth="yes"/>
      <point x="284" y="326"/>
      <point x="339" y="330"/>
      <point x="450" y="330" type="curve" smooth="yes"/>
      <point x="616" y="330" type="line"/>
      <point x="616" y="371" type="line" smooth="yes"/>
      <point x="616" y="514"/>
      <point x="563" y="622"/>
      <point x="410" y="622" type="curve" smooth="yes"/>
      <point x="305" y="622"/>
      <point x="238" y="582"/>
      <point x="238" y="491" type="curve" smooth="yes"/>
      <point x="238" y="483"/>
      <point x="238" y="469"/>
      <point x="240" y="457" type="curve"/>
      <point x="384" y="468" type="line"/>
      <point x="384" y="469"/>
      <point x="384" y="470"/>
      <point x="384" y="471" type="curve" smooth="yes"/>
      <point x="384" y="489"/>
      <point x="396" y="501"/>
      <point x="424" y="501" type="curve" smooth="yes"/>
      <point x="458" y="501"/>
      <point x="467" y="478"/>
      <point x="470" y="455" type="curve"/>
      <point x="435" y="455" type="line" smooth="yes"/>
      <point x="295" y="455"/>
      <point x="219" y="444"/>
      <point x="152" y="415" type="curve" smooth="yes"/>
      <point x="72" y="380"/>
      <point x="25" y="321"/>
      <point x="25" y="224" type="curve" smooth="yes"/>
      <point x="25" y="72"/>
      <point x="136" y="-11"/>
    </contour>
    <contour>
      <point x="516" y="-271" type="curve" smooth="yes"/>
      <point x="575" y="-271"/>
      <point x="607" y="-266"/>
      <point x="655" y="-248" type="curve"/>
      <point x="618" y="-126" type="line"/>
      <point x="593" y="-135"/>
      <point x="573" y="-140"/>
      <point x="551" y="-140" type="curve" smooth="yes"/>
      <point x="514" y="-140"/>
      <point x="488" y="-129"/>
      <point x="488" y="-86" type="curve" smooth="yes"/>
      <point x="488" y="-44"/>
      <point x="512" y="3"/>
      <point x="598" y="56" type="curve"/>
      <point x="581" y="109" type="line"/>
      <point x="523" y="94" type="line"/>
      <point x="378" y="41"/>
      <point x="332" y="-40"/>
      <point x="332" y="-116" type="curve" smooth="yes"/>
      <point x="332" y="-219"/>
      <point x="394" y="-271"/>
    </contour>
  </outline>
</glyph>
<glyph name="dhasinh" format="2">
  <advance width="917"/>
  <unicode hex="0DB0"/>
  <outline>
    <contour>
      <point x="620" y="-11" type="curve" smooth="yes"/>
      <point x="771" y="-11"/>
      <point x="884" y="86"/>
      <point x="884" y="352" type="curve" smooth="yes"/>
      <point x="884" y="678"/>
      <point x="701" y="836"/>
      <point x="419" y="836" type="curve" smooth="yes"/>
      <point x="261" y="836"/>
      <point x="150" y="799"/>
      <point x="46" y="752" type="curve"/>
      <point x="105" y="628" type="line"/>
      <point x="191" y="672"/>
      <point x="294" y="701"/>
      <point x="415" y="701" type="curve" smooth="yes"/>
      <point x="635" y="701"/>
      <point x="737" y="562"/>
      <point x="737" y="363" type="curve" smooth="yes"/>
      <point x="737" y="233"/>
      <point x="700" y="165"/>
      <point x="619" y="165" type="curve" smooth="yes"/>
      <point x="560" y="165"/>
      <point x="511" y="187"/>
      <point x="511" y="259" type="curve" smooth="yes"/>
      <point x="511" y="263" type="line"/>
      <point x="377" y="263" type="line"/>
      <point x="377" y="257" type="line" smooth="yes"/>
      <point x="377" y="191"/>
      <point x="335" y="165"/>
      <point x="268" y="165" type="curve" smooth="yes"/>
      <point x="203" y="165"/>
      <point x="170" y="192"/>
      <point x="170" y="247" type="curve" smooth="yes"/>
      <point x="170" y="321"/>
      <point x="225" y="356"/>
      <point x="348" y="356" type="curve" smooth="yes"/>
      <point x="373" y="356"/>
      <point x="428" y="353"/>
      <point x="448" y="351" type="curve"/>
      <point x="457" y="485" type="line"/>
      <point x="427" y="488"/>
      <point x="394" y="491"/>
      <point x="338" y="491" type="curve" smooth="yes"/>
      <point x="117" y="491"/>
      <point x="28" y="377"/>
      <point x="28" y="234" type="curve" smooth="yes"/>
      <point x="28" y="69"/>
      <point x="127" y="-11"/>
      <point x="259" y="-11" type="curve" smooth="yes"/>
      <point x="353" y="-11"/>
      <point x="401" y="22"/>
      <point x="446" y="72" type="curve"/>
      <point x="487" y="24"/>
      <point x="534" y="-11"/>
    </contour>
  </outline>
</glyph>
<glyph name="nasinh" format="2">
  <advance width="996"/>
  <unicode hex="0DB1"/>
  <outline>
    <contour>
      <point x="386" y="-11" type="curve" smooth="yes"/>
      <point x="628" y="-11"/>
      <point x="683" y="128"/>
      <point x="683" y="230" type="curve" smooth="yes"/>
      <point x="683" y="357"/>
      <point x="620" y="445"/>
      <point x="452" y="445" type="curve" smooth="yes"/>
      <point x="399" y="445"/>
      <point x="334" y="425"/>
      <point x="292" y="389" type="curve"/>
      <point x="272" y="296" type="line"/>
      <point x="323" y="313"/>
      <point x="379" y="329"/>
      <point x="424" y="329" type="curve" smooth="yes"/>
      <point x="522" y="329"/>
      <point x="543" y="294"/>
      <point x="543" y="256" type="curve" smooth="yes"/>
      <point x="543" y="196"/>
      <point x="489" y="166"/>
      <point x="389" y="166" type="curve" smooth="yes"/>
      <point x="286" y="166"/>
      <point x="195" y="192"/>
      <point x="142" y="321" type="curve"/>
      <point x="18" y="295" type="line"/>
      <point x="71" y="84"/>
      <point x="194" y="-11"/>
    </contour>
    <contour>
      <point x="707" y="-2" type="curve" smooth="yes"/>
      <point x="856" y="-2"/>
      <point x="968" y="86"/>
      <point x="968" y="287" type="curve" smooth="yes"/>
      <point x="968" y="485"/>
      <point x="846" y="622"/>
      <point x="622" y="622" type="curve" smooth="yes"/>
      <point x="485" y="622"/>
      <point x="395" y="563"/>
      <point x="320" y="462" type="curve"/>
      <point x="300" y="441" type="line"/>
      <point x="272" y="327"/>
      <point x="216" y="299"/>
      <point x="159" y="299" type="curve" smooth="yes"/>
      <point x="133" y="299"/>
      <point x="117" y="300"/>
      <point x="101" y="303" type="curve"/>
      <point x="86" y="202" type="line"/>
      <point x="105" y="199"/>
      <point x="139" y="194"/>
      <point x="169" y="194" type="curve" smooth="yes"/>
      <point x="290" y="194"/>
      <point x="380" y="231"/>
      <point x="406" y="352" type="curve"/>
      <point x="433" y="403" type="line"/>
      <point x="469" y="444"/>
      <point x="518" y="478"/>
      <point x="612" y="478" type="curve" smooth="yes"/>
      <point x="737" y="478"/>
      <point x="823" y="403"/>
      <point x="823" y="284" type="curve" smooth="yes"/>
      <point x="823" y="190"/>
      <point x="779" y="133"/>
      <point x="678" y="133" type="curve" smooth="yes"/>
      <point x="674" y="133"/>
      <point x="671" y="133"/>
      <point x="667" y="133" type="curve"/>
      <point x="664" y="-1" type="line"/>
      <point x="677" y="-2"/>
      <point x="689" y="-2"/>
    </contour>
    <contour>
      <point x="239" y="599" type="curve" smooth="yes"/>
      <point x="124" y="599"/>
      <point x="64" y="541"/>
      <point x="64" y="452" type="curve" smooth="yes"/>
      <point x="64" y="435"/>
      <point x="67" y="398"/>
      <point x="75" y="371" type="curve"/>
      <point x="220" y="399" type="line"/>
      <point x="217" y="413"/>
      <point x="214" y="432"/>
      <point x="214" y="443" type="curve" smooth="yes"/>
      <point x="214" y="459"/>
      <point x="219" y="478"/>
      <point x="243" y="478" type="curve" smooth="yes"/>
      <point x="261" y="478"/>
      <point x="276" y="467"/>
      <point x="290" y="398" type="curve"/>
      <point x="421" y="446" type="line"/>
      <point x="384" y="552"/>
      <point x="338" y="599"/>
    </contour>
  </outline>
</glyph>
<glyph name="ndasinh" format="2">
  <advance width="816"/>
  <unicode hex="0DB3"/>
  <outline>
    <contour>
      <point x="547" y="-11" type="curve" smooth="yes"/>
      <point x="667" y="-11"/>
      <point x="737" y="2"/>
      <point x="810" y="31" type="curve"/>
      <point x="778" y="162" type="line"/>
      <point x="711" y="140"/>
      <point x="658" y="129"/>
      <point x="583" y="129" type="curve" smooth="yes"/>
      <point x="454" y="129"/>
      <point x="395" y="154"/>
      <point x="395" y="229" type="curve" smooth="yes"/>
      <point x="395" y="268"/>
      <point x="411" y="291"/>
      <point x="436" y="305" type="curve" smooth="yes"/>
      <point x="472" y="326"/>
      <point x="525" y="330"/>
      <point x="644" y="330" type="curve" smooth="yes"/>
      <point x="792" y="330" type="line"/>
      <point x="792" y="371" type="line" smooth="yes"/>
      <point x="792" y="514"/>
      <point x="739" y="622"/>
      <point x="586" y="622" type="curve" smooth="yes"/>
      <point x="481" y="622"/>
      <point x="414" y="565"/>
      <point x="414" y="491" type="curve" smooth="yes"/>
      <point x="414" y="483"/>
      <point x="414" y="469"/>
      <point x="416" y="457" type="curve"/>
      <point x="560" y="468" type="line"/>
      <point x="560" y="469"/>
      <point x="560" y="470"/>
      <point x="560" y="471" type="curve" smooth="yes"/>
      <point x="560" y="489"/>
      <point x="572" y="501"/>
      <point x="600" y="501" type="curve" smooth="yes"/>
      <point x="634" y="501"/>
      <point x="643" y="478"/>
      <point x="646" y="455" type="curve"/>
      <point x="618" y="455" type="line" smooth="yes"/>
      <point x="488" y="455"/>
      <point x="405" y="444"/>
      <point x="341" y="415" type="curve" smooth="yes"/>
      <point x="264" y="380"/>
      <point x="219" y="321"/>
      <point x="219" y="224" type="curve" smooth="yes"/>
      <point x="219" y="72"/>
      <point x="327" y="-11"/>
    </contour>
    <contour>
      <point x="692" y="-271" type="curve" smooth="yes"/>
      <point x="751" y="-271"/>
      <point x="783" y="-266"/>
      <point x="831" y="-248" type="curve"/>
      <point x="794" y="-126" type="line"/>
      <point x="769" y="-135"/>
      <point x="749" y="-140"/>
      <point x="727" y="-140" type="curve" smooth="yes"/>
      <point x="690" y="-140"/>
      <point x="664" y="-129"/>
      <point x="664" y="-86" type="curve" smooth="yes"/>
      <point x="664" y="-44"/>
      <point x="688" y="3"/>
      <point x="774" y="56" type="curve"/>
      <point x="757" y="109" type="line"/>
      <point x="699" y="94" type="line"/>
      <point x="554" y="41"/>
      <point x="508" y="-40"/>
      <point x="508" y="-116" type="curve" smooth="yes"/>
      <point x="508" y="-219"/>
      <point x="570" y="-271"/>
    </contour>
    <contour>
      <point x="28" y="323" type="curve" smooth="yes"/>
      <point x="28" y="230"/>
      <point x="56" y="150"/>
      <point x="89" y="83" type="curve"/>
      <point x="209" y="137" type="line"/>
      <point x="184" y="190"/>
      <point x="168" y="238"/>
      <point x="168" y="310" type="curve" smooth="yes"/>
      <point x="168" y="413"/>
      <point x="230" y="504"/>
      <point x="402" y="504" type="curve" smooth="yes"/>
      <point x="423" y="504"/>
      <point x="455" y="502"/>
      <point x="472" y="499" type="curve"/>
      <point x="534" y="610" type="line"/>
      <point x="493" y="617"/>
      <point x="455" y="622"/>
      <point x="379" y="622" type="curve" smooth="yes"/>
      <point x="169" y="622"/>
      <point x="28" y="526"/>
    </contour>
  </outline>
</glyph>
<glyph name="pasinh" format="2">
  <advance width="854"/>
  <unicode hex="0DB4"/>
  <outline>
    <contour>
      <point x="427" y="-11" type="curve" smooth="yes"/>
      <point x="715" y="-11"/>
      <point x="826" y="88"/>
      <point x="826" y="244" type="curve" smooth="yes"/>
      <point x="826" y="383"/>
      <point x="738" y="455"/>
      <point x="566" y="455" type="curve" smooth="yes"/>
      <point x="559" y="455" type="line"/>
      <point x="586" y="452" type="line"/>
      <point x="589" y="478"/>
      <point x="598" y="501"/>
      <point x="627" y="501" type="curve" smooth="yes"/>
      <point x="650" y="501"/>
      <point x="659" y="483"/>
      <point x="659" y="466" type="curve" smooth="yes"/>
      <point x="659" y="462"/>
      <point x="659" y="459"/>
      <point x="659" y="458" type="curve"/>
      <point x="801" y="443" type="line"/>
      <point x="804" y="458"/>
      <point x="805" y="478"/>
      <point x="805" y="490" type="curve" smooth="yes"/>
      <point x="805" y="582"/>
      <point x="740" y="622"/>
      <point x="643" y="622" type="curve" smooth="yes"/>
      <point x="494" y="622"/>
      <point x="441" y="518"/>
      <point x="441" y="377" type="curve" smooth="yes"/>
      <point x="441" y="330" type="line"/>
      <point x="503" y="330" type="line" smooth="yes"/>
      <point x="588" y="330"/>
      <point x="634" y="329"/>
      <point x="659" y="313" type="curve"/>
      <point x="677" y="303"/>
      <point x="686" y="285"/>
      <point x="686" y="265" type="curve" smooth="yes"/>
      <point x="686" y="204"/>
      <point x="619" y="172"/>
      <point x="426" y="172" type="curve" smooth="yes"/>
      <point x="236" y="172"/>
      <point x="168" y="204"/>
      <point x="168" y="265" type="curve" smooth="yes"/>
      <point x="168" y="285"/>
      <point x="177" y="303"/>
      <point x="195" y="313" type="curve" smooth="yes"/>
      <point x="220" y="329"/>
      <point x="266" y="330"/>
      <point x="351" y="330" type="curve" smooth="yes"/>
      <point x="413" y="330" type="line"/>
      <point x="413" y="377" type="line" smooth="yes"/>
      <point x="413" y="514"/>
      <point x="360" y="622"/>
      <point x="212" y="622" type="curve" smooth="yes"/>
      <point x="114" y="622"/>
      <point x="49" y="582"/>
      <point x="49" y="492" type="curve" smooth="yes"/>
      <point x="49" y="480"/>
      <point x="50" y="460"/>
      <point x="53" y="443" type="curve"/>
      <point x="195" y="458" type="line"/>
      <point x="195" y="459"/>
      <point x="195" y="462"/>
      <point x="195" y="466" type="curve" smooth="yes"/>
      <point x="195" y="483"/>
      <point x="204" y="501"/>
      <point x="227" y="501" type="curve" smooth="yes"/>
      <point x="256" y="501"/>
      <point x="265" y="478"/>
      <point x="268" y="452" type="curve"/>
      <point x="295" y="455" type="line"/>
      <point x="288" y="455" type="line" smooth="yes"/>
      <point x="116" y="455"/>
      <point x="28" y="383"/>
      <point x="28" y="244" type="curve" smooth="yes"/>
      <point x="28" y="92"/>
      <point x="138" y="-11"/>
    </contour>
  </outline>
</glyph>
<glyph name="basinh" format="2">
  <advance width="940"/>
  <unicode hex="0DB6"/>
  <outline>
    <contour>
      <point x="623" y="-11" type="curve" smooth="yes"/>
      <point x="809" y="-11"/>
      <point x="907" y="147"/>
      <point x="907" y="381" type="curve" smooth="yes"/>
      <point x="907" y="640"/>
      <point x="778" y="836"/>
      <point x="435" y="836" type="curve" smooth="yes"/>
      <point x="265" y="836"/>
      <point x="154" y="799"/>
      <point x="50" y="752" type="curve"/>
      <point x="109" y="628" type="line"/>
      <point x="195" y="670"/>
      <point x="303" y="701"/>
      <point x="431" y="701" type="curve" smooth="yes"/>
      <point x="676" y="701"/>
      <point x="760" y="552"/>
      <point x="760" y="383" type="curve" smooth="yes"/>
      <point x="760" y="233"/>
      <point x="710" y="156"/>
      <point x="646" y="156" type="curve" smooth="yes"/>
      <point x="616" y="156"/>
      <point x="603" y="168"/>
      <point x="603" y="193" type="curve" smooth="yes"/>
      <point x="603" y="215"/>
      <point x="610" y="235"/>
      <point x="617" y="258" type="curve" smooth="yes"/>
      <point x="625" y="285"/>
      <point x="638" y="315"/>
      <point x="638" y="363" type="curve" smooth="yes"/>
      <point x="638" y="506"/>
      <point x="533" y="586"/>
      <point x="367" y="586" type="curve" smooth="yes"/>
      <point x="141" y="586"/>
      <point x="28" y="430"/>
      <point x="28" y="257" type="curve" smooth="yes"/>
      <point x="28" y="86"/>
      <point x="124" y="-11"/>
      <point x="269" y="-11" type="curve" smooth="yes"/>
      <point x="387" y="-11"/>
      <point x="444" y="45"/>
      <point x="444" y="139" type="curve" smooth="yes"/>
      <point x="444" y="216"/>
      <point x="403" y="281"/>
      <point x="296" y="281" type="curve" smooth="yes"/>
      <point x="230" y="281"/>
      <point x="174" y="256"/>
      <point x="130" y="213" type="curve"/>
      <point x="175" y="120" type="line"/>
      <point x="201" y="142"/>
      <point x="230" y="164"/>
      <point x="271" y="164" type="curve" smooth="yes"/>
      <point x="295" y="164"/>
      <point x="306" y="152"/>
      <point x="306" y="135" type="curve" smooth="yes"/>
      <point x="306" y="112"/>
      <point x="293" y="108"/>
      <point x="270" y="108" type="curve" smooth="yes"/>
      <point x="228" y="108"/>
      <point x="197" y="122"/>
      <point x="179" y="174" type="curve"/>
      <point x="174" y="183"/>
      <point x="166" y="214"/>
      <point x="166" y="233" type="curve" smooth="yes"/>
      <point x="166" y="323"/>
      <point x="217" y="421"/>
      <point x="350" y="421" type="curve" smooth="yes"/>
      <point x="444" y="421"/>
      <point x="476" y="367"/>
      <point x="476" y="312" type="curve" smooth="yes"/>
      <point x="476" y="284"/>
      <point x="472" y="261"/>
      <point x="464" y="234" type="curve" smooth="yes"/>
      <point x="454" y="201"/>
      <point x="448" y="173"/>
      <point x="448" y="142" type="curve" smooth="yes"/>
      <point x="448" y="33"/>
      <point x="514" y="-11"/>
    </contour>
  </outline>
</glyph>
<glyph name="bhasinh" format="2">
  <advance width="1052"/>
  <unicode hex="0DB7"/>
  <outline>
    <contour>
      <point x="737" y="-2" type="curve" smooth="yes"/>
      <point x="913" y="-2"/>
      <point x="1024" y="101"/>
      <point x="1024" y="309" type="curve" smooth="yes"/>
      <point x="1024" y="477"/>
      <point x="940" y="622"/>
      <point x="743" y="622" type="curve" smooth="yes"/>
      <point x="628" y="622"/>
      <point x="485" y="563"/>
      <point x="429" y="291" type="curve"/>
      <point x="539" y="254" type="line"/>
      <point x="542" y="259"/>
      <point x="548" y="267"/>
      <point x="559" y="267" type="curve" smooth="yes"/>
      <point x="572" y="267"/>
      <point x="578" y="257"/>
      <point x="578" y="244" type="curve" smooth="yes"/>
      <point x="578" y="197"/>
      <point x="513" y="172"/>
      <point x="400" y="172" type="curve" smooth="yes"/>
      <point x="269" y="172"/>
      <point x="206" y="201"/>
      <point x="206" y="261" type="curve" smooth="yes"/>
      <point x="206" y="281"/>
      <point x="213" y="298"/>
      <point x="229" y="309" type="curve" smooth="yes"/>
      <point x="258" y="328"/>
      <point x="294" y="330"/>
      <point x="375" y="330" type="curve" smooth="yes"/>
      <point x="451" y="330" type="line"/>
      <point x="451" y="377" type="line" smooth="yes"/>
      <point x="451" y="514"/>
      <point x="398" y="622"/>
      <point x="250" y="622" type="curve" smooth="yes"/>
      <point x="152" y="622"/>
      <point x="87" y="582"/>
      <point x="87" y="490" type="curve" smooth="yes"/>
      <point x="87" y="485"/>
      <point x="87" y="476"/>
      <point x="88" y="469" type="curve"/>
      <point x="234" y="473" type="line"/>
      <point x="234" y="474"/>
      <point x="234" y="474"/>
      <point x="234" y="475" type="curve" smooth="yes"/>
      <point x="234" y="486"/>
      <point x="242" y="501"/>
      <point x="265" y="501" type="curve" smooth="yes"/>
      <point x="294" y="501"/>
      <point x="303" y="478"/>
      <point x="306" y="455" type="curve"/>
      <point x="24" y="455" type="line"/>
      <point x="24" y="330" type="line"/>
      <point x="50" y="330" type="line" smooth="yes"/>
      <point x="95" y="330"/>
      <point x="127" y="332"/>
      <point x="182" y="343" type="curve"/>
      <point x="166" y="385" type="line"/>
      <point x="92" y="338"/>
      <point x="66" y="292"/>
      <point x="66" y="234" type="curve" smooth="yes"/>
      <point x="66" y="80"/>
      <point x="187" y="-11"/>
      <point x="399" y="-11" type="curve" smooth="yes"/>
      <point x="639" y="-11"/>
      <point x="718" y="105"/>
      <point x="718" y="230" type="curve" smooth="yes"/>
      <point x="718" y="341"/>
      <point x="655" y="386"/>
      <point x="580" y="386" type="curve" smooth="yes"/>
      <point x="563" y="386"/>
      <point x="550" y="383"/>
      <point x="538" y="380" type="curve"/>
      <point x="588" y="370" type="line"/>
      <point x="613" y="406"/>
      <point x="654" y="453"/>
      <point x="736" y="453" type="curve" smooth="yes"/>
      <point x="828" y="453"/>
      <point x="882" y="387"/>
      <point x="882" y="285" type="curve" smooth="yes"/>
      <point x="882" y="186"/>
      <point x="835" y="133"/>
      <point x="728" y="133" type="curve" smooth="yes"/>
      <point x="719" y="133"/>
      <point x="711" y="133"/>
      <point x="704" y="134" type="curve"/>
      <point x="697" y="-1" type="line"/>
      <point x="709" y="-2"/>
      <point x="725" y="-2"/>
    </contour>
  </outline>
</glyph>
<glyph name="masinh" format="2">
  <advance width="912"/>
  <unicode hex="0DB8"/>
  <outline>
    <contour>
      <point x="437" y="-11" type="curve" smooth="yes"/>
      <point x="763" y="-11"/>
      <point x="884" y="172"/>
      <point x="884" y="412" type="curve" smooth="yes"/>
      <point x="884" y="709"/>
      <point x="688" y="836"/>
      <point x="437" y="836" type="curve" smooth="yes"/>
      <point x="285" y="836"/>
      <point x="172" y="801"/>
      <point x="65" y="750" type="curve"/>
      <point x="123" y="623" type="line"/>
      <point x="208" y="669"/>
      <point x="316" y="701"/>
      <point x="437" y="701" type="curve" smooth="yes"/>
      <point x="597" y="701"/>
      <point x="737" y="618"/>
      <point x="737" y="427" type="curve" smooth="yes"/>
      <point x="737" y="257"/>
      <point x="641" y="149"/>
      <point x="439" y="149" type="curve" smooth="yes"/>
      <point x="255" y="149"/>
      <point x="165" y="220"/>
      <point x="165" y="362" type="curve" smooth="yes"/>
      <point x="165" y="416"/>
      <point x="184" y="459"/>
      <point x="211" y="459" type="curve" smooth="yes"/>
      <point x="221" y="459"/>
      <point x="226" y="454"/>
      <point x="226" y="438" type="curve" smooth="yes"/>
      <point x="226" y="415"/>
      <point x="217" y="398"/>
      <point x="217" y="362" type="curve" smooth="yes"/>
      <point x="217" y="279"/>
      <point x="274" y="195"/>
      <point x="442" y="195" type="curve" smooth="yes"/>
      <point x="568" y="195"/>
      <point x="670" y="261"/>
      <point x="670" y="399" type="curve" smooth="yes"/>
      <point x="670" y="514"/>
      <point x="599" y="584"/>
      <point x="503" y="584" type="curve" smooth="yes"/>
      <point x="408" y="584"/>
      <point x="350" y="533"/>
      <point x="350" y="452" type="curve" smooth="yes"/>
      <point x="350" y="370"/>
      <point x="396" y="329"/>
      <point x="483" y="329" type="curve" smooth="yes"/>
      <point x="520" y="329"/>
      <point x="561" y="343"/>
      <point x="591" y="374" type="curve"/>
      <point x="552" y="439" type="line"/>
      <point x="531" y="428"/>
      <point x="517" y="424"/>
      <point x="495" y="424" type="curve" smooth="yes"/>
      <point x="478" y="424"/>
      <point x="464" y="432"/>
      <point x="464" y="451" type="curve" smooth="yes"/>
      <point x="464" y="468"/>
      <point x="476" y="477"/>
      <point x="494" y="477" type="curve" smooth="yes"/>
      <point x="527" y="477"/>
      <point x="542" y="442"/>
      <point x="542" y="394" type="curve" smooth="yes"/>
      <point x="542" y="332"/>
      <point x="517" y="302"/>
      <point x="442" y="302" type="curve" smooth="yes"/>
      <point x="388" y="302"/>
      <point x="350" y="323"/>
      <point x="350" y="380" type="curve" smooth="yes"/>
      <point x="350" y="392"/>
      <point x="358" y="434"/>
      <point x="358" y="473" type="curve" smooth="yes"/>
      <point x="358" y="518"/>
      <point x="335" y="584"/>
      <point x="229" y="584" type="curve" smooth="yes"/>
      <point x="114" y="584"/>
      <point x="28" y="500"/>
      <point x="28" y="341" type="curve" smooth="yes"/>
      <point x="28" y="117"/>
      <point x="180" y="-11"/>
    </contour>
  </outline>
</glyph>
<glyph name="mbasinh" format="2">
  <advance width="942"/>
  <unicode hex="0DB9"/>
  <outline>
    <contour>
      <point x="339" y="-6" type="curve" smooth="yes"/>
      <point x="366" y="-6"/>
      <point x="387" y="-4"/>
      <point x="405" y="-1" type="curve"/>
      <point x="377" y="151" type="line"/>
      <point x="370" y="150"/>
      <point x="347" y="150"/>
      <point x="328" y="150" type="curve" smooth="yes"/>
      <point x="233" y="150"/>
      <point x="168" y="216"/>
      <point x="168" y="335" type="curve" smooth="yes"/>
      <point x="168" y="401"/>
      <point x="191" y="459"/>
      <point x="224" y="459" type="curve" smooth="yes"/>
      <point x="236" y="459"/>
      <point x="241" y="454"/>
      <point x="241" y="438" type="curve" smooth="yes"/>
      <point x="241" y="415"/>
      <point x="232" y="398"/>
      <point x="232" y="362" type="curve" smooth="yes"/>
      <point x="232" y="289"/>
      <point x="275" y="208"/>
      <point x="458" y="208" type="curve" smooth="yes"/>
      <point x="584" y="208"/>
      <point x="685" y="260"/>
      <point x="685" y="399" type="curve" smooth="yes"/>
      <point x="685" y="514"/>
      <point x="614" y="584"/>
      <point x="518" y="584" type="curve" smooth="yes"/>
      <point x="423" y="584"/>
      <point x="365" y="533"/>
      <point x="365" y="452" type="curve" smooth="yes"/>
      <point x="365" y="370"/>
      <point x="411" y="329"/>
      <point x="498" y="329" type="curve" smooth="yes"/>
      <point x="539" y="329"/>
      <point x="576" y="343"/>
      <point x="606" y="374" type="curve"/>
      <point x="567" y="439" type="line"/>
      <point x="546" y="428"/>
      <point x="532" y="424"/>
      <point x="510" y="424" type="curve" smooth="yes"/>
      <point x="493" y="424"/>
      <point x="479" y="432"/>
      <point x="479" y="451" type="curve" smooth="yes"/>
      <point x="479" y="468"/>
      <point x="491" y="477"/>
      <point x="509" y="477" type="curve" smooth="yes"/>
      <point x="542" y="477"/>
      <point x="557" y="442"/>
      <point x="557" y="394" type="curve" smooth="yes"/>
      <point x="557" y="332"/>
      <point x="532" y="302"/>
      <point x="457" y="302" type="curve" smooth="yes"/>
      <point x="403" y="302"/>
      <point x="365" y="323"/>
      <point x="365" y="380" type="curve" smooth="yes"/>
      <point x="365" y="392"/>
      <point x="373" y="434"/>
      <point x="373" y="473" type="curve" smooth="yes"/>
      <point x="373" y="518"/>
      <point x="355" y="584"/>
      <point x="244" y="584" type="curve" smooth="yes"/>
      <point x="127" y="584"/>
      <point x="29" y="498"/>
      <point x="29" y="315" type="curve" smooth="yes"/>
      <point x="29" y="118"/>
      <point x="160" y="-6"/>
    </contour>
    <contour>
      <point x="571" y="-6" type="curve" smooth="yes"/>
      <point x="818" y="-6"/>
      <point x="913" y="178"/>
      <point x="913" y="383" type="curve" smooth="yes"/>
      <point x="913" y="699"/>
      <point x="726" y="836"/>
      <point x="457" y="836" type="curve" smooth="yes"/>
      <point x="298" y="836"/>
      <point x="169" y="798"/>
      <point x="67" y="749" type="curve"/>
      <point x="125" y="623" type="line"/>
      <point x="216" y="672"/>
      <point x="328" y="701"/>
      <point x="454" y="701" type="curve" smooth="yes"/>
      <point x="622" y="701"/>
      <point x="766" y="620"/>
      <point x="766" y="403" type="curve" smooth="yes"/>
      <point x="766" y="248"/>
      <point x="698" y="150"/>
      <point x="565" y="150" type="curve" smooth="yes"/>
      <point x="540" y="150"/>
      <point x="530" y="150"/>
      <point x="515" y="152" type="curve"/>
      <point x="483" y="-2" type="line"/>
      <point x="504" y="-4"/>
      <point x="536" y="-6"/>
    </contour>
    <contour>
      <point x="443" y="165" type="curve" smooth="yes"/>
      <point x="473" y="165"/>
      <point x="495" y="161"/>
      <point x="495" y="144" type="curve" smooth="yes"/>
      <point x="495" y="133"/>
      <point x="489" y="126"/>
      <point x="470" y="124" type="curve"/>
      <point x="482" y="-2" type="line"/>
      <point x="555" y="98" type="line"/>
      <point x="600" y="115"/>
      <point x="625" y="145"/>
      <point x="625" y="168" type="curve" smooth="yes"/>
      <point x="625" y="242"/>
      <point x="527" y="255"/>
      <point x="457" y="255" type="curve" smooth="yes"/>
      <point x="429" y="255" type="line" smooth="yes"/>
      <point x="350" y="255"/>
      <point x="259" y="245"/>
      <point x="259" y="175" type="curve" smooth="yes"/>
      <point x="259" y="143"/>
      <point x="284" y="115"/>
      <point x="326" y="98" type="curve"/>
      <point x="405" y="-1" type="line"/>
      <point x="417" y="124" type="line"/>
      <point x="402" y="125"/>
      <point x="392" y="132"/>
      <point x="392" y="144" type="curve" smooth="yes"/>
      <point x="392" y="161"/>
      <point x="408" y="165"/>
    </contour>
  </outline>
</glyph>
<glyph name="yasinh" format="2">
  <advance width="893"/>
  <unicode hex="0DBA"/>
  <outline>
    <contour>
      <point x="640" y="-11" type="curve" smooth="yes"/>
      <point x="754" y="-11"/>
      <point x="865" y="61"/>
      <point x="865" y="226" type="curve" smooth="yes"/>
      <point x="865" y="414"/>
      <point x="710" y="455"/>
      <point x="591" y="455" type="curve" smooth="yes"/>
      <point x="578" y="455" type="line"/>
      <point x="598" y="452" type="line"/>
      <point x="601" y="478"/>
      <point x="610" y="501"/>
      <point x="639" y="501" type="curve" smooth="yes"/>
      <point x="662" y="501"/>
      <point x="671" y="483"/>
      <point x="671" y="466" type="curve" smooth="yes"/>
      <point x="671" y="462"/>
      <point x="671" y="459"/>
      <point x="671" y="458" type="curve"/>
      <point x="813" y="445" type="line"/>
      <point x="816" y="460"/>
      <point x="817" y="478"/>
      <point x="817" y="490" type="curve" smooth="yes"/>
      <point x="817" y="582"/>
      <point x="752" y="622"/>
      <point x="655" y="622" type="curve" smooth="yes"/>
      <point x="506" y="622"/>
      <point x="453" y="518"/>
      <point x="453" y="377" type="curve" smooth="yes"/>
      <point x="453" y="330" type="line"/>
      <point x="527" y="330" type="line" smooth="yes"/>
      <point x="612" y="330"/>
      <point x="647" y="325"/>
      <point x="679" y="311" type="curve" smooth="yes"/>
      <point x="709" y="298"/>
      <point x="725" y="273"/>
      <point x="725" y="243" type="curve" smooth="yes"/>
      <point x="725" y="187"/>
      <point x="684" y="165"/>
      <point x="628" y="165" type="curve" smooth="yes"/>
      <point x="556" y="165"/>
      <point x="511" y="186"/>
      <point x="511" y="258" type="curve" smooth="yes"/>
      <point x="511" y="263" type="line"/>
      <point x="377" y="263" type="line"/>
      <point x="377" y="257" type="line" smooth="yes"/>
      <point x="377" y="191"/>
      <point x="335" y="165"/>
      <point x="268" y="165" type="curve" smooth="yes"/>
      <point x="200" y="165"/>
      <point x="170" y="192"/>
      <point x="170" y="251" type="curve" smooth="yes"/>
      <point x="170" y="314"/>
      <point x="219" y="356"/>
      <point x="336" y="356" type="curve" smooth="yes"/>
      <point x="357" y="356"/>
      <point x="382" y="355"/>
      <point x="398" y="353" type="curve"/>
      <point x="406" y="487" type="line"/>
      <point x="390" y="489"/>
      <point x="367" y="491"/>
      <point x="335" y="491" type="curve" smooth="yes"/>
      <point x="121" y="491"/>
      <point x="28" y="382"/>
      <point x="28" y="233" type="curve" smooth="yes"/>
      <point x="28" y="67"/>
      <point x="126" y="-11"/>
      <point x="258" y="-11" type="curve" smooth="yes"/>
      <point x="355" y="-11"/>
      <point x="400" y="22"/>
      <point x="446" y="72" type="curve"/>
      <point x="487" y="26"/>
      <point x="530" y="-11"/>
    </contour>
  </outline>
</glyph>
<glyph name="rasinh" format="2">
  <advance width="746"/>
  <unicode hex="0DBB"/>
  <outline>
    <contour>
      <point x="366" y="-11" type="curve" smooth="yes"/>
      <point x="597" y="-11"/>
      <point x="718" y="101"/>
      <point x="718" y="300" type="curve" smooth="yes"/>
      <point x="718" y="478"/>
      <point x="602" y="578"/>
      <point x="430" y="578" type="curve" smooth="yes"/>
      <point x="381" y="578"/>
      <point x="343" y="572"/>
      <point x="321" y="563" type="curve"/>
      <point x="205" y="437" type="line"/>
      <point x="260" y="458"/>
      <point x="292" y="465"/>
      <point x="373" y="465" type="curve" smooth="yes"/>
      <point x="510" y="465"/>
      <point x="576" y="410"/>
      <point x="576" y="318" type="curve" smooth="yes"/>
      <point x="576" y="223"/>
      <point x="506" y="172"/>
      <point x="364" y="172" type="curve" smooth="yes"/>
      <point x="232" y="172"/>
      <point x="170" y="222"/>
      <point x="170" y="306" type="curve" smooth="yes"/>
      <point x="170" y="402"/>
      <point x="237" y="446"/>
      <point x="357" y="496" type="curve"/>
      <point x="414" y="528" type="line"/>
      <point x="535" y="561"/>
      <point x="631" y="609"/>
      <point x="737" y="702" type="curve"/>
      <point x="640" y="814" type="line"/>
      <point x="517" y="721"/>
      <point x="409" y="651"/>
      <point x="293" y="594" type="curve"/>
      <point x="97" y="519"/>
      <point x="28" y="415"/>
      <point x="28" y="280" type="curve" smooth="yes"/>
      <point x="28" y="92"/>
      <point x="164" y="-11"/>
    </contour>
  </outline>
</glyph>
<glyph name="lasinh" format="2">
  <advance width="936"/>
  <unicode hex="0DBD"/>
  <outline>
    <contour>
      <point x="489" y="-246" type="curve" smooth="yes"/>
      <point x="737" y="-246"/>
      <point x="911" y="-132"/>
      <point x="911" y="108" type="curve" smooth="yes"/>
      <point x="911" y="114"/>
      <point x="911" y="125"/>
      <point x="909" y="136" type="curve"/>
      <point x="769" y="132" type="line"/>
      <point x="769" y="127"/>
      <point x="769" y="121"/>
      <point x="769" y="116" type="curve" smooth="yes"/>
      <point x="769" y="-18"/>
      <point x="658" y="-97"/>
      <point x="499" y="-97" type="curve" smooth="yes"/>
      <point x="273" y="-97"/>
      <point x="196" y="16"/>
      <point x="196" y="184" type="curve" smooth="yes"/>
      <point x="196" y="378"/>
      <point x="308" y="487"/>
      <point x="538" y="487" type="curve" smooth="yes"/>
      <point x="692" y="487"/>
      <point x="762" y="449"/>
      <point x="762" y="364" type="curve" smooth="yes"/>
      <point x="762" y="296"/>
      <point x="727" y="262"/>
      <point x="657" y="262" type="curve" smooth="yes"/>
      <point x="603" y="262"/>
      <point x="584" y="271"/>
      <point x="584" y="296" type="curve" smooth="yes"/>
      <point x="584" y="309"/>
      <point x="590" y="319"/>
      <point x="599" y="328" type="curve"/>
      <point x="545" y="300" type="line"/>
      <point x="717" y="300" type="line"/>
      <point x="717" y="434" type="line"/>
      <point x="340" y="434" type="line"/>
      <point x="340" y="300" type="line"/>
      <point x="453" y="300" type="line"/>
      <point x="495" y="303" type="line"/>
      <point x="475" y="380" type="line"/>
      <point x="454" y="355"/>
      <point x="444" y="319"/>
      <point x="444" y="290" type="curve" smooth="yes"/>
      <point x="444" y="178"/>
      <point x="521" y="127"/>
      <point x="648" y="127" type="curve" smooth="yes"/>
      <point x="826" y="127"/>
      <point x="902" y="230"/>
      <point x="902" y="360" type="curve" smooth="yes"/>
      <point x="902" y="506"/>
      <point x="804" y="622"/>
      <point x="538" y="622" type="curve" smooth="yes"/>
      <point x="197" y="622"/>
      <point x="29" y="418"/>
      <point x="29" y="180" type="curve" smooth="yes"/>
      <point x="29" y="-73"/>
      <point x="171" y="-246"/>
    </contour>
  </outline>
</glyph>
<glyph name="vasinh" format="2">
  <advance width="877"/>
  <unicode hex="0DC0"/>
  <outline>
    <contour>
      <point x="390" y="-11" type="curve" smooth="yes"/>
      <point x="729" y="-11"/>
      <point x="849" y="194"/>
      <point x="849" y="413" type="curve" smooth="yes"/>
      <point x="849" y="709"/>
      <point x="652" y="836"/>
      <point x="404" y="836" type="curve" smooth="yes"/>
      <point x="257" y="836"/>
      <point x="151" y="801"/>
      <point x="42" y="752" type="curve"/>
      <point x="100" y="625" type="line"/>
      <point x="182" y="671"/>
      <point x="283" y="701"/>
      <point x="396" y="701" type="curve" smooth="yes"/>
      <point x="572" y="701"/>
      <point x="702" y="623"/>
      <point x="702" y="432" type="curve" smooth="yes"/>
      <point x="702" y="260"/>
      <point x="574" y="172"/>
      <point x="377" y="172" type="curve" smooth="yes"/>
      <point x="226" y="172"/>
      <point x="168" y="207"/>
      <point x="168" y="265" type="curve" smooth="yes"/>
      <point x="168" y="281"/>
      <point x="174" y="296"/>
      <point x="189" y="309" type="curve" smooth="yes"/>
      <point x="212" y="328"/>
      <point x="250" y="330"/>
      <point x="315" y="330" type="curve" smooth="yes"/>
      <point x="472" y="330" type="line"/>
      <point x="472" y="377" type="line" smooth="yes"/>
      <point x="472" y="514"/>
      <point x="419" y="622"/>
      <point x="271" y="622" type="curve" smooth="yes"/>
      <point x="173" y="622"/>
      <point x="108" y="582"/>
      <point x="108" y="491" type="curve" smooth="yes"/>
      <point x="108" y="481"/>
      <point x="109" y="465"/>
      <point x="111" y="447" type="curve"/>
      <point x="254" y="459" type="line"/>
      <point x="254" y="462"/>
      <point x="254" y="463"/>
      <point x="254" y="466" type="curve" smooth="yes"/>
      <point x="254" y="483"/>
      <point x="263" y="501"/>
      <point x="286" y="501" type="curve" smooth="yes"/>
      <point x="315" y="501"/>
      <point x="323" y="478"/>
      <point x="326" y="455" type="curve"/>
      <point x="319" y="455" type="line" smooth="yes"/>
      <point x="232" y="455"/>
      <point x="173" y="446"/>
      <point x="123" y="419" type="curve" smooth="yes"/>
      <point x="66" y="389"/>
      <point x="28" y="335"/>
      <point x="28" y="244" type="curve" smooth="yes"/>
      <point x="28" y="87"/>
      <point x="150" y="-11"/>
    </contour>
  </outline>
</glyph>
<glyph name="shasinh" format="2">
  <advance width="980"/>
  <unicode hex="0DC1"/>
  <outline>
    <contour>
      <point x="345" y="-11" type="curve" smooth="yes"/>
      <point x="530" y="-11"/>
      <point x="624" y="99"/>
      <point x="624" y="230" type="curve" smooth="yes"/>
      <point x="624" y="341"/>
      <point x="561" y="386"/>
      <point x="486" y="386" type="curve" smooth="yes"/>
      <point x="469" y="386"/>
      <point x="457" y="384"/>
      <point x="444" y="380" type="curve"/>
      <point x="494" y="370" type="line"/>
      <point x="519" y="410"/>
      <point x="564" y="456"/>
      <point x="659" y="456" type="curve" smooth="yes"/>
      <point x="757" y="456"/>
      <point x="817" y="401"/>
      <point x="817" y="304" type="curve" smooth="yes"/>
      <point x="817" y="191"/>
      <point x="752" y="140"/>
      <point x="703" y="104" type="curve"/>
      <point x="654" y="76" type="line"/>
      <point x="764" y="-18" type="line"/>
      <point x="852" y="51"/>
      <point x="952" y="153"/>
      <point x="952" y="316" type="curve" smooth="yes"/>
      <point x="952" y="497"/>
      <point x="853" y="622"/>
      <point x="669" y="622" type="curve" smooth="yes"/>
      <point x="536" y="622"/>
      <point x="398" y="569"/>
      <point x="331" y="291" type="curve"/>
      <point x="441" y="254" type="line"/>
      <point x="443" y="260"/>
      <point x="454" y="267"/>
      <point x="461" y="267" type="curve" smooth="yes"/>
      <point x="478" y="267"/>
      <point x="484" y="258"/>
      <point x="484" y="244" type="curve" smooth="yes"/>
      <point x="484" y="207"/>
      <point x="444" y="172"/>
      <point x="350" y="172" type="curve" smooth="yes"/>
      <point x="240" y="172"/>
      <point x="170" y="218"/>
      <point x="170" y="325" type="curve" smooth="yes"/>
      <point x="170" y="425"/>
      <point x="233" y="487"/>
      <point x="354" y="487" type="curve" smooth="yes"/>
      <point x="374" y="487"/>
      <point x="387" y="486"/>
      <point x="398" y="485" type="curve"/>
      <point x="405" y="619" type="line"/>
      <point x="389" y="621"/>
      <point x="373" y="622"/>
      <point x="356" y="622" type="curve" smooth="yes"/>
      <point x="151" y="622"/>
      <point x="28" y="507"/>
      <point x="28" y="302" type="curve" smooth="yes"/>
      <point x="28" y="115"/>
      <point x="135" y="-11"/>
    </contour>
    <contour>
      <point x="654" y="76" type="curve"/>
      <point x="708" y="62" type="line"/>
      <point x="758" y="80"/>
      <point x="761" y="115"/>
      <point x="761" y="157" type="curve" smooth="yes"/>
      <point x="761" y="183"/>
      <point x="753" y="192"/>
      <point x="753" y="219" type="curve" smooth="yes"/>
      <point x="753" y="238"/>
      <point x="766" y="253"/>
      <point x="790" y="253" type="curve" smooth="yes"/>
      <point x="822" y="253"/>
      <point x="847" y="220"/>
      <point x="866" y="187" type="curve"/>
      <point x="928" y="303" type="line"/>
      <point x="876" y="350"/>
      <point x="820" y="373"/>
      <point x="766" y="373" type="curve" smooth="yes"/>
      <point x="675" y="373"/>
      <point x="626" y="320"/>
      <point x="626" y="261" type="curve" smooth="yes"/>
      <point x="626" y="193"/>
      <point x="662" y="148"/>
      <point x="662" y="108" type="curve" smooth="yes"/>
      <point x="662" y="94"/>
      <point x="660" y="82"/>
    </contour>
  </outline>
</glyph>
<glyph name="ssasinh" format="2">
  <advance width="854"/>
  <unicode hex="0DC2"/>
  <outline>
    <contour>
      <point x="427" y="-11" type="curve" smooth="yes"/>
      <point x="716" y="-11"/>
      <point x="826" y="92"/>
      <point x="826" y="244" type="curve" smooth="yes"/>
      <point x="826" y="383"/>
      <point x="738" y="455"/>
      <point x="566" y="455" type="curve" smooth="yes"/>
      <point x="559" y="455" type="line"/>
      <point x="586" y="452" type="line"/>
      <point x="589" y="478"/>
      <point x="598" y="501"/>
      <point x="628" y="501" type="curve" smooth="yes"/>
      <point x="650" y="501"/>
      <point x="660" y="489"/>
      <point x="660" y="468" type="curve" smooth="yes"/>
      <point x="660" y="444"/>
      <point x="647" y="421"/>
      <point x="625" y="405" type="curve"/>
      <point x="630" y="388" type="line"/>
      <point x="614" y="340"/>
      <point x="594" y="336"/>
      <point x="547" y="336" type="curve" smooth="yes"/>
      <point x="367" y="336" type="line" smooth="yes"/>
      <point x="304" y="336"/>
      <point x="269" y="328"/>
      <point x="245" y="311" type="curve" smooth="yes"/>
      <point x="224" y="296"/>
      <point x="213" y="275"/>
      <point x="213" y="244" type="curve" smooth="yes"/>
      <point x="213" y="182"/>
      <point x="274" y="137"/>
      <point x="422" y="137" type="curve" smooth="yes"/>
      <point x="592" y="137"/>
      <point x="635" y="188"/>
      <point x="635" y="244" type="curve" smooth="yes"/>
      <point x="635" y="270"/>
      <point x="625" y="294"/>
      <point x="599" y="316" type="curve"/>
      <point x="470" y="282" type="line"/>
      <point x="490" y="271"/>
      <point x="499" y="258"/>
      <point x="499" y="244" type="curve" smooth="yes"/>
      <point x="499" y="230"/>
      <point x="486" y="223"/>
      <point x="423" y="223" type="curve" smooth="yes"/>
      <point x="352" y="223"/>
      <point x="346" y="230"/>
      <point x="346" y="240" type="curve" smooth="yes"/>
      <point x="346" y="249"/>
      <point x="355" y="250"/>
      <point x="367" y="250" type="curve" smooth="yes"/>
      <point x="515" y="250" type="line" smooth="yes"/>
      <point x="599" y="250"/>
      <point x="692" y="272"/>
      <point x="752" y="346" type="curve" smooth="yes"/>
      <point x="780" y="380"/>
      <point x="805" y="419"/>
      <point x="805" y="480" type="curve" smooth="yes"/>
      <point x="805" y="577"/>
      <point x="746" y="622"/>
      <point x="643" y="622" type="curve" smooth="yes"/>
      <point x="496" y="622"/>
      <point x="441" y="518"/>
      <point x="441" y="377" type="curve" smooth="yes"/>
      <point x="441" y="359" type="line"/>
      <point x="525" y="359" type="line" smooth="yes"/>
      <point x="592" y="359"/>
      <point x="624" y="352"/>
      <point x="652" y="331" type="curve" smooth="yes"/>
      <point x="673" y="316"/>
      <point x="686" y="291"/>
      <point x="686" y="255" type="curve" smooth="yes"/>
      <point x="686" y="181"/>
      <point x="629" y="113"/>
      <point x="429" y="113" type="curve" smooth="yes"/>
      <point x="225" y="113"/>
      <point x="168" y="181"/>
      <point x="168" y="256" type="curve" smooth="yes"/>
      <point x="168" y="291"/>
      <point x="181" y="315"/>
      <point x="202" y="330" type="curve" smooth="yes"/>
      <point x="230" y="351"/>
      <point x="264" y="357"/>
      <point x="341" y="357" type="curve" smooth="yes"/>
      <point x="413" y="357" type="line"/>
      <point x="413" y="377" type="line" smooth="yes"/>
      <point x="413" y="514"/>
      <point x="360" y="622"/>
      <point x="211" y="622" type="curve" smooth="yes"/>
      <point x="114" y="622"/>
      <point x="49" y="582"/>
      <point x="49" y="492" type="curve" smooth="yes"/>
      <point x="49" y="480"/>
      <point x="50" y="460"/>
      <point x="53" y="443" type="curve"/>
      <point x="195" y="458" type="line"/>
      <point x="195" y="459"/>
      <point x="195" y="462"/>
      <point x="195" y="466" type="curve" smooth="yes"/>
      <point x="195" y="483"/>
      <point x="204" y="501"/>
      <point x="227" y="501" type="curve" smooth="yes"/>
      <point x="256" y="501"/>
      <point x="265" y="478"/>
      <point x="268" y="452" type="curve"/>
      <point x="295" y="455" type="line"/>
      <point x="288" y="455" type="line" smooth="yes"/>
      <point x="116" y="455"/>
      <point x="28" y="383"/>
      <point x="28" y="244" type="curve" smooth="yes"/>
      <point x="28" y="92"/>
      <point x="138" y="-11"/>
    </contour>
  </outline>
</glyph>
<glyph name="sasinh" format="2">
  <advance width="920"/>
  <unicode hex="0DC3"/>
  <outline>
    <contour>
      <point x="667" y="-11" type="curve" smooth="yes"/>
      <point x="781" y="-11"/>
      <point x="892" y="61"/>
      <point x="892" y="226" type="curve" smooth="yes"/>
      <point x="892" y="414"/>
      <point x="741" y="455"/>
      <point x="618" y="455" type="curve"/>
      <point x="605" y="455" type="line"/>
      <point x="631" y="452" type="line"/>
      <point x="634" y="478"/>
      <point x="643" y="501"/>
      <point x="672" y="501" type="curve" smooth="yes"/>
      <point x="695" y="501"/>
      <point x="704" y="483"/>
      <point x="704" y="466" type="curve" smooth="yes"/>
      <point x="704" y="462"/>
      <point x="704" y="459"/>
      <point x="704" y="458" type="curve"/>
      <point x="846" y="445" type="line"/>
      <point x="849" y="460"/>
      <point x="850" y="478"/>
      <point x="850" y="490" type="curve" smooth="yes"/>
      <point x="850" y="584"/>
      <point x="785" y="622"/>
      <point x="688" y="622" type="curve" smooth="yes"/>
      <point x="539" y="622"/>
      <point x="486" y="518"/>
      <point x="486" y="378" type="curve" smooth="yes"/>
      <point x="486" y="330" type="line"/>
      <point x="554" y="330" type="line" smooth="yes"/>
      <point x="639" y="330"/>
      <point x="674" y="325"/>
      <point x="706" y="311" type="curve" smooth="yes"/>
      <point x="736" y="298"/>
      <point x="752" y="273"/>
      <point x="752" y="243" type="curve" smooth="yes"/>
      <point x="752" y="187"/>
      <point x="711" y="165"/>
      <point x="655" y="165" type="curve" smooth="yes"/>
      <point x="583" y="165"/>
      <point x="538" y="186"/>
      <point x="538" y="258" type="curve" smooth="yes"/>
      <point x="538" y="263" type="line"/>
      <point x="404" y="263" type="line"/>
      <point x="404" y="259" type="line" smooth="yes"/>
      <point x="404" y="191"/>
      <point x="360" y="165"/>
      <point x="293" y="165" type="curve" smooth="yes"/>
      <point x="227" y="165"/>
      <point x="189" y="188"/>
      <point x="189" y="241" type="curve" smooth="yes"/>
      <point x="189" y="277"/>
      <point x="205" y="297"/>
      <point x="230" y="310" type="curve" smooth="yes"/>
      <point x="256" y="324"/>
      <point x="299" y="330"/>
      <point x="383" y="330" type="curve" smooth="yes"/>
      <point x="458" y="330" type="line"/>
      <point x="458" y="377" type="line" smooth="yes"/>
      <point x="458" y="518"/>
      <point x="405" y="622"/>
      <point x="257" y="622" type="curve" smooth="yes"/>
      <point x="159" y="622"/>
      <point x="94" y="582"/>
      <point x="94" y="490" type="curve" smooth="yes"/>
      <point x="94" y="485"/>
      <point x="94" y="476"/>
      <point x="95" y="469" type="curve"/>
      <point x="241" y="473" type="line"/>
      <point x="241" y="474"/>
      <point x="241" y="474"/>
      <point x="241" y="475" type="curve"/>
      <point x="241" y="486"/>
      <point x="249" y="501"/>
      <point x="272" y="501" type="curve" smooth="yes"/>
      <point x="301" y="501"/>
      <point x="310" y="477"/>
      <point x="313" y="455" type="curve"/>
      <point x="24" y="455" type="line"/>
      <point x="24" y="330" type="line"/>
      <point x="52" y="330" type="line" smooth="yes"/>
      <point x="105" y="330"/>
      <point x="164" y="339"/>
      <point x="186" y="342" type="curve"/>
      <point x="135" y="358" type="line"/>
      <point x="87" y="326"/>
      <point x="49" y="276"/>
      <point x="49" y="192" type="curve" smooth="yes"/>
      <point x="49" y="69"/>
      <point x="134" y="-11"/>
      <point x="286" y="-11" type="curve" smooth="yes"/>
      <point x="382" y="-11"/>
      <point x="425" y="21"/>
      <point x="472" y="67" type="curve"/>
      <point x="519" y="16"/>
      <point x="557" y="-11"/>
    </contour>
  </outline>
</glyph>
<glyph name="hasinh" format="2">
  <advance width="1014"/>
  <unicode hex="0DC4"/>
  <outline>
    <contour>
      <point x="361" y="-11" type="curve" smooth="yes"/>
      <point x="601" y="-11"/>
      <point x="680" y="105"/>
      <point x="680" y="230" type="curve" smooth="yes"/>
      <point x="680" y="341"/>
      <point x="617" y="386"/>
      <point x="542" y="386" type="curve" smooth="yes"/>
      <point x="525" y="386"/>
      <point x="512" y="383"/>
      <point x="500" y="380" type="curve"/>
      <point x="550" y="370" type="line"/>
      <point x="575" y="406"/>
      <point x="616" y="453"/>
      <point x="698" y="453" type="curve" smooth="yes"/>
      <point x="790" y="453"/>
      <point x="844" y="387"/>
      <point x="844" y="285" type="curve" smooth="yes"/>
      <point x="844" y="186"/>
      <point x="797" y="133"/>
      <point x="690" y="133" type="curve" smooth="yes"/>
      <point x="681" y="133"/>
      <point x="673" y="133"/>
      <point x="666" y="134" type="curve"/>
      <point x="659" y="-1" type="line"/>
      <point x="671" y="-2"/>
      <point x="687" y="-2"/>
      <point x="699" y="-2" type="curve" smooth="yes"/>
      <point x="875" y="-2"/>
      <point x="986" y="101"/>
      <point x="986" y="309" type="curve" smooth="yes"/>
      <point x="986" y="477"/>
      <point x="902" y="622"/>
      <point x="705" y="622" type="curve" smooth="yes"/>
      <point x="590" y="622"/>
      <point x="447" y="563"/>
      <point x="391" y="291" type="curve"/>
      <point x="501" y="254" type="line"/>
      <point x="504" y="259"/>
      <point x="510" y="267"/>
      <point x="521" y="267" type="curve" smooth="yes"/>
      <point x="534" y="267"/>
      <point x="540" y="257"/>
      <point x="540" y="244" type="curve" smooth="yes"/>
      <point x="540" y="197"/>
      <point x="475" y="172"/>
      <point x="362" y="172" type="curve" smooth="yes"/>
      <point x="236" y="172"/>
      <point x="168" y="206"/>
      <point x="168" y="260" type="curve" smooth="yes"/>
      <point x="168" y="285"/>
      <point x="177" y="302"/>
      <point x="195" y="313" type="curve" smooth="yes"/>
      <point x="220" y="330"/>
      <point x="266" y="330"/>
      <point x="351" y="330" type="curve" smooth="yes"/>
      <point x="413" y="330" type="line"/>
      <point x="413" y="377" type="line" smooth="yes"/>
      <point x="413" y="514"/>
      <point x="360" y="622"/>
      <point x="211" y="622" type="curve" smooth="yes"/>
      <point x="114" y="622"/>
      <point x="49" y="582"/>
      <point x="49" y="492" type="curve" smooth="yes"/>
      <point x="49" y="480"/>
      <point x="50" y="460"/>
      <point x="53" y="443" type="curve"/>
      <point x="195" y="458" type="line"/>
      <point x="195" y="459"/>
      <point x="195" y="461"/>
      <point x="195" y="464" type="curve" smooth="yes"/>
      <point x="195" y="482"/>
      <point x="204" y="501"/>
      <point x="227" y="501" type="curve" smooth="yes"/>
      <point x="256" y="501"/>
      <point x="265" y="478"/>
      <point x="268" y="452" type="curve"/>
      <point x="295" y="455" type="line"/>
      <point x="288" y="455" type="line"/>
      <point x="116" y="455"/>
      <point x="28" y="383"/>
      <point x="28" y="245" type="curve" smooth="yes"/>
      <point x="28" y="85"/>
      <point x="153" y="-11"/>
    </contour>
  </outline>
</glyph>
<glyph name="llasinh" format="2">
  <advance width="839"/>
  <unicode hex="0DC5"/>
  <outline>
    <contour>
      <point x="441" y="-247" type="curve" smooth="yes"/>
      <point x="688" y="-247"/>
      <point x="830" y="-152"/>
      <point x="830" y="41" type="curve" smooth="yes"/>
      <point x="830" y="56"/>
      <point x="829" y="67"/>
      <point x="826" y="81" type="curve"/>
      <point x="687" y="77" type="line"/>
      <point x="688" y="70"/>
      <point x="688" y="62"/>
      <point x="688" y="57" type="curve" smooth="yes"/>
      <point x="688" y="-67"/>
      <point x="557" y="-99"/>
      <point x="460" y="-99" type="curve" smooth="yes"/>
      <point x="271" y="-99"/>
      <point x="183" y="-28"/>
      <point x="183" y="111" type="curve" smooth="yes"/>
      <point x="183" y="159"/>
      <point x="200" y="214"/>
      <point x="239" y="245" type="curve"/>
      <point x="268" y="266" type="line"/>
      <point x="334" y="313"/>
      <point x="404" y="330"/>
      <point x="640" y="330" type="curve" smooth="yes"/>
      <point x="798" y="330" type="line"/>
      <point x="798" y="366" type="line" smooth="yes"/>
      <point x="798" y="511"/>
      <point x="754" y="622"/>
      <point x="608" y="622" type="curve" smooth="yes"/>
      <point x="555" y="622"/>
      <point x="514" y="601"/>
      <point x="488" y="574" type="curve"/>
      <point x="462" y="599"/>
      <point x="436" y="622"/>
      <point x="368" y="622" type="curve" smooth="yes"/>
      <point x="261" y="622"/>
      <point x="176" y="542"/>
      <point x="176" y="393" type="curve" smooth="yes"/>
      <point x="176" y="362"/>
      <point x="180" y="331"/>
      <point x="187" y="304" type="curve"/>
      <point x="203" y="170"/>
      <point x="295" y="53"/>
      <point x="486" y="53" type="curve" smooth="yes"/>
      <point x="683" y="53"/>
      <point x="782" y="144"/>
      <point x="791" y="289" type="curve"/>
      <point x="653" y="311" type="line"/>
      <point x="644" y="227"/>
      <point x="588" y="196"/>
      <point x="490" y="196" type="curve" smooth="yes"/>
      <point x="383" y="196"/>
      <point x="315" y="242"/>
      <point x="315" y="394" type="curve" smooth="yes"/>
      <point x="315" y="472"/>
      <point x="340" y="501"/>
      <point x="378" y="501" type="curve" smooth="yes"/>
      <point x="409" y="501"/>
      <point x="417" y="484"/>
      <point x="422" y="464" type="curve"/>
      <point x="558" y="464" type="line"/>
      <point x="561" y="487"/>
      <point x="574" y="501"/>
      <point x="605" y="501" type="curve" smooth="yes"/>
      <point x="639" y="501"/>
      <point x="650" y="482"/>
      <point x="652" y="455" type="curve"/>
      <point x="602" y="455" type="line" smooth="yes"/>
      <point x="422" y="455"/>
      <point x="329" y="443"/>
      <point x="244" y="404" type="curve"/>
      <point x="179" y="380" type="line"/>
      <point x="72" y="316"/>
      <point x="21" y="221"/>
      <point x="21" y="92" type="curve" smooth="yes"/>
      <point x="21" y="-118"/>
      <point x="156" y="-247"/>
    </contour>
  </outline>
</glyph>
<glyph name="fasinh" format="2">
  <advance width="898"/>
  <unicode hex="0DC6"/>
  <outline>
    <contour>
      <point x="578" y="-11" type="curve" smooth="yes"/>
      <point x="770" y="-11"/>
      <point x="867" y="105"/>
      <point x="867" y="309" type="curve" smooth="yes"/>
      <point x="867" y="510"/>
      <point x="770" y="622"/>
      <point x="626" y="622" type="curve" smooth="yes"/>
      <point x="534" y="622"/>
      <point x="485" y="581"/>
      <point x="448" y="533" type="curve"/>
      <point x="410" y="581"/>
      <point x="364" y="622"/>
      <point x="275" y="622" type="curve" smooth="yes"/>
      <point x="128" y="622"/>
      <point x="31" y="510"/>
      <point x="31" y="309" type="curve" smooth="yes"/>
      <point x="31" y="105"/>
      <point x="128" y="-11"/>
      <point x="320" y="-11" type="curve" smooth="yes"/>
      <point x="330" y="-11"/>
      <point x="351" y="-11"/>
      <point x="369" y="-8" type="curve"/>
      <point x="365" y="127" type="line"/>
      <point x="356" y="126"/>
      <point x="344" y="126"/>
      <point x="334" y="126" type="curve" smooth="yes"/>
      <point x="207" y="126"/>
      <point x="173" y="195"/>
      <point x="173" y="291" type="curve" smooth="yes"/>
      <point x="173" y="372"/>
      <point x="213" y="439"/>
      <point x="285" y="439" type="curve" smooth="yes"/>
      <point x="313" y="439"/>
      <point x="334" y="431"/>
      <point x="349" y="417" type="curve" smooth="yes"/>
      <point x="372" y="396"/>
      <point x="382" y="364"/>
      <point x="382" y="318" type="curve" smooth="yes"/>
      <point x="382" y="312" type="line"/>
      <point x="516" y="312" type="line"/>
      <point x="516" y="318" type="line" smooth="yes"/>
      <point x="516" y="364"/>
      <point x="526" y="396"/>
      <point x="549" y="417" type="curve" smooth="yes"/>
      <point x="564" y="431"/>
      <point x="585" y="439"/>
      <point x="613" y="439" type="curve" smooth="yes"/>
      <point x="685" y="439"/>
      <point x="725" y="372"/>
      <point x="725" y="291" type="curve" smooth="yes"/>
      <point x="725" y="195"/>
      <point x="691" y="126"/>
      <point x="564" y="126" type="curve" smooth="yes"/>
      <point x="554" y="126"/>
      <point x="543" y="126"/>
      <point x="533" y="127" type="curve"/>
      <point x="529" y="-8" type="line"/>
      <point x="547" y="-11"/>
      <point x="568" y="-11"/>
    </contour>
  </outline>
</glyph>
<glyph name="viramasinh" format="2">
  <unicode hex="0DCA"/>
  <outline>
    <contour>
      <point x="-272" y="517" type="line"/>
      <point x="-151" y="517" type="line"/>
      <point x="-151" y="837" type="line"/>
      <point x="-189" y="887" type="line"/>
      <point x="-193" y="938"/>
      <point x="-222" y="969"/>
      <point x="-278" y="979" type="curve"/>
      <point x="-325" y="878" type="line"/>
      <point x="-307" y="870"/>
      <point x="-293" y="862"/>
      <point x="-284" y="850" type="curve" smooth="yes"/>
      <point x="-276" y="839"/>
      <point x="-272" y="825"/>
      <point x="-272" y="793" type="curve" smooth="yes"/>
    </contour>
    <contour>
      <point x="-127" y="753" type="curve" smooth="yes"/>
      <point x="-51" y="753"/>
      <point x="0" y="782"/>
      <point x="0" y="868" type="curve" smooth="yes"/>
      <point x="0" y="932"/>
      <point x="-36" y="979"/>
      <point x="-102" y="979" type="curve" smooth="yes"/>
      <point x="-167" y="979"/>
      <point x="-203" y="941"/>
      <point x="-217" y="875" type="curve"/>
      <point x="-151" y="821" type="line"/>
      <point x="-151" y="852" type="line" smooth="yes"/>
      <point x="-151" y="874"/>
      <point x="-140" y="887"/>
      <point x="-120" y="887" type="curve" smooth="yes"/>
      <point x="-104" y="887"/>
      <point x="-96" y="880"/>
      <point x="-96" y="867" type="curve" smooth="yes"/>
      <point x="-96" y="852"/>
      <point x="-108" y="845"/>
      <point x="-129" y="845" type="curve" smooth="yes"/>
      <point x="-156" y="845"/>
      <point x="-178" y="852"/>
      <point x="-208" y="866" type="curve"/>
      <point x="-231" y="779" type="line"/>
      <point x="-187" y="759"/>
      <point x="-153" y="753"/>
    </contour>
  </outline>
</glyph>
<glyph name="aavowelsignsinh" format="2">
  <advance width="404"/>
  <unicode hex="0DCF"/>
  <outline>
    <contour>
      <point x="121" y="-11" type="curve" smooth="yes"/>
      <point x="316" y="-11"/>
      <point x="372" y="112"/>
      <point x="372" y="279" type="curve" smooth="yes"/>
      <point x="372" y="443"/>
      <point x="307" y="565"/>
      <point x="127" y="565" type="curve" smooth="yes"/>
      <point x="74" y="565"/>
      <point x="42" y="557"/>
      <point x="8" y="548" type="curve"/>
      <point x="34" y="421" type="line"/>
      <point x="60" y="429"/>
      <point x="84" y="432"/>
      <point x="102" y="432" type="curve" smooth="yes"/>
      <point x="182" y="432"/>
      <point x="202" y="371"/>
      <point x="202" y="280" type="curve" smooth="yes"/>
      <point x="202" y="174"/>
      <point x="177" y="122"/>
      <point x="102" y="122" type="curve" smooth="yes"/>
      <point x="80" y="122"/>
      <point x="60" y="125"/>
      <point x="34" y="133" type="curve"/>
      <point x="9" y="6" type="line"/>
      <point x="43" y="-6"/>
      <point x="92" y="-11"/>
    </contour>
  </outline>
</glyph>
<glyph name="aevowelsignsinh" format="2">
  <advance width="352"/>
  <unicode hex="0DD0"/>
  <outline>
    <contour>
      <point x="218" y="-177" type="curve" smooth="yes"/>
      <point x="280" y="-177"/>
      <point x="319" y="-171"/>
      <point x="368" y="-153" type="curve"/>
      <point x="332" y="-27" type="line"/>
      <point x="312" y="-38"/>
      <point x="278" y="-44"/>
      <point x="254" y="-44" type="curve" smooth="yes"/>
      <point x="211" y="-44"/>
      <point x="183" y="-24"/>
      <point x="183" y="29" type="curve" smooth="yes"/>
      <point x="183" y="91"/>
      <point x="205" y="156"/>
      <point x="347" y="311" type="curve"/>
      <point x="300" y="407" type="line"/>
      <point x="17" y="407" type="line"/>
      <point x="17" y="275" type="line"/>
      <point x="118" y="275" type="line" smooth="yes"/>
      <point x="146" y="275"/>
      <point x="179" y="277"/>
      <point x="203" y="281" type="curve"/>
      <point x="197" y="331" type="line"/>
      <point x="34" y="173"/>
      <point x="16" y="95"/>
      <point x="16" y="11" type="curve" smooth="yes"/>
      <point x="16" y="-127"/>
      <point x="105" y="-177"/>
    </contour>
  </outline>
</glyph>
<glyph name="aaevowelsignsinh" format="2">
  <advance width="354"/>
  <unicode hex="0DD1"/>
  <outline>
    <contour>
      <point x="218" y="-177" type="curve" smooth="yes"/>
      <point x="280" y="-177"/>
      <point x="320" y="-170"/>
      <point x="368" y="-153" type="curve"/>
      <point x="332" y="-27" type="line"/>
      <point x="312" y="-38"/>
      <point x="282" y="-44"/>
      <point x="257" y="-44" type="curve" smooth="yes"/>
      <point x="204" y="-44"/>
      <point x="183" y="-19"/>
      <point x="183" y="21" type="curve" smooth="yes"/>
      <point x="183" y="74"/>
      <point x="221" y="116"/>
      <point x="330" y="151" type="curve"/>
      <point x="299" y="247" type="line"/>
      <point x="271" y="246" type="line" smooth="yes"/>
      <point x="219" y="245"/>
      <point x="141" y="236"/>
      <point x="86" y="225" type="curve"/>
      <point x="86" y="208" type="line"/>
      <point x="179" y="233"/>
      <point x="291" y="282"/>
      <point x="337" y="311" type="curve"/>
      <point x="300" y="407" type="line"/>
      <point x="17" y="407" type="line"/>
      <point x="17" y="278" type="line"/>
      <point x="45" y="278" type="line" smooth="yes"/>
      <point x="83" y="278"/>
      <point x="130" y="282"/>
      <point x="158" y="287" type="curve"/>
      <point x="255" y="351" type="line"/>
      <point x="193" y="316"/>
      <point x="99" y="278"/>
      <point x="18" y="227" type="curve"/>
      <point x="53" y="145" type="line"/>
      <point x="66" y="146" type="line" smooth="yes"/>
      <point x="104" y="149"/>
      <point x="204" y="160"/>
      <point x="245" y="168" type="curve"/>
      <point x="231" y="205" type="line"/>
      <point x="113" y="158"/>
      <point x="16" y="103"/>
      <point x="16" y="-15" type="curve" smooth="yes"/>
      <point x="16" y="-103"/>
      <point x="82" y="-177"/>
    </contour>
  </outline>
</glyph>
<glyph name="ivowelsignsinh" format="2">
  <unicode hex="0DD2"/>
  <outline>
    <contour>
      <point x="-311" y="894" type="curve" smooth="yes"/>
      <point x="-571" y="894"/>
      <point x="-626" y="790"/>
      <point x="-626" y="693" type="curve" smooth="yes"/>
      <point x="-626" y="673"/>
      <point x="-623" y="649"/>
      <point x="-618" y="630" type="curve"/>
      <point x="-483" y="642" type="line"/>
      <point x="-485" y="649"/>
      <point x="-486" y="660"/>
      <point x="-486" y="671" type="curve" smooth="yes"/>
      <point x="-486" y="719"/>
      <point x="-456" y="746"/>
      <point x="-311" y="746" type="curve" smooth="yes"/>
      <point x="-166" y="746"/>
      <point x="-136" y="719"/>
      <point x="-136" y="671" type="curve" smooth="yes"/>
      <point x="-136" y="660"/>
      <point x="-137" y="649"/>
      <point x="-139" y="642" type="curve"/>
      <point x="-4" y="630" type="line"/>
      <point x="1" y="649"/>
      <point x="4" y="673"/>
      <point x="4" y="693" type="curve" smooth="yes"/>
      <point x="4" y="790"/>
      <point x="-51" y="894"/>
    </contour>
  </outline>
</glyph>
